<?xml version="1.0" standalone="no"?>
<!DOCTYPE svg PUBLIC "-//W3C//DTD SVG 1.1//EN" "http://www.w3.org/Graphics/SVG/1.1/DTD/svg11.dtd" >
<svg xmlns="http://www.w3.org/2000/svg">
<metadata></metadata>
<defs>
<font id="diodrummedium" horiz-adv-x="500" >
<font-face units-per-em="1000" ascent="750" descent="-250" />
<missing-glyph horiz-adv-x="245" />
<glyph unicode="fi" horiz-adv-x="570" d="M23 507h72v41q0 87 40 135.5t121 48.5q43 0 78 -11l-15 -81q-23 7 -48 7q-42 0 -58.5 -25t-16.5 -72v-43h294v-507h-102v425h-192v-425h-101v425h-72v82zM377 657q0 27 17 43.5t46 16.5t45.5 -16.5t16.5 -43.5q0 -28 -16.5 -45t-45.5 -17q-30 0 -46.5 17t-16.5 45z" />
<glyph unicode="fl" horiz-adv-x="612" d="M23 507h72v43q0 182 198 182q92 0 196 -27v-543q0 -46 14 -67.5t47 -21.5q17 0 29 3l8 -81q-28 -7 -57 -7q-142 0 -142 173v478q-40 8 -79 8q-61 0 -87 -24t-26 -71v-45h119v-82h-119v-425h-101v425h-72v82z" />
<glyph unicode=" "  horiz-adv-x="245" />
<glyph unicode="&#x09;" horiz-adv-x="245" />
<glyph unicode="&#xa0;" horiz-adv-x="245" />
<glyph unicode="!" horiz-adv-x="305" d="M210 700v-210q0 -114 -19 -263h-78q-18 141 -18 263v210h115zM214 52q0 -27 -16 -43.5t-45 -16.5t-45.5 16.5t-16.5 43.5t16.5 43t45.5 16t45 -16t16 -43z" />
<glyph unicode="&#x22;" horiz-adv-x="370" d="M237 464q-12 166 -12 236h95q0 -45 -2 -83.5t-5.5 -81t-4.5 -71.5h-71zM62 464q-1 23 -5 70t-5.5 83.5t-1.5 82.5h95q0 -46 -1.5 -82.5t-5.5 -83.5t-5 -70h-71z" />
<glyph unicode="#" horiz-adv-x="661" d="M340 0l39 174h-170l-39 -174h-85l39 174h-94v80h112l36 164h-95v79h113l39 174h85l-39 -174h170l39 174h85l-39 -174h95v-79h-113l-36 -164h98v-80h-116l-39 -174h-85zM397 254l36 164h-170l-36 -164h170z" />
<glyph unicode="$" horiz-adv-x="554" d="M452 656l-17 -86q-79 22 -150 22q-124 0 -124 -90q0 -44 31.5 -65.5t118.5 -48.5q96 -30 145.5 -74.5t49.5 -131.5q0 -166 -181 -190v-113h-94v110q-97 5 -175 36l17 87q101 -33 188 -33q141 0 141 102q0 50 -36.5 74t-128.5 52q-91 26 -135.5 70t-44.5 125 q0 75 48.5 121t128.5 57v106h94v-105q68 -6 124 -25z" />
<glyph unicode="%" horiz-adv-x="847" d="M358 514q0 -80 -43 -125.5t-115 -45.5q-71 0 -114 46t-43 125q0 77 43.5 123t113.5 46q71 0 114.5 -46t43.5 -123zM125 514q0 -48 19 -75.5t56 -27.5q76 0 76 103q0 46 -19 73.5t-57 27.5q-36 0 -55.5 -27.5t-19.5 -73.5zM557 671h80l-346 -671h-80zM804 159 q0 -79 -43 -125t-114 -46t-114.5 46t-43.5 125q0 77 43.5 123t114.5 46t114 -46t43 -123zM572 159q0 -47 19 -74.5t56 -27.5q75 0 75 102q0 101 -75 101q-37 0 -56 -27t-19 -74z" />
<glyph unicode="&#x26;" horiz-adv-x="721" d="M235 537q0 -58 57 -126q62 24 95.5 55t33.5 78q0 37 -24.5 60.5t-70.5 23.5q-40 0 -65.5 -24t-25.5 -67zM581 0l-72 70q-92 -82 -222 -82q-110 0 -174.5 54.5t-64.5 147.5q0 129 152 190q-63 81 -63 159t52.5 125.5t137.5 47.5q86 0 137 -43.5t51 -113.5 q0 -131 -170 -200q3 -4 7 -7.5t8.5 -8l7.5 -7.5l134 -132q33 59 46 146h95q-14 -119 -76 -210l139 -136h-125zM290 76q95 0 157 54l-145 141l-50 50q-50 -21 -75 -50.5t-25 -76.5q0 -53 38 -85.5t100 -32.5z" />
<glyph unicode="'" horiz-adv-x="195" d="M62 464q-1 23 -5 70t-5.5 83.5t-1.5 82.5h95q0 -46 -1.5 -82.5t-5.5 -83.5t-5 -70h-71z" />
<glyph unicode="(" horiz-adv-x="308" d="M283 761q-127 -214 -127 -453q0 -238 127 -452h-100q-130 191 -130 452q0 262 130 453h100z" />
<glyph unicode=")" horiz-adv-x="308" d="M152 308q0 239 -127 453h100q130 -191 130 -453q0 -261 -130 -452h-100q127 214 127 452z" />
<glyph unicode="*" horiz-adv-x="388" d="M158 732h71q0 -46 -4 -118q49 21 111 41l21 -68q-49 -16 -113 -32q36 -37 78 -90l-57 -43q-38 49 -72 99q-36 -56 -71 -98l-57 43q51 62 77 90q-51 12 -112 31l22 68q40 -13 111 -41q-5 60 -5 118z" />
<glyph unicode="+" horiz-adv-x="524" d="M37 298v88h179v181h94v-181h177v-88h-177v-186h-94v186h-179z" />
<glyph unicode="," horiz-adv-x="230" d="M74 112h97q-1 -66 -24 -136t-55 -123h-58q33 122 40 259z" />
<glyph unicode="-" horiz-adv-x="336" d="M40 274v86h256v-86h-256z" />
<glyph unicode="." horiz-adv-x="230" d="M116 -9q-30 0 -46.5 16.5t-16.5 44.5t16.5 44t46.5 16q29 0 45 -16.5t16 -43.5q0 -28 -16 -44.5t-45 -16.5z" />
<glyph unicode="/" horiz-adv-x="464" d="M328 755h101l-293 -810h-101z" />
<glyph unicode="0" horiz-adv-x="617" d="M309 -12q-131 0 -192.5 96t-61.5 251q0 74 14 135t43 109.5t79 76t118 27.5q131 0 192 -96t61 -252q0 -75 -13.5 -136t-42.5 -109t-79 -75t-118 -27zM309 77q146 0 146 258q0 259 -146 259q-148 0 -148 -259q0 -258 148 -258z" />
<glyph unicode="1" horiz-adv-x="379" d="M59 493l-43 79q80 54 190 99h92v-671h-103v565q-73 -34 -136 -72z" />
<glyph unicode="2" horiz-adv-x="512" d="M33 0v86l117 114q100 97 143 157t43 128q0 53 -30 81t-85 28q-72 0 -141 -53l-45 73q86 69 197 69q99 0 153.5 -51.5t54.5 -138.5q0 -91 -59 -174t-166 -182l-53 -49h312v-88h-441z" />
<glyph unicode="3" horiz-adv-x="507" d="M33 29l29 82q63 -34 146 -34q66 0 102.5 30.5t36.5 89.5q0 104 -150 104h-59v87h48q67 0 102 29t35 80q0 48 -33 72.5t-86 24.5q-68 0 -125 -41l-44 72q79 58 184 58q96 0 152 -45.5t56 -125.5q0 -114 -100 -160q125 -42 125 -165q0 -96 -64 -147.5t-172 -51.5 q-106 0 -183 41z" />
<glyph unicode="4" horiz-adv-x="597" d="M468 232h99v-85h-99v-147h-98v147h-340v77q136 253 330 454h108v-446zM377 577q-144 -177 -243 -345h236v176q0 81 7 169z" />
<glyph unicode="5" horiz-adv-x="526" d="M433 583h-253l-16 -167q46 4 76 4q117 0 179 -54.5t62 -153.5q0 -103 -68 -163.5t-186 -60.5q-107 0 -192 44l31 82q79 -37 160 -37q74 0 112 35t38 98q0 123 -170 123q-55 0 -140 -16l33 354h334v-88z" />
<glyph unicode="6" horiz-adv-x="576" d="M464 668l-20 -84q-53 11 -87 11q-171 0 -195 -218q75 49 165 49q96 0 151 -56t55 -148q0 -107 -61 -170.5t-166 -63.5q-119 0 -185 89t-66 224q0 77 16.5 143.5t50.5 121t92 86t134 31.5q71 0 116 -15zM307 77q60 0 90.5 38.5t30.5 100.5q0 121 -131 121q-63 0 -139 -41 q1 -97 38.5 -158t110.5 -61z" />
<glyph unicode="7" horiz-adv-x="472" d="M209 0h-109q79 286 234 583h-306v88h414v-79q-84 -174 -137.5 -305t-95.5 -287z" />
<glyph unicode="8" horiz-adv-x="593" d="M538 183q0 -90 -66.5 -142.5t-177.5 -52.5q-103 0 -171 49.5t-68 137.5q0 112 113 165q-94 54 -94 155q0 85 62.5 136.5t158.5 51.5q106 0 165 -51.5t59 -131.5q0 -101 -94 -159q113 -53 113 -158zM308 381q4 -1 11 -3t12.5 -3.5t9.5 -2.5q75 48 75 123q0 47 -33 76.5 t-88 29.5q-51 0 -84.5 -27.5t-33.5 -73.5q0 -85 131 -119zM298 70q60 0 98.5 28t38.5 78t-38 74t-129 49q-3 1 -9.5 3t-10.5 3q-89 -45 -89 -123q0 -53 40.5 -82.5t98.5 -29.5z" />
<glyph unicode="9" horiz-adv-x="569" d="M275 326q81 0 143 39q-4 229 -144 229q-59 0 -93 -39t-34 -102q0 -57 31.5 -92t96.5 -35zM83 8l15 86q60 -17 114 -17q97 0 145 50.5t58 153.5q-68 -45 -160 -45q-103 0 -157.5 59.5t-54.5 156.5q0 105 64 168t166 63q126 0 187 -91.5t61 -238.5q0 -175 -71 -270 t-232 -95q-71 0 -135 20z" />
<glyph unicode=":" horiz-adv-x="265" d="M195 52q0 -28 -16 -44.5t-46 -16.5t-46.5 16.5t-16.5 44.5t16.5 44t46.5 16q29 0 45.5 -16t16.5 -44zM195 449q0 -28 -16 -44.5t-46 -16.5t-46.5 16.5t-16.5 44.5t16.5 44t46.5 16q29 0 45.5 -16.5t16.5 -43.5z" />
<glyph unicode=";" horiz-adv-x="265" d="M195 449q0 -28 -16 -44.5t-46 -16.5t-46.5 16.5t-16.5 44.5t16.5 44t46.5 16q29 0 45.5 -16.5t16.5 -43.5zM89 112h97q-1 -66 -24 -136t-55 -123h-57q32 124 39 259z" />
<glyph unicode="&#x3c;" horiz-adv-x="524" d="M487 114l-450 178v99l450 179v-102l-336 -126l336 -126v-102z" />
<glyph unicode="=" horiz-adv-x="524" d="M37 206v88h450v-88h-450zM37 390v88h450v-88h-450z" />
<glyph unicode="&#x3e;" horiz-adv-x="524" d="M37 114v102l336 126l-336 126v102l450 -179v-99z" />
<glyph unicode="?" horiz-adv-x="447" d="M189 111q29 0 45 -16t16 -43t-16 -43.5t-45 -16.5t-45 16.5t-16 43.5t16 43t45 16zM44 592l-21 87q76 33 159 33q104 0 163 -47.5t59 -131.5q0 -51 -19.5 -85.5t-55.5 -67.5q-6 -6 -22 -20t-23 -20.5t-18.5 -20t-16.5 -23.5t-9.5 -25t-4.5 -30v-14h-94v28q0 48 19 79 t54 62q2 2 14.5 12.5t15.5 13.5t13 12.5t13 14.5t9.5 15t9 17.5t4.5 18.5t2 22q0 47 -32 72t-90 25q-57 0 -129 -27z" />
<glyph unicode="@" horiz-adv-x="944" d="M363 187q0 -57 25 -89t75 -32q46 0 88 29q-11 42 -4 102l15 134q-36 10 -72 10q-59 0 -93 -41t-34 -113zM485 554q-156 0 -251.5 -101.5t-95.5 -264.5t94 -250.5t248 -87.5q102 0 224 36l13 -76q-118 -41 -239 -41q-198 0 -314 112t-116 306q0 121 49.5 221.5 t151.5 163.5t239 63q185 0 296.5 -101.5t111.5 -263.5q0 -126 -48.5 -204t-148.5 -78q-85 0 -122 58q-53 -58 -132 -58q-85 0 -128 55t-43 143q0 100 56.5 166t157.5 66q83 0 164 -33l-23 -208q-12 -112 75 -112q53 0 77.5 56t24.5 148q0 133 -87 209t-234 76z" />
<glyph unicode="A" horiz-adv-x="654" d="M327 591q-51 -113 -117 -319h234q-66 206 -117 319zM526 0q-27 96 -54 182h-290q-27 -86 -54 -182h-108q129 438 253 700h108q132 -282 253 -700h-108z" />
<glyph unicode="B" horiz-adv-x="609" d="M294 0h-208v700h184q265 0 265 -179q0 -108 -86 -152q112 -45 112 -169q0 -200 -267 -200zM188 315v-225h99q85 0 127.5 24t42.5 87q0 114 -146 114h-123zM188 610v-214h126q116 0 116 111q0 58 -41.5 80.5t-117.5 22.5h-83z" />
<glyph unicode="C" horiz-adv-x="591" d="M375 -12q-155 0 -238.5 95.5t-83.5 259.5q0 167 82.5 268t239.5 101q85 0 170 -35l-24 -90q-88 32 -145 32q-110 0 -162.5 -74.5t-52.5 -200.5q0 -125 54 -194t164 -69q75 0 151 38l21 -91q-78 -40 -176 -40z" />
<glyph unicode="D" horiz-adv-x="689" d="M535 351q0 122 -59 190.5t-179 68.5h-107v-520h107q119 0 178.5 69t59.5 192zM86 0v700h214q160 0 252 -94t92 -255q0 -162 -92.5 -256.5t-251.5 -94.5h-214z" />
<glyph unicode="E" horiz-adv-x="557" d="M506 90v-90h-420v700h420v-90h-316v-207h271v-90h-271v-223h316z" />
<glyph unicode="F" horiz-adv-x="537" d="M190 0h-104v700h410v-90h-306v-233h256v-90h-256v-287z" />
<glyph unicode="G" horiz-adv-x="669" d="M606 37q-103 -49 -208 -49q-164 0 -254.5 97t-90.5 260t90 265t250 102q108 0 192 -39l-24 -88q-80 34 -167 34q-114 0 -173.5 -75t-59.5 -199q0 -123 62 -193.5t179 -70.5q55 0 108 15v196h-136v87h232v-342z" />
<glyph unicode="H" horiz-adv-x="712" d="M627 0h-105v313h-332v-313h-104v700h104v-297h332v297h105v-700z" />
<glyph unicode="I" horiz-adv-x="276" d="M86 0v700h104v-700h-104z" />
<glyph unicode="J" horiz-adv-x="276" d="M14 -112q72 119 72 268v544h104v-549q0 -182 -85 -311z" />
<glyph unicode="K" horiz-adv-x="637" d="M577 700q-43 -203 -206 -339l249 -361h-122l-205 304q-39 -26 -103 -61v-243h-104v700h104v-352q122 69 190 153.5t92 198.5h105z" />
<glyph unicode="L" horiz-adv-x="537" d="M86 0v700h104v-610h310v-90h-414z" />
<glyph unicode="M" horiz-adv-x="887" d="M693 700h109v-700h-98v405q0 57 5 117q-86 -196 -222 -408h-85q-131 203 -225 409q6 -53 6 -118v-405h-97v700h108q95 -234 251 -482q150 241 248 482z" />
<glyph unicode="N" horiz-adv-x="717" d="M183 0h-97v700h101q139 -258 350 -553q-3 39 -3 91v462h97v-700h-102q-122 164 -200 279t-150 246q4 -47 4 -115v-410z" />
<glyph unicode="O" horiz-adv-x="714" d="M661 350q0 -162 -79 -262t-225 -100t-225 100t-79 262t79 262t225 100t225 -100t79 -262zM161 350q0 -122 49.5 -195.5t146.5 -73.5q98 0 147 73.5t49 195.5t-49 195.5t-147 73.5t-147 -73.5t-49 -195.5z" />
<glyph unicode="P" horiz-adv-x="609" d="M86 0v700h189q132 0 206.5 -58.5t74.5 -172.5t-74.5 -172.5t-206.5 -58.5h-85v-238h-104zM448 469q0 76 -45 108.5t-130 32.5h-83v-282h83q85 0 130 32.5t45 108.5z" />
<glyph unicode="Q" horiz-adv-x="714" d="M636 -159q-36 -6 -68 -6q-79 0 -131.5 39.5t-70.5 113.5h-9q-146 0 -225 100t-79 262t79 262t225 100t225 -100t79 -262q0 -130 -52 -222t-150 -124q27 -79 113 -79q34 0 54 5zM161 350q0 -122 49.5 -195.5t146.5 -73.5q98 0 147 73.5t49 195.5t-49 195.5t-147 73.5 t-147 -73.5t-49 -195.5z" />
<glyph unicode="R" horiz-adv-x="620" d="M266 610h-75v-242h75q84 0 126 29t42 93q0 65 -42 92.5t-126 27.5zM589 0h-116l-110 203q-23 41 -47 58t-63 17h-62v-278h-105v700h184q130 0 201 -50.5t71 -151.5q0 -86 -44.5 -131.5t-112.5 -56.5q42 -16 84 -92z" />
<glyph unicode="S" horiz-adv-x="539" d="M45 27l20 91q99 -38 187 -38q143 0 143 104q0 54 -36.5 80.5t-122.5 54.5q-94 31 -140.5 76.5t-46.5 125.5q0 92 61 141.5t171 49.5q96 0 177 -33l-21 -87q-82 28 -150 28q-132 0 -132 -96q0 -48 30 -72t102 -48q42 -14 69 -25t57.5 -29.5t47.5 -40t28.5 -53t11.5 -71.5 q0 -98 -68 -147.5t-177 -49.5q-122 0 -211 39z" />
<glyph unicode="T" horiz-adv-x="556" d="M226 0v610h-201v90h506v-90h-201v-610h-104z" />
<glyph unicode="U" horiz-adv-x="693" d="M81 273v427h104v-420q0 -199 162 -199q161 0 161 199v420h105v-427q0 -285 -266 -285t-266 285z" />
<glyph unicode="V" horiz-adv-x="633" d="M375 0h-117q-150 320 -238 700h108q82 -354 189 -599q107 249 188 599h108q-88 -380 -238 -700z" />
<glyph unicode="W" horiz-adv-x="977" d="M694 99q96 257 152 601h106q-73 -409 -197 -700h-114q-90 217 -152 511q-62 -294 -152 -511h-114q-127 300 -198 700h107q27 -165 69.5 -329.5t82.5 -271.5q109 290 156 601h98q49 -320 156 -601z" />
<glyph unicode="X" horiz-adv-x="622" d="M488 0l-194 295q-98 -133 -169 -295h-110q73 174 230 370l-217 330h120l176 -269q107 134 157 269h110q-65 -163 -219 -342l235 -358h-119z" />
<glyph unicode="Y" horiz-adv-x="598" d="M246 0v290q-164 223 -236 410h109q61 -155 181 -326q116 167 180 326h108q-76 -191 -237 -411v-289h-105z" />
<glyph unicode="Z" horiz-adv-x="560" d="M506 622q-64 -143 -143.5 -265t-195.5 -267h358v-90h-485v80q256 320 357 530h-346v90h455v-78z" />
<glyph unicode="[" horiz-adv-x="296" d="M70 -144v905h193v-88h-93v-729h93v-88h-193z" />
<glyph unicode="\" horiz-adv-x="464" d="M328 -55l-293 810h101l293 -810h-101z" />
<glyph unicode="]" horiz-adv-x="296" d="M33 761h193v-905h-193v88h93v729h-93v88z" />
<glyph unicode="^" horiz-adv-x="529" d="M378 345l-113 251l-114 -251h-102l166 355h99l166 -355h-102z" />
<glyph unicode="_" horiz-adv-x="503" d="M20 -108v78h463v-78h-463z" />
<glyph unicode="`" d="M224 568l-110 152h111l90 -152h-91z" />
<glyph unicode="a" horiz-adv-x="518" d="M249 64q61 0 97 21v131q-48 12 -94 12q-108 0 -108 -84q0 -80 105 -80zM445 34q-81 -46 -205 -46q-95 0 -146 42t-51 110q0 75 54 115t143 40q57 0 106 -11v42q0 108 -117 108q-73 0 -134 -25l-20 81q70 29 164 29q102 0 154 -51t52 -147v-287z" />
<glyph unicode="b" horiz-adv-x="575" d="M527 262q0 -127 -68.5 -200.5t-187.5 -73.5q-127 0 -190 34v696l101 5v-226q37 22 97 22q113 0 180.5 -67t67.5 -190zM182 87q34 -14 86 -14q77 0 116 49t39 138q0 174 -152 174q-47 0 -89 -26v-321z" />
<glyph unicode="c" horiz-adv-x="480" d="M295 519q82 0 147 -30l-20 -81q-62 26 -120 26q-72 0 -111.5 -48.5t-39.5 -132.5q0 -88 41 -134t120 -46q57 0 115 28l18 -82q-60 -31 -140 -31q-122 0 -189.5 69.5t-67.5 193.5q0 122 65.5 195t181.5 73z" />
<glyph unicode="d" horiz-adv-x="574" d="M494 30q-76 -42 -186 -42q-120 0 -190 68.5t-70 188.5q0 125 71 199.5t195 74.5q40 0 79 -12v211l101 5v-693zM151 249q0 -84 42 -130t114 -46q53 0 86 19v326q-37 16 -74 16q-82 0 -125 -48t-43 -137z" />
<glyph unicode="e" horiz-adv-x="544" d="M467 105l17 -82q-75 -35 -172 -35q-121 0 -192.5 70.5t-71.5 195.5q0 118 65 191.5t174 73.5q97 0 153.5 -62t56.5 -160q0 -29 -4 -67h-341q15 -156 169 -156q73 0 146 31zM287 436q-58 0 -92.5 -37.5t-41.5 -103.5h245q1 6 1 16q0 54 -28.5 89.5t-83.5 35.5z" />
<glyph unicode="f" horiz-adv-x="351" d="M23 507h72v41q0 86 40.5 135t122.5 49q38 0 90 -12l-17 -80q-40 7 -57 7q-78 0 -78 -97v-43h128v-82h-128v-425h-101v425h-72v82z" />
<glyph unicode="g" horiz-adv-x="570" d="M492 14q0 -98 -61.5 -151.5t-169.5 -53.5q-93 0 -167 29l21 82q65 -25 140 -25q66 0 101 29t35 81v42q-50 -26 -110 -26q-108 0 -170.5 63t-62.5 176q0 119 70 189t187 70q103 0 187 -40v-465zM151 268q0 -75 38 -118t106 -43q55 0 96 26v285q-44 16 -86 16 q-71 0 -112.5 -44.5t-41.5 -121.5z" />
<glyph unicode="h" horiz-adv-x="586" d="M182 0h-101v719l101 5v-234q56 29 127 29q95 0 149.5 -51t54.5 -142v-326h-102v318q0 115 -116 115q-61 0 -113 -29v-404z" />
<glyph unicode="i" horiz-adv-x="262" d="M182 507v-507h-101v507h101zM131 595q-30 0 -46.5 17t-16.5 45q0 27 17 43.5t46 16.5t45.5 -16.5t16.5 -43.5q0 -28 -16.5 -45t-45.5 -17z" />
<glyph unicode="j" horiz-adv-x="262" d="M182 7q0 -74 -33 -119.5t-106 -71.5l-31 84q37 18 53 42t16 69v496h101v-500zM193 657q0 -28 -16.5 -45t-45.5 -17q-30 0 -46.5 17t-16.5 45q0 27 17 43.5t46 16.5t45.5 -16.5t16.5 -43.5z" />
<glyph unicode="k" horiz-adv-x="537" d="M479 507q-11 -130 -137 -239l175 -268h-112l-135 211q-43 -30 -88 -57v-154h-101v718l101 5v-470q90 54 136.5 113t60.5 141h100z" />
<glyph unicode="l" horiz-adv-x="298" d="M177 724v-562q0 -46 14 -67.5t47 -21.5q17 0 29 3l8 -81q-28 -7 -57 -7q-142 0 -142 173v557z" />
<glyph unicode="m" horiz-adv-x="885" d="M812 0h-101v319q0 115 -109 115q-67 0 -120 -35q13 -38 13 -91v-308h-99v319q0 115 -108 115q-59 0 -109 -26v-408h-101v472q100 47 214 47q91 0 143 -46q83 46 171 46q101 0 153.5 -51t52.5 -142v-326z" />
<glyph unicode="n" horiz-adv-x="583" d="M179 0h-101v472q100 47 218 47q104 0 159 -50.5t55 -142.5v-326h-101v319q0 115 -113 115q-65 0 -117 -26v-408z" />
<glyph unicode="o" horiz-adv-x="571" d="M523 254q0 -121 -63.5 -193.5t-174.5 -72.5q-110 0 -173.5 72.5t-63.5 193.5q0 120 63.5 192.5t173.5 72.5q111 0 174.5 -72.5t63.5 -192.5zM151 254q0 -84 34.5 -132.5t99.5 -48.5q67 0 100.5 48t33.5 133q0 84 -34 132t-100 48q-65 0 -99.5 -48.5t-34.5 -131.5z" />
<glyph unicode="p" horiz-adv-x="571" d="M524 264q0 -125 -63.5 -200t-180.5 -75q-54 0 -101 20v-195h-101v660q92 45 198 45q118 0 183 -69t65 -186zM179 95q46 -22 87 -22q153 0 153 188q0 79 -36.5 126t-111.5 47q-47 0 -92 -21v-318z" />
<glyph unicode="q" horiz-adv-x="571" d="M493 -186h-101v205q-46 -31 -112 -31q-107 0 -169.5 70t-62.5 188q0 127 69 200t188 73q108 0 188 -40v-665zM151 251q0 -82 39 -130t110 -48q53 0 92 31v315q-41 15 -83 15q-74 0 -116 -47.5t-42 -135.5z" />
<glyph unicode="r" horiz-adv-x="377" d="M81 471q86 48 210 48q39 0 71 -7l-14 -85q-21 7 -50 7q-67 0 -116 -26v-408h-101v471z" />
<glyph unicode="s" horiz-adv-x="436" d="M377 492l-12 -83q-83 25 -134 25q-90 0 -90 -62q0 -31 22.5 -46t75.5 -31q89 -25 129 -59t40 -97q0 -74 -54 -112.5t-143 -38.5q-99 0 -173 31l15 85q80 -31 157 -31q45 0 71.5 17t26.5 47q0 31 -25.5 46.5t-95.5 35.5q-71 21 -108.5 55t-37.5 96q0 72 48 110.5t135 38.5 q89 0 153 -27z" />
<glyph unicode="t" horiz-adv-x="353" d="M333 -2q-40 -10 -81 -10q-162 0 -162 177v260h-72v82h72v116l101 5v-121h125v-82h-125v-259q0 -93 78 -93q32 0 58 7z" />
<glyph unicode="u" horiz-adv-x="577" d="M499 36q-98 -48 -221 -48q-205 0 -205 196v323h101v-323q0 -111 106 -111q66 0 118 27v407h101v-471z" />
<glyph unicode="v" horiz-adv-x="530" d="M135 507q23 -219 130 -423q111 205 131 423h101q-18 -142 -58.5 -257t-117.5 -250h-112q-80 137 -121 251.5t-55 255.5h102z" />
<glyph unicode="w" horiz-adv-x="797" d="M434 507q20 -217 113 -425q102 207 117 425h100q-15 -143 -52.5 -258t-109.5 -249h-102q-73 145 -107 245q-34 -123 -99 -245h-99q-75 129 -111 243.5t-51 263.5h100q21 -223 117 -425q79 156 104 318q-9 52 -15 107h95z" />
<glyph unicode="x" horiz-adv-x="507" d="M27 0q22 77 58.5 138.5t100.5 128.5q-114 126 -155 240h109q29 -76 118 -186q86 105 103 186h103q-19 -71 -55 -128.5t-97 -118.5q108 -122 169 -260h-110q-44 100 -132 206q-89 -114 -113 -206h-99z" />
<glyph unicode="y" horiz-adv-x="512" d="M326 28q-103 -181 -263 -213l-17 87q113 23 171 119q-82 116 -126.5 230.5t-59.5 255.5h102q11 -120 45.5 -216t91.5 -192q50 101 77.5 193.5t38.5 214.5h101q-26 -238 -161 -479z" />
<glyph unicode="z" horiz-adv-x="461" d="M47 507h371v-69q-94 -175 -260 -356h275v-82h-400v70q187 197 275 355h-261v82z" />
<glyph unicode="{" horiz-adv-x="327" d="M25 352q53 0 72 21.5t19 76.5q0 25 -5 83t-5 90q0 65 33.5 103.5t96.5 38.5q41 0 58 -3v-78h-26q-36 0 -50.5 -17t-14.5 -57q0 -26 5 -82.5t5 -81.5q0 -107 -78 -136q41 -16 59.5 -49t18.5 -88q0 -25 -5 -82t-5 -82q0 -40 14.5 -57t50.5 -17h26v-78q-23 -4 -59 -4 q-62 0 -95.5 39t-33.5 104q0 31 5 89.5t5 83.5q0 55 -19 76.5t-72 21.5v85z" />
<glyph unicode="|" horiz-adv-x="272" d="M86 -229v995h101v-995h-101z" />
<glyph unicode="}" horiz-adv-x="327" d="M211 450q0 -55 19 -76.5t72 -21.5v-85q-53 0 -72 -21.5t-19 -76.5q0 -25 5 -83.5t5 -89.5q0 -65 -33.5 -104t-95.5 -39q-35 0 -59 4v78h26q36 0 50.5 17t14.5 57q0 25 -5 82t-5 82q0 107 78 136q-41 16 -59.5 49t-18.5 88q0 25 5 81.5t5 82.5q0 40 -14.5 57t-50.5 17h-26 v78q18 3 58 3q63 0 96.5 -38.5t33.5 -103.5q0 -32 -5 -90t-5 -83z" />
<glyph unicode="~" horiz-adv-x="524" d="M348 364q54 0 80 56l59 -36q-12 -54 -43.5 -84.5t-79.5 -30.5q-45 0 -98.5 25t-86.5 25q-58 0 -82 -52l-60 38q14 51 48 79.5t82 28.5q41 0 94.5 -24.5t86.5 -24.5z" />
<glyph unicode="&#xa1;" horiz-adv-x="305" d="M96 -189v210q0 110 18 263h78q18 -141 18 -263v-210h-114zM91 459q0 27 16.5 43.5t44.5 16.5q30 0 46 -16.5t16 -43.5t-16.5 -43t-45.5 -16q-28 0 -44.5 16t-16.5 43z" />
<glyph unicode="&#xa2;" horiz-adv-x="502" d="M50 253q0 107 51 176.5t144 85.5v110h94v-107q71 -7 113 -24l-19 -81q-58 21 -120 21q-80 0 -119.5 -46.5t-39.5 -131.5q0 -89 41 -136t120 -47q69 0 124 22l17 -82q-43 -19 -116 -24v-109h-94v113q-93 16 -144.5 84.5t-51.5 175.5z" />
<glyph unicode="&#xa3;" horiz-adv-x="558" d="M526 0h-403v306h-95v85h95v79q0 98 51 155.5t155 57.5q93 0 177 -34l-27 -82q-77 25 -137 25q-118 0 -118 -122v-79h155v-85h-155v-217h302v-89z" />
<glyph unicode="&#xa4;" horiz-adv-x="617" d="M172 352q0 -62 37 -100t99 -38t98 38t36 100t-36 99.5t-98 37.5t-99 -37.5t-37 -99.5zM507 100l-73 71q-54 -34 -126 -34q-71 0 -125 34l-74 -71l-59 61l72 70q-33 52 -33 121q0 71 34 122l-73 70l59 62l75 -73q52 33 124 33q69 0 124 -33l75 73l60 -62l-74 -71 q33 -52 33 -121q0 -67 -32 -120l73 -71z" />
<glyph unicode="&#xa5;" horiz-adv-x="647" d="M65 164v75h208v57q-5 7 -14.5 19.5t-14.5 19.5h-179v75h127q-81 123 -149 276h108q62 -154 173 -310q110 156 173 310h108q-66 -149 -150 -276h126v-75h-178q-1 -1 -29 -40v-56h207v-75h-207v-164h-101v164h-208z" />
<glyph unicode="&#xa6;" horiz-adv-x="272" d="M86 340v425h101v-425h-101zM86 -229v427h101v-427h-101z" />
<glyph unicode="&#xa7;" horiz-adv-x="595" d="M304 176q62 -24 81 -33q53 40 53 96q0 44 -33.5 67t-130.5 59q-34 13 -64 27q-53 -37 -53 -95q0 -44 31 -67t116 -54zM273 -178q-103 0 -179 34l19 84q79 -28 154 -28q120 0 120 78q0 38 -28 57t-105 46l-9 3q-101 36 -148 78t-47 114q0 101 92 152q-41 41 -41 107 q0 81 59.5 123t150.5 42q93 0 172 -30l-19 -84q-79 23 -147 23q-110 0 -110 -72q0 -35 29 -57.5t96 -47.5q54 -20 87 -35t65 -38t46.5 -53t14.5 -70q0 -100 -91 -151q40 -42 40 -105q0 -85 -63.5 -127.5t-157.5 -42.5z" />
<glyph unicode="&#xa8;" d="M217 640q0 -26 -16.5 -42t-43.5 -16q-28 0 -43.5 16t-15.5 42q0 25 15.5 41t43.5 16q27 0 43.5 -16t16.5 -41zM400 640q0 -26 -15.5 -42t-42.5 -16q-28 0 -44 16t-16 42q0 25 16 41t44 16q27 0 42.5 -16t15.5 -41z" />
<glyph unicode="&#xa9;" horiz-adv-x="822" d="M420 543q54 0 102 -18l-13 -64q-42 13 -80 13q-116 0 -116 -123q0 -122 114 -122q43 0 82 13l13 -64q-51 -18 -102 -18q-79 0 -131.5 47.5t-52.5 143.5q0 97 52.5 144.5t131.5 47.5zM113 350q0 -134 80 -215.5t218 -81.5t218 81.5t80 215.5t-80 215.5t-218 81.5 q-137 0 -217.5 -81.5t-80.5 -215.5zM781 350q0 -163 -101.5 -262.5t-267.5 -99.5q-167 0 -269.5 99.5t-102.5 262.5t102 262.5t269 99.5q166 0 268 -99.5t102 -262.5z" />
<glyph unicode="&#xaa;" horiz-adv-x="344" d="M70 609l-14 56q50 18 101 18q141 0 141 -121v-185h-2q-63 -36 -138 -36q-59 0 -90.5 27t-31.5 74q0 48 34 73.5t87 25.5q36 0 75 -7v24q0 34 -18 49.5t-59 15.5t-85 -14zM165 395q37 0 67 12v79q-30 6 -64 6q-64 0 -64 -47q0 -50 61 -50z" />
<glyph unicode="&#xab;" horiz-adv-x="618" d="M199 65q-90 87 -176 212q83 122 176 212h124q-91 -89 -182 -212q87 -119 182 -212h-124zM456 65q-94 92 -176 212q79 117 176 212h124q-95 -93 -182 -212q84 -114 182 -212h-124z" />
<glyph unicode="&#xac;" horiz-adv-x="524" d="M37 318v88h450v-269h-94v181h-356z" />
<glyph unicode="&#xad;" horiz-adv-x="336" />
<glyph unicode="&#xae;" horiz-adv-x="558" d="M470 473q0 93 -50.5 144.5t-140.5 51.5t-140 -51t-50 -145t50 -145t140 -51t140.5 51t50.5 145zM41 473q0 108 65 173.5t173 65.5q107 0 173 -65.5t66 -173.5t-66 -173.5t-173 -65.5q-108 0 -173 65.5t-65 173.5zM195 356v243h80q96 0 96 -78q0 -54 -48 -70 q22 -42 65 -95h-56q-31 37 -56 88h-35v-88h-46zM275 561h-34v-80h34q52 0 52 40t-52 40z" />
<glyph unicode="&#xaf;" d="M102 596v80h291v-80h-291z" />
<glyph unicode="&#xb0;" horiz-adv-x="342" d="M30 574q0 62 39 100t102 38t102 -38t39 -100q0 -63 -39 -101.5t-102 -38.5t-102 38.5t-39 101.5zM171 650q-32 0 -52.5 -20.5t-20.5 -55.5q0 -36 20 -56.5t53 -20.5q34 0 53 20t19 57q0 36 -19.5 56t-52.5 20z" />
<glyph unicode="&#xb1;" horiz-adv-x="524" d="M37 23v88h450v-88h-450zM37 328v88h179v151h94v-151h177v-88h-177v-157h-94v157h-179z" />
<glyph unicode="&#xb2;" horiz-adv-x="337" d="M49 363v59l39 31q68 54 91.5 81t23.5 58q0 51 -58 51q-33 0 -71 -27l-31 58q52 38 122 38q54 0 88.5 -27.5t34.5 -77.5q0 -45 -31 -84.5t-103 -96.5h150v-63h-255z" />
<glyph unicode="&#xb3;" horiz-adv-x="337" d="M50 374l17 62q42 -16 82 -16q65 0 65 46t-60 46h-42v50h27q30 0 45 10t15 36q0 39 -56 39q-31 0 -65 -17l-26 57q44 25 102 25q61 0 94.5 -23.5t33.5 -66.5q0 -57 -54 -80q69 -19 69 -83q0 -53 -38 -78.5t-101 -25.5q-66 0 -108 19z" />
<glyph unicode="&#xb4;" d="M233 720h111l-110 -152h-91z" />
<glyph unicode="&#xb5;" horiz-adv-x="584" d="M179 -184h-98v691h101v-331q0 -101 95 -101q66 0 125 41v391h101v-507h-99v50q-64 -62 -150 -62q-45 0 -77 13l2 -121v-64z" />
<glyph unicode="&#xb6;" horiz-adv-x="601" d="M264 700h252v-700h-74v638h-104v-638h-74v286q-94 0 -156.5 52.5t-62.5 153.5q0 102 62.5 155t156.5 53z" />
<glyph unicode="&#xb7;" d="M45 372q0 27 16.5 43t45.5 16q28 0 44 -16t16 -43t-16 -43.5t-44 -16.5q-29 0 -45.5 16t-16.5 44z" />
<glyph unicode="&#xb8;" d="M148 -218l13 58q24 -6 47 -6q58 0 58 36t-66 38l-13 34l20 58h64l-19 -49q95 -8 95 -83q0 -48 -37.5 -71.5t-95.5 -23.5q-34 0 -66 9z" />
<glyph unicode="&#xb9;" horiz-adv-x="337" d="M86 582l-32 62q54 35 114 60h75v-341h-82v262q-39 -19 -75 -43z" />
<glyph unicode="&#xba;" horiz-adv-x="374" d="M341 512q0 -73 -39.5 -122.5t-113.5 -49.5q-75 0 -115 49.5t-40 122.5t40 122t115 49q74 0 113.5 -49t39.5 -122zM107 512q0 -52 20.5 -81t60.5 -29q79 0 79 110q0 52 -20 81.5t-59 29.5q-40 0 -60.5 -29.5t-20.5 -81.5z" />
<glyph unicode="&#xbb;" horiz-adv-x="618" d="M419 65h-124q95 93 182 212q-91 123 -182 212h124q97 -95 176 -212q-82 -120 -176 -212zM162 65h-124q98 98 182 212q-87 119 -182 212h124q97 -95 176 -212q-82 -120 -176 -212z" />
<glyph unicode="&#xbc;" horiz-adv-x="812" d="M86 582l-32 62q54 35 114 60h75v-341h-82v262q-39 -19 -75 -43zM571 700h86l-392 -700h-85zM481 61v51q68 121 177 229h75v-221h47v-59h-47v-61h-74v61h-178zM659 154q0 67 4 118q-68 -81 -113 -152h109v34z" />
<glyph unicode="&#xbd;" horiz-adv-x="812" d="M86 582l-32 62q54 35 114 60h75v-341h-82v262q-39 -19 -75 -43zM541 700h85l-392 -700h-85zM509 0v60l39 31q69 55 92 81.5t23 57.5q0 50 -57 50q-37 0 -72 -27l-31 58q52 38 122 38q54 0 88.5 -27.5t34.5 -77.5q0 -45 -31 -84.5t-103 -95.5h150v-64h-255z" />
<glyph unicode="&#xbe;" horiz-adv-x="812" d="M50 374l17 62q42 -16 82 -16q65 0 65 46t-60 46h-42v50h27q30 0 45 10t15 36q0 39 -56 39q-31 0 -65 -17l-26 57q44 25 102 25q61 0 94.5 -23.5t33.5 -66.5q0 -57 -54 -80q69 -19 69 -83q0 -53 -38 -78.5t-101 -25.5q-66 0 -108 19zM581 700h85l-392 -700h-85zM481 61v51 q68 121 177 229h75v-221h47v-59h-47v-61h-74v61h-178zM659 154q0 67 4 118q-68 -81 -113 -152h109v34z" />
<glyph unicode="&#xbf;" horiz-adv-x="447" d="M257 400q-28 0 -44.5 16t-16.5 43t16.5 43.5t44.5 16.5q29 0 45.5 -16.5t16.5 -43.5t-16.5 -43t-45.5 -16zM424 -168q-76 -33 -159 -33q-104 0 -163 47.5t-59 131.5q0 51 19.5 85.5t55.5 67.5q6 6 22 20t23 20.5t18.5 20t16.5 23.5t9.5 25t4.5 30v14h94v-28 q0 -48 -19 -78.5t-54 -62.5q-2 -2 -14.5 -13t-15.5 -13.5t-13 -12.5t-13 -14.5t-10 -14.5t-9 -18t-4.5 -18.5t-2.5 -21.5q0 -48 32.5 -72.5t90.5 -24.5q57 0 129 27z" />
<glyph unicode="&#xc0;" horiz-adv-x="654" d="M327 591q-51 -113 -117 -319h234q-66 206 -117 319zM526 0q-27 96 -54 182h-290q-27 -86 -54 -182h-108q129 438 253 700h108q132 -282 253 -700h-108zM286 758l-110 152h111l90 -152h-91z" />
<glyph unicode="&#xc1;" horiz-adv-x="654" d="M327 591q-51 -113 -117 -319h234q-66 206 -117 319zM526 0q-27 96 -54 182h-290q-27 -86 -54 -182h-108q129 438 253 700h108q132 -282 253 -700h-108zM372 910h111l-110 -152h-91z" />
<glyph unicode="&#xc2;" horiz-adv-x="654" d="M327 591q-51 -113 -117 -319h234q-66 206 -117 319zM526 0q-27 96 -54 182h-290q-27 -86 -54 -182h-108q129 438 253 700h108q132 -282 253 -700h-108zM397 758l-71 95l-69 -95h-100l116 152h107l116 -152h-99z" />
<glyph unicode="&#xc3;" horiz-adv-x="654" d="M327 591q-51 -113 -117 -319h234q-66 206 -117 319zM526 0q-27 96 -54 182h-290q-27 -86 -54 -182h-108q129 438 253 700h108q132 -282 253 -700h-108zM388 847q19 0 25.5 13t7.5 39h70q-1 -54 -21 -91.5t-67 -37.5q-30 0 -71 22.5t-61 22.5q-21 0 -29 -12t-10 -34h-70 q3 122 94 122q31 0 73 -22t59 -22z" />
<glyph unicode="&#xc4;" horiz-adv-x="654" d="M327 591q-51 -113 -117 -319h234q-66 206 -117 319zM526 0q-27 96 -54 182h-290q-27 -86 -54 -182h-108q129 438 253 700h108q132 -282 253 -700h-108zM294 830q0 -26 -16.5 -42t-43.5 -16q-28 0 -43.5 16t-15.5 42q0 25 15.5 41t43.5 16q27 0 43.5 -16t16.5 -41z M477 830q0 -26 -15.5 -42t-42.5 -16q-28 0 -44 16t-16 42q0 25 16 41t44 16q27 0 42.5 -16t15.5 -41z" />
<glyph unicode="&#xc5;" horiz-adv-x="654" d="M526 0q-27 96 -54 182h-290q-27 -86 -54 -182h-108q129 437 251 697q-59 29 -59 100q0 50 32.5 81.5t82.5 31.5t82.5 -31.5t32.5 -81.5q0 -71 -59 -100q130 -281 251 -697h-108zM327 849q-24 0 -37 -14.5t-13 -37.5q0 -22 13 -37t37 -15t37 15t13 37q0 23 -13 37.5 t-37 14.5zM327 591q-51 -113 -117 -319h234q-66 206 -117 319z" />
<glyph unicode="&#xc6;" horiz-adv-x="904" d="M854 90v-90h-406v182h-237q-46 -87 -90 -182h-108q161 359 395 700h446v-90h-301v-207h256v-90h-256v-223h301zM448 272v329q-93 -153 -190 -329h190z" />
<glyph unicode="&#xc7;" horiz-adv-x="591" d="M375 -12h-2l-14 -37q95 -9 95 -83q0 -48 -37.5 -71.5t-95.5 -23.5q-35 0 -66 9l12 58q24 -6 47 -6q59 0 59 36t-66 38l-13 34l17 51q-125 19 -191.5 111.5t-66.5 238.5q0 167 82.5 268t239.5 101q85 0 170 -35l-24 -90q-88 32 -145 32q-110 0 -162.5 -74.5t-52.5 -200.5 q0 -125 54 -194t164 -69q75 0 151 38l21 -91q-78 -40 -176 -40z" />
<glyph unicode="&#xc8;" horiz-adv-x="557" d="M506 90v-90h-420v700h420v-90h-316v-207h271v-90h-271v-223h316zM259 758l-110 152h111l90 -152h-91z" />
<glyph unicode="&#xc9;" horiz-adv-x="557" d="M506 90v-90h-420v700h420v-90h-316v-207h271v-90h-271v-223h316zM345 910h111l-110 -152h-91z" />
<glyph unicode="&#xca;" horiz-adv-x="557" d="M506 90v-90h-420v700h420v-90h-316v-207h271v-90h-271v-223h316zM370 758l-71 95l-69 -95h-100l116 152h107l116 -152h-99z" />
<glyph unicode="&#xcb;" horiz-adv-x="557" d="M506 90v-90h-420v700h420v-90h-316v-207h271v-90h-271v-223h316zM267 830q0 -26 -16.5 -42t-43.5 -16q-28 0 -43.5 16t-15.5 42q0 25 15.5 41t43.5 16q27 0 43.5 -16t16.5 -41zM450 830q0 -26 -15.5 -42t-42.5 -16q-28 0 -44 16t-16 42q0 25 16 41t44 16q27 0 42.5 -16 t15.5 -41z" />
<glyph unicode="&#xcc;" horiz-adv-x="276" d="M86 0v700h104v-700h-104zM97 758l-110 152h111l90 -152h-91z" />
<glyph unicode="&#xcd;" horiz-adv-x="276" d="M86 0v700h104v-700h-104zM183 910h111l-110 -152h-91z" />
<glyph unicode="&#xce;" horiz-adv-x="276" d="M86 0v700h104v-700h-104zM209 758l-71 95l-69 -95h-100l116 152h107l116 -152h-99z" />
<glyph unicode="&#xcf;" horiz-adv-x="276" d="M86 0v700h104v-700h-104zM105 830q0 -26 -16.5 -42t-43.5 -16q-28 0 -43.5 16t-15.5 42q0 25 15.5 41t43.5 16q27 0 43.5 -16t16.5 -41zM288 830q0 -26 -15.5 -42t-42.5 -16q-28 0 -44 16t-16 42q0 25 16 41t44 16q27 0 42.5 -16t15.5 -41z" />
<glyph unicode="&#xd0;" horiz-adv-x="694" d="M540 351q0 122 -59 190.5t-179 68.5h-107v-206h133v-90h-133v-224h107q119 0 178.5 69t59.5 192zM90 0v314h-75v90h75v296h215q160 0 252 -94t92 -255q0 -162 -92.5 -256.5t-251.5 -94.5h-215z" />
<glyph unicode="&#xd1;" horiz-adv-x="717" d="M183 0h-97v700h101q139 -258 350 -553q-3 39 -3 91v462h97v-700h-102q-122 164 -200 279t-150 246q4 -47 4 -115v-410zM423 847q19 0 25.5 13t7.5 39h70q-1 -54 -21 -91.5t-67 -37.5q-30 0 -71 22.5t-61 22.5q-21 0 -29 -12t-10 -34h-70q3 122 94 122q31 0 73 -22t59 -22 z" />
<glyph unicode="&#xd2;" horiz-adv-x="714" d="M661 350q0 -162 -79 -262t-225 -100t-225 100t-79 262t79 262t225 100t225 -100t79 -262zM161 350q0 -122 49.5 -195.5t146.5 -73.5q98 0 147 73.5t49 195.5t-49 195.5t-147 73.5t-147 -73.5t-49 -195.5zM316 758l-110 152h111l90 -152h-91z" />
<glyph unicode="&#xd3;" horiz-adv-x="714" d="M661 350q0 -162 -79 -262t-225 -100t-225 100t-79 262t79 262t225 100t225 -100t79 -262zM161 350q0 -122 49.5 -195.5t146.5 -73.5q98 0 147 73.5t49 195.5t-49 195.5t-147 73.5t-147 -73.5t-49 -195.5zM402 910h111l-110 -152h-91z" />
<glyph unicode="&#xd4;" horiz-adv-x="714" d="M661 350q0 -162 -79 -262t-225 -100t-225 100t-79 262t79 262t225 100t225 -100t79 -262zM161 350q0 -122 49.5 -195.5t146.5 -73.5q98 0 147 73.5t49 195.5t-49 195.5t-147 73.5t-147 -73.5t-49 -195.5zM428 758l-71 95l-69 -95h-100l116 152h107l116 -152h-99z" />
<glyph unicode="&#xd5;" horiz-adv-x="714" d="M661 350q0 -162 -79 -262t-225 -100t-225 100t-79 262t79 262t225 100t225 -100t79 -262zM161 350q0 -122 49.5 -195.5t146.5 -73.5q98 0 147 73.5t49 195.5t-49 195.5t-147 73.5t-147 -73.5t-49 -195.5zM418 847q19 0 25.5 13t7.5 39h70q-1 -54 -21 -91.5t-67 -37.5 q-30 0 -71 22.5t-61 22.5q-21 0 -29 -12t-10 -34h-70q3 122 94 122q31 0 73 -22t59 -22z" />
<glyph unicode="&#xd6;" horiz-adv-x="714" d="M661 350q0 -162 -79 -262t-225 -100t-225 100t-79 262t79 262t225 100t225 -100t79 -262zM161 350q0 -122 49.5 -195.5t146.5 -73.5q98 0 147 73.5t49 195.5t-49 195.5t-147 73.5t-147 -73.5t-49 -195.5zM324 830q0 -26 -16.5 -42t-43.5 -16q-28 0 -43.5 16t-15.5 42 q0 25 15.5 41t43.5 16q27 0 43.5 -16t16.5 -41zM507 830q0 -26 -15.5 -42t-42.5 -16q-28 0 -44 16t-16 42q0 25 16 41t44 16q27 0 42.5 -16t15.5 -41z" />
<glyph unicode="&#xd7;" horiz-adv-x="524" d="M407 135l-145 145l-145 -145l-63 61l146 146l-146 146l63 61l145 -145l145 145l63 -61l-146 -146l146 -146z" />
<glyph unicode="&#xd8;" horiz-adv-x="705" d="M575 700h87l-73 -98q72 -96 72 -252q0 -162 -79 -262t-225 -100q-110 0 -183 59l-35 -47h-86l72 97q-72 96 -72 253q0 162 79 262t225 100q110 0 183 -59zM161 350q0 -98 31 -164l288 387q-48 46 -123 46q-98 0 -147 -73.5t-49 -195.5zM357 81q98 0 147 73.5t49 195.5 q0 98 -31 163l-288 -386q49 -46 123 -46z" />
<glyph unicode="&#xd9;" horiz-adv-x="693" d="M81 273v427h104v-420q0 -199 162 -199q161 0 161 199v420h105v-427q0 -285 -266 -285t-266 285zM306 758l-110 152h111l90 -152h-91z" />
<glyph unicode="&#xda;" horiz-adv-x="693" d="M81 273v427h104v-420q0 -199 162 -199q161 0 161 199v420h105v-427q0 -285 -266 -285t-266 285zM392 910h111l-110 -152h-91z" />
<glyph unicode="&#xdb;" horiz-adv-x="693" d="M81 273v427h104v-420q0 -199 162 -199q161 0 161 199v420h105v-427q0 -285 -266 -285t-266 285zM417 758l-71 95l-69 -95h-100l116 152h107l116 -152h-99z" />
<glyph unicode="&#xdc;" horiz-adv-x="693" d="M81 273v427h104v-420q0 -199 162 -199q161 0 161 199v420h105v-427q0 -285 -266 -285t-266 285zM314 830q0 -26 -16.5 -42t-43.5 -16q-28 0 -43.5 16t-15.5 42q0 25 15.5 41t43.5 16q27 0 43.5 -16t16.5 -41zM497 830q0 -26 -15.5 -42t-42.5 -16q-28 0 -44 16t-16 42 q0 25 16 41t44 16q27 0 42.5 -16t15.5 -41z" />
<glyph unicode="&#xdd;" horiz-adv-x="598" d="M246 0v290q-164 223 -236 410h109q61 -155 181 -326q116 167 180 326h108q-76 -191 -237 -411v-289h-105zM346 910h111l-110 -152h-91z" />
<glyph unicode="&#xde;" horiz-adv-x="601" d="M86 0v700h104v-115h85q132 0 206.5 -58.5t74.5 -172.5t-74.5 -172.5t-206.5 -58.5h-85v-123h-104zM448 354q0 76 -45 108.5t-130 32.5h-83v-282h83q85 0 130 32t45 109z" />
<glyph unicode="&#xdf;" horiz-adv-x="603" d="M78 510q0 102 55.5 162t153.5 60q93 0 144.5 -43.5t51.5 -113.5q0 -42 -16.5 -76t-33 -60t-16.5 -47q0 -18 16 -36t38.5 -34.5t44.5 -36.5t38 -51t16 -69q0 -83 -60 -130t-161 -47q-33 0 -95 10l11 84q41 -9 81 -9q59 0 89.5 24.5t30.5 69.5q0 34 -23.5 62.5t-51 46 t-51 47t-23.5 65.5q0 38 31.5 90.5t31.5 84.5q0 84 -92 84q-109 0 -109 -137v-510h-101v510z" />
<glyph unicode="&#xe0;" horiz-adv-x="518" d="M249 64q61 0 97 21v131q-48 12 -94 12q-108 0 -108 -84q0 -80 105 -80zM445 34q-81 -46 -205 -46q-95 0 -146 42t-51 110q0 75 54 115t143 40q57 0 106 -11v42q0 108 -117 108q-73 0 -134 -25l-20 81q70 29 164 29q102 0 154 -51t52 -147v-287zM210 576l-110 152h111 l90 -152h-91z" />
<glyph unicode="&#xe1;" horiz-adv-x="518" d="M249 64q61 0 97 21v131q-48 12 -94 12q-108 0 -108 -84q0 -80 105 -80zM445 34q-81 -46 -205 -46q-95 0 -146 42t-51 110q0 75 54 115t143 40q57 0 106 -11v42q0 108 -117 108q-73 0 -134 -25l-20 81q70 29 164 29q102 0 154 -51t52 -147v-287zM296 728h111l-110 -152 h-91z" />
<glyph unicode="&#xe2;" horiz-adv-x="518" d="M249 64q61 0 97 21v131q-48 12 -94 12q-108 0 -108 -84q0 -80 105 -80zM445 34q-81 -46 -205 -46q-95 0 -146 42t-51 110q0 75 54 115t143 40q57 0 106 -11v42q0 108 -117 108q-73 0 -134 -25l-20 81q70 29 164 29q102 0 154 -51t52 -147v-287zM321 576l-71 95l-69 -95 h-100l116 152h107l116 -152h-99z" />
<glyph unicode="&#xe3;" horiz-adv-x="518" d="M249 64q61 0 97 21v131q-48 12 -94 12q-108 0 -108 -84q0 -80 105 -80zM445 34q-81 -46 -205 -46q-95 0 -146 42t-51 110q0 75 54 115t143 40q57 0 106 -11v42q0 108 -117 108q-73 0 -134 -25l-20 81q70 29 164 29q102 0 154 -51t52 -147v-287zM312 665q19 0 25.5 13 t7.5 39h70q-1 -54 -21 -91.5t-67 -37.5q-30 0 -71 22.5t-61 22.5q-21 0 -29 -12t-10 -34h-70q3 122 94 122q31 0 73 -22t59 -22z" />
<glyph unicode="&#xe4;" horiz-adv-x="518" d="M249 64q61 0 97 21v131q-48 12 -94 12q-108 0 -108 -84q0 -80 105 -80zM445 34q-81 -46 -205 -46q-95 0 -146 42t-51 110q0 75 54 115t143 40q57 0 106 -11v42q0 108 -117 108q-73 0 -134 -25l-20 81q70 29 164 29q102 0 154 -51t52 -147v-287zM218 648q0 -26 -16.5 -42 t-43.5 -16q-28 0 -43.5 16t-15.5 42q0 25 15.5 41t43.5 16q27 0 43.5 -16t16.5 -41zM401 648q0 -26 -15.5 -42t-42.5 -16q-28 0 -44 16t-16 42q0 25 16 41t44 16q27 0 42.5 -16t15.5 -41z" />
<glyph unicode="&#xe5;" horiz-adv-x="518" d="M249 64q61 0 97 21v131q-48 12 -94 12q-108 0 -108 -84q0 -80 105 -80zM445 34q-81 -46 -205 -46q-95 0 -146 42t-51 110q0 75 54 115t143 40q57 0 106 -11v42q0 108 -117 108q-73 0 -134 -25l-20 81q70 29 164 29q102 0 154 -51t52 -147v-287zM136 679q0 50 32.5 82 t82.5 32t83 -32t33 -82t-32.5 -81.5t-83.5 -31.5q-50 0 -82.5 31.5t-32.5 81.5zM301 679q0 23 -13 37.5t-37 14.5q-23 0 -36 -14.5t-13 -37.5q0 -22 13 -37t36 -15q24 0 37 15t13 37z" />
<glyph unicode="&#xe6;" horiz-adv-x="838" d="M581 436q-58 0 -92.5 -38t-41.5 -103h245q1 6 1 15q0 55 -28.5 90.5t-83.5 35.5zM248 64q76 0 131 44q-27 49 -31 111q-55 11 -98 11q-106 0 -106 -82q0 -84 104 -84zM778 23q-75 -35 -172 -35q-109 0 -177 62q-83 -62 -185 -62q-96 0 -148.5 42.5t-52.5 113.5 q0 76 52.5 114.5t141.5 39.5q48 0 109 -11v38q0 109 -117 109q-67 0 -134 -24l-18 81q80 28 162 28q125 0 168 -98q68 98 174 98q97 0 153.5 -62t56.5 -160q0 -29 -4 -67h-338q10 -156 167 -156q72 0 145 31z" />
<glyph unicode="&#xe7;" horiz-adv-x="480" d="M295 519q82 0 147 -30l-20 -81q-62 26 -120 26q-72 0 -111.5 -48.5t-39.5 -132.5q0 -88 41 -134t120 -46q57 0 115 28l18 -82q-60 -31 -136 -31l-14 -37q95 -8 95 -83q0 -48 -37 -71.5t-95 -23.5q-34 0 -66 9l12 58q24 -6 47 -6q58 0 58 36t-66 38l-13 34l17 50 q-96 16 -147.5 83.5t-51.5 175.5q0 122 65.5 195t181.5 73z" />
<glyph unicode="&#xe8;" horiz-adv-x="544" d="M467 105l17 -82q-75 -35 -172 -35q-121 0 -192.5 70.5t-71.5 195.5q0 118 65 191.5t174 73.5q97 0 153.5 -62t56.5 -160q0 -29 -4 -67h-341q15 -156 169 -156q73 0 146 31zM287 436q-58 0 -92.5 -37.5t-41.5 -103.5h245q1 6 1 16q0 54 -28.5 89.5t-83.5 35.5zM242 576 l-110 152h111l90 -152h-91z" />
<glyph unicode="&#xe9;" horiz-adv-x="544" d="M467 105l17 -82q-75 -35 -172 -35q-121 0 -192.5 70.5t-71.5 195.5q0 118 65 191.5t174 73.5q97 0 153.5 -62t56.5 -160q0 -29 -4 -67h-341q15 -156 169 -156q73 0 146 31zM287 436q-58 0 -92.5 -37.5t-41.5 -103.5h245q1 6 1 16q0 54 -28.5 89.5t-83.5 35.5zM329 728 h111l-110 -152h-91z" />
<glyph unicode="&#xea;" horiz-adv-x="544" d="M467 105l17 -82q-75 -35 -172 -35q-121 0 -192.5 70.5t-71.5 195.5q0 118 65 191.5t174 73.5q97 0 153.5 -62t56.5 -160q0 -29 -4 -67h-341q15 -156 169 -156q73 0 146 31zM287 436q-58 0 -92.5 -37.5t-41.5 -103.5h245q1 6 1 16q0 54 -28.5 89.5t-83.5 35.5zM354 576 l-71 95l-69 -95h-100l116 152h107l116 -152h-99z" />
<glyph unicode="&#xeb;" horiz-adv-x="544" d="M467 105l17 -82q-75 -35 -172 -35q-121 0 -192.5 70.5t-71.5 195.5q0 118 65 191.5t174 73.5q97 0 153.5 -62t56.5 -160q0 -29 -4 -67h-341q15 -156 169 -156q73 0 146 31zM287 436q-58 0 -92.5 -37.5t-41.5 -103.5h245q1 6 1 16q0 54 -28.5 89.5t-83.5 35.5zM251 648 q0 -26 -16.5 -42t-43.5 -16q-28 0 -43.5 16t-15.5 42q0 25 15.5 41t43.5 16q27 0 43.5 -16t16.5 -41zM434 648q0 -26 -15.5 -42t-42.5 -16q-28 0 -44 16t-16 42q0 25 16 41t44 16q27 0 42.5 -16t15.5 -41z" />
<glyph unicode="&#xec;" horiz-adv-x="262" d="M182 507v-507h-101v507h101zM92 576l-110 152h111l90 -152h-91z" />
<glyph unicode="&#xed;" horiz-adv-x="262" d="M182 507v-507h-101v507h101zM178 728h111l-110 -152h-91z" />
<glyph unicode="&#xee;" horiz-adv-x="262" d="M182 507v-507h-101v507h101zM204 576l-71 95l-69 -95h-100l116 152h107l116 -152h-99z" />
<glyph unicode="&#xef;" horiz-adv-x="262" d="M182 507v-507h-101v507h101zM100 648q0 -26 -16.5 -42t-43.5 -16q-28 0 -43.5 16t-15.5 42q0 25 15.5 41t43.5 16q27 0 43.5 -16t16.5 -41zM283 648q0 -26 -15.5 -42t-42.5 -16q-28 0 -44 16t-16 42q0 25 16 41t44 16q27 0 42.5 -16t15.5 -41z" />
<glyph unicode="&#xf0;" horiz-adv-x="544" d="M118 644l24 78q85 -13 155 -55l75 68l37 -41l-66 -59q74 -60 114 -149.5t40 -191.5q0 -141 -60.5 -223.5t-180.5 -82.5q-97 0 -157.5 64.5t-60.5 168.5q0 95 57 158t155 63q76 0 136 -40q-30 106 -111 172l-86 -78l-37 41l76 69q-49 28 -110 38zM256 73q77 0 110.5 55.5 t33.5 164.5q0 21 -1 31q-65 38 -130 38t-98.5 -40.5t-33.5 -100.5q0 -63 31.5 -105.5t87.5 -42.5z" />
<glyph unicode="&#xf1;" horiz-adv-x="583" d="M179 0h-101v472q100 47 218 47q104 0 159 -50.5t55 -142.5v-326h-101v319q0 115 -113 115q-65 0 -117 -26v-408zM355 665q19 0 25.5 13t7.5 39h70q-1 -54 -21 -91.5t-67 -37.5q-30 0 -71 22.5t-61 22.5q-21 0 -29 -12t-10 -34h-70q3 122 94 122q31 0 73 -22t59 -22z" />
<glyph unicode="&#xf2;" horiz-adv-x="571" d="M523 254q0 -121 -63.5 -193.5t-174.5 -72.5q-110 0 -173.5 72.5t-63.5 193.5q0 120 63.5 192.5t173.5 72.5q111 0 174.5 -72.5t63.5 -192.5zM151 254q0 -84 34.5 -132.5t99.5 -48.5q67 0 100.5 48t33.5 133q0 84 -34 132t-100 48q-65 0 -99.5 -48.5t-34.5 -131.5z M245 576l-110 152h111l90 -152h-91z" />
<glyph unicode="&#xf3;" horiz-adv-x="571" d="M523 254q0 -121 -63.5 -193.5t-174.5 -72.5q-110 0 -173.5 72.5t-63.5 193.5q0 120 63.5 192.5t173.5 72.5q111 0 174.5 -72.5t63.5 -192.5zM151 254q0 -84 34.5 -132.5t99.5 -48.5q67 0 100.5 48t33.5 133q0 84 -34 132t-100 48q-65 0 -99.5 -48.5t-34.5 -131.5z M331 728h111l-110 -152h-91z" />
<glyph unicode="&#xf4;" horiz-adv-x="571" d="M523 254q0 -121 -63.5 -193.5t-174.5 -72.5q-110 0 -173.5 72.5t-63.5 193.5q0 120 63.5 192.5t173.5 72.5q111 0 174.5 -72.5t63.5 -192.5zM151 254q0 -84 34.5 -132.5t99.5 -48.5q67 0 100.5 48t33.5 133q0 84 -34 132t-100 48q-65 0 -99.5 -48.5t-34.5 -131.5z M356 576l-71 95l-69 -95h-100l116 152h107l116 -152h-99z" />
<glyph unicode="&#xf5;" horiz-adv-x="571" d="M523 254q0 -121 -63.5 -193.5t-174.5 -72.5q-110 0 -173.5 72.5t-63.5 193.5q0 120 63.5 192.5t173.5 72.5q111 0 174.5 -72.5t63.5 -192.5zM151 254q0 -84 34.5 -132.5t99.5 -48.5q67 0 100.5 48t33.5 133q0 84 -34 132t-100 48q-65 0 -99.5 -48.5t-34.5 -131.5z M347 665q19 0 25.5 13t7.5 39h70q-1 -54 -21 -91.5t-67 -37.5q-30 0 -71 22.5t-61 22.5q-21 0 -29 -12t-10 -34h-70q3 122 94 122q31 0 73 -22t59 -22z" />
<glyph unicode="&#xf6;" horiz-adv-x="571" d="M523 254q0 -121 -63.5 -193.5t-174.5 -72.5q-110 0 -173.5 72.5t-63.5 193.5q0 120 63.5 192.5t173.5 72.5q111 0 174.5 -72.5t63.5 -192.5zM151 254q0 -84 34.5 -132.5t99.5 -48.5q67 0 100.5 48t33.5 133q0 84 -34 132t-100 48q-65 0 -99.5 -48.5t-34.5 -131.5z M253 648q0 -26 -16.5 -42t-43.5 -16q-28 0 -43.5 16t-15.5 42q0 25 15.5 41t43.5 16q27 0 43.5 -16t16.5 -41zM436 648q0 -26 -15.5 -42t-42.5 -16q-28 0 -44 16t-16 42q0 25 16 41t44 16q27 0 42.5 -16t15.5 -41z" />
<glyph unicode="&#xf7;" horiz-adv-x="524" d="M205 161q0 25 15.5 40t42.5 15q26 0 41.5 -15.5t15.5 -39.5q0 -25 -15.5 -41t-41.5 -16q-27 0 -42.5 16t-15.5 41zM205 521q0 25 15.5 40t42.5 15q26 0 41.5 -15.5t15.5 -39.5q0 -25 -15.5 -41t-41.5 -16q-27 0 -42.5 16t-15.5 41zM37 298v88h450v-88h-450z" />
<glyph unicode="&#xf8;" horiz-adv-x="573" d="M452 507h71l-56 -70q56 -70 56 -183q0 -121 -63.5 -193.5t-174.5 -72.5q-82 0 -140 42l-24 -30h-71l55 69q-57 71 -57 185q0 120 63.5 192.5t173.5 72.5q85 0 142 -43zM151 254q0 -60 18 -104l201 253q-33 31 -85 31q-65 0 -99.5 -48.5t-34.5 -131.5zM285 73 q67 0 100.5 48t33.5 133q0 61 -17 101l-200 -252q33 -30 83 -30z" />
<glyph unicode="&#xf9;" horiz-adv-x="577" d="M499 36q-98 -48 -221 -48q-205 0 -205 196v323h101v-323q0 -111 106 -111q66 0 118 27v407h101v-471zM249 576l-110 152h111l90 -152h-91z" />
<glyph unicode="&#xfa;" horiz-adv-x="577" d="M499 36q-98 -48 -221 -48q-205 0 -205 196v323h101v-323q0 -111 106 -111q66 0 118 27v407h101v-471zM335 728h111l-110 -152h-91z" />
<glyph unicode="&#xfb;" horiz-adv-x="577" d="M499 36q-98 -48 -221 -48q-205 0 -205 196v323h101v-323q0 -111 106 -111q66 0 118 27v407h101v-471zM360 576l-71 95l-69 -95h-100l116 152h107l116 -152h-99z" />
<glyph unicode="&#xfc;" horiz-adv-x="577" d="M499 36q-98 -48 -221 -48q-205 0 -205 196v323h101v-323q0 -111 106 -111q66 0 118 27v407h101v-471zM257 648q0 -26 -16.5 -42t-43.5 -16q-28 0 -43.5 16t-15.5 42q0 25 15.5 41t43.5 16q27 0 43.5 -16t16.5 -41zM440 648q0 -26 -15.5 -42t-42.5 -16q-28 0 -44 16 t-16 42q0 25 16 41t44 16q27 0 42.5 -16t15.5 -41z" />
<glyph unicode="&#xfd;" horiz-adv-x="512" d="M326 28q-103 -181 -263 -213l-17 87q113 23 171 119q-82 116 -126.5 230.5t-59.5 255.5h102q11 -120 45.5 -216t91.5 -192q50 101 77.5 193.5t38.5 214.5h101q-26 -238 -161 -479zM310 728h111l-110 -152h-91z" />
<glyph unicode="&#xfe;" horiz-adv-x="575" d="M182 -186h-101v904l101 5v-221q44 17 101 17q115 0 179 -69.5t64 -185.5q0 -126 -65.5 -201t-188.5 -75q-43 0 -90 17v-191zM182 95q46 -22 86 -22q77 0 115.5 49t38.5 139q0 79 -36 126t-111 47q-49 0 -93 -21v-318z" />
<glyph unicode="&#xff;" horiz-adv-x="512" d="M326 28q-103 -181 -263 -213l-17 87q113 23 171 119q-82 116 -126.5 230.5t-59.5 255.5h102q11 -120 45.5 -216t91.5 -192q50 101 77.5 193.5t38.5 214.5h101q-26 -238 -161 -479zM232 648q0 -26 -16.5 -42t-43.5 -16q-28 0 -43.5 16t-15.5 42q0 25 15.5 41t43.5 16 q27 0 43.5 -16t16.5 -41zM415 648q0 -26 -15.5 -42t-42.5 -16q-28 0 -44 16t-16 42q0 25 16 41t44 16q27 0 42.5 -16t15.5 -41z" />
<glyph unicode="&#x100;" horiz-adv-x="654" d="M327 591q-51 -113 -117 -319h234q-66 206 -117 319zM526 0q-27 96 -54 182h-290q-27 -86 -54 -182h-108q129 438 253 700h108q132 -282 253 -700h-108zM181 786v80h291v-80h-291z" />
<glyph unicode="&#x101;" horiz-adv-x="518" d="M249 64q61 0 97 21v131q-48 12 -94 12q-108 0 -108 -84q0 -80 105 -80zM445 34q-81 -46 -205 -46q-95 0 -146 42t-51 110q0 75 54 115t143 40q57 0 106 -11v42q0 108 -117 108q-73 0 -134 -25l-20 81q70 29 164 29q102 0 154 -51t52 -147v-287zM106 604v80h291v-80h-291z " />
<glyph unicode="&#x102;" horiz-adv-x="654" d="M327 591q-51 -113 -117 -319h234q-66 206 -117 319zM526 0q-27 96 -54 182h-290q-27 -86 -54 -182h-108q129 438 253 700h108q132 -282 253 -700h-108zM488 898q-9 -65 -49 -101.5t-113 -36.5q-72 0 -112.5 36.5t-48.5 101.5h86q9 -65 75 -65q67 0 76 65h86z" />
<glyph unicode="&#x103;" horiz-adv-x="518" d="M249 64q61 0 97 21v131q-48 12 -94 12q-108 0 -108 -84q0 -80 105 -80zM445 34q-81 -46 -205 -46q-95 0 -146 42t-51 110q0 75 54 115t143 40q57 0 106 -11v42q0 108 -117 108q-73 0 -134 -25l-20 81q70 29 164 29q102 0 154 -51t52 -147v-287zM413 716 q-9 -65 -49 -101.5t-113 -36.5q-72 0 -112.5 36.5t-48.5 101.5h86q9 -65 75 -65q67 0 76 65h86z" />
<glyph unicode="&#x104;" horiz-adv-x="654" d="M327 591q-51 -113 -117 -319h234q-66 206 -117 319zM635 -196q-38 -16 -83 -16q-50 0 -80.5 24t-30.5 67q0 63 84 123q-24 90 -53 180h-290q-27 -86 -54 -182h-108q129 438 253 700h108q132 -282 253 -700h-8q-100 -57 -100 -104q0 -40 49 -40q25 0 47 10z" />
<glyph unicode="&#x105;" horiz-adv-x="518" d="M454 -196q-38 -16 -82 -16q-50 0 -81 24t-31 67q0 55 58 117q-37 -8 -78 -8q-95 0 -146 42t-51 110q0 75 54 115t143 40q57 0 106 -11v42q0 108 -117 108q-73 0 -134 -25l-20 81q70 29 164 29q102 0 154 -51t52 -147v-288q-99 -77 -99 -137q0 -40 49 -40q25 0 47 10z M144 144q0 -80 105 -80q61 0 97 21v131q-48 12 -94 12q-108 0 -108 -84z" />
<glyph unicode="&#x106;" horiz-adv-x="591" d="M375 -12q-155 0 -238.5 95.5t-83.5 259.5q0 167 82.5 268t239.5 101q85 0 170 -35l-24 -90q-88 32 -145 32q-110 0 -162.5 -74.5t-52.5 -200.5q0 -125 54 -194t164 -69q75 0 151 38l21 -91q-78 -40 -176 -40zM397 910h111l-110 -152h-91z" />
<glyph unicode="&#x107;" horiz-adv-x="480" d="M295 519q82 0 147 -30l-20 -81q-62 26 -120 26q-72 0 -111.5 -48.5t-39.5 -132.5q0 -88 41 -134t120 -46q57 0 115 28l18 -82q-60 -31 -140 -31q-122 0 -189.5 69.5t-67.5 193.5q0 122 65.5 195t181.5 73zM330 728h111l-110 -152h-91z" />
<glyph unicode="&#x108;" horiz-adv-x="591" d="M375 -12q-155 0 -238.5 95.5t-83.5 259.5q0 167 82.5 268t239.5 101q85 0 170 -35l-24 -90q-88 32 -145 32q-110 0 -162.5 -74.5t-52.5 -200.5q0 -125 54 -194t164 -69q75 0 151 38l21 -91q-78 -40 -176 -40zM423 758l-71 95l-69 -95h-100l116 152h107l116 -152h-99z" />
<glyph unicode="&#x109;" horiz-adv-x="480" d="M295 519q82 0 147 -30l-20 -81q-62 26 -120 26q-72 0 -111.5 -48.5t-39.5 -132.5q0 -88 41 -134t120 -46q57 0 115 28l18 -82q-60 -31 -140 -31q-122 0 -189.5 69.5t-67.5 193.5q0 122 65.5 195t181.5 73zM355 576l-71 95l-69 -95h-100l116 152h107l116 -152h-99z" />
<glyph unicode="&#x10a;" horiz-adv-x="591" d="M375 -12q-155 0 -238.5 95.5t-83.5 259.5q0 167 82.5 268t239.5 101q85 0 170 -35l-24 -90q-88 32 -145 32q-110 0 -162.5 -74.5t-52.5 -200.5q0 -125 54 -194t164 -69q75 0 151 38l21 -91q-78 -40 -176 -40zM289 835q0 27 16.5 44t45.5 17t45.5 -17t16.5 -44 q0 -28 -16.5 -44.5t-45.5 -16.5t-45.5 16.5t-16.5 44.5z" />
<glyph unicode="&#x10b;" horiz-adv-x="480" d="M295 519q82 0 147 -30l-20 -81q-62 26 -120 26q-72 0 -111.5 -48.5t-39.5 -132.5q0 -88 41 -134t120 -46q57 0 115 28l18 -82q-60 -31 -140 -31q-122 0 -189.5 69.5t-67.5 193.5q0 122 65.5 195t181.5 73zM222 653q0 27 16.5 44t45.5 17t45.5 -17t16.5 -44 q0 -28 -16.5 -44.5t-45.5 -16.5t-45.5 16.5t-16.5 44.5z" />
<glyph unicode="&#x10c;" horiz-adv-x="591" d="M375 -12q-155 0 -238.5 95.5t-83.5 259.5q0 167 82.5 268t239.5 101q85 0 170 -35l-24 -90q-88 32 -145 32q-110 0 -162.5 -74.5t-52.5 -200.5q0 -125 54 -194t164 -69q75 0 151 38l21 -91q-78 -40 -176 -40zM283 910l69 -94l70 94h100l-116 -152h-107l-116 152h100z" />
<glyph unicode="&#x10d;" horiz-adv-x="480" d="M295 519q82 0 147 -30l-20 -81q-62 26 -120 26q-72 0 -111.5 -48.5t-39.5 -132.5q0 -88 41 -134t120 -46q57 0 115 28l18 -82q-60 -31 -140 -31q-122 0 -189.5 69.5t-67.5 193.5q0 122 65.5 195t181.5 73zM216 728l69 -94l70 94h100l-116 -152h-107l-116 152h100z" />
<glyph unicode="&#x10e;" horiz-adv-x="689" d="M535 351q0 122 -59 190.5t-179 68.5h-107v-520h107q119 0 178.5 69t59.5 192zM86 0v700h214q160 0 252 -94t92 -255q0 -162 -92.5 -256.5t-251.5 -94.5h-214zM247 910l69 -94l70 94h100l-116 -152h-107l-116 152h100z" />
<glyph unicode="&#x10f;" horiz-adv-x="574" d="M494 30q-76 -42 -186 -42q-120 0 -190 68.5t-70 188.5q0 125 71 199.5t195 74.5q40 0 79 -12v211l101 5v-693zM151 249q0 -84 42 -130t114 -46q53 0 86 19v326q-37 16 -74 16q-82 0 -125 -48t-43 -137zM584 719h91q-9 -119 -69 -204h-64q37 93 42 204z" />
<glyph unicode="&#x110;" horiz-adv-x="694" d="M540 351q0 122 -59 190.5t-179 68.5h-107v-206h133v-90h-133v-224h107q119 0 178.5 69t59.5 192zM90 0v314h-75v90h75v296h215q160 0 252 -94t92 -255q0 -162 -92.5 -256.5t-251.5 -94.5h-215z" />
<glyph unicode="&#x111;" horiz-adv-x="574" d="M226 649h167v69l101 5v-74h65v-68h-65v-551q-76 -42 -186 -42q-120 0 -190 68.5t-70 188.5q0 125 71 199.5t195 74.5q40 0 79 -12v74h-167v68zM151 249q0 -84 42 -130t114 -46q53 0 86 19v326q-37 16 -74 16q-82 0 -125 -48t-43 -137z" />
<glyph unicode="&#x112;" horiz-adv-x="557" d="M506 90v-90h-420v700h420v-90h-316v-207h271v-90h-271v-223h316zM154 786v80h291v-80h-291z" />
<glyph unicode="&#x113;" horiz-adv-x="544" d="M467 105l17 -82q-75 -35 -172 -35q-121 0 -192.5 70.5t-71.5 195.5q0 118 65 191.5t174 73.5q97 0 153.5 -62t56.5 -160q0 -29 -4 -67h-341q15 -156 169 -156q73 0 146 31zM287 436q-58 0 -92.5 -37.5t-41.5 -103.5h245q1 6 1 16q0 54 -28.5 89.5t-83.5 35.5zM138 604v80 h291v-80h-291z" />
<glyph unicode="&#x114;" horiz-adv-x="557" d="M506 90v-90h-420v700h420v-90h-316v-207h271v-90h-271v-223h316zM461 898q-9 -65 -49 -101.5t-113 -36.5q-72 0 -112.5 36.5t-48.5 101.5h86q9 -65 75 -65q67 0 76 65h86z" />
<glyph unicode="&#x115;" horiz-adv-x="544" d="M467 105l17 -82q-75 -35 -172 -35q-121 0 -192.5 70.5t-71.5 195.5q0 118 65 191.5t174 73.5q97 0 153.5 -62t56.5 -160q0 -29 -4 -67h-341q15 -156 169 -156q73 0 146 31zM287 436q-58 0 -92.5 -37.5t-41.5 -103.5h245q1 6 1 16q0 54 -28.5 89.5t-83.5 35.5zM445 716 q-9 -65 -49 -101.5t-113 -36.5q-72 0 -112.5 36.5t-48.5 101.5h86q9 -65 75 -65q67 0 76 65h86z" />
<glyph unicode="&#x116;" horiz-adv-x="557" d="M506 90v-90h-420v700h420v-90h-316v-207h271v-90h-271v-223h316zM237 835q0 27 16.5 44t45.5 17t45.5 -17t16.5 -44q0 -28 -16.5 -44.5t-45.5 -16.5t-45.5 16.5t-16.5 44.5z" />
<glyph unicode="&#x117;" horiz-adv-x="544" d="M467 105l17 -82q-75 -35 -172 -35q-121 0 -192.5 70.5t-71.5 195.5q0 118 65 191.5t174 73.5q97 0 153.5 -62t56.5 -160q0 -29 -4 -67h-341q15 -156 169 -156q73 0 146 31zM287 436q-58 0 -92.5 -37.5t-41.5 -103.5h245q1 6 1 16q0 54 -28.5 89.5t-83.5 35.5zM221 653 q0 27 16.5 44t45.5 17t45.5 -17t16.5 -44q0 -28 -16.5 -44.5t-45.5 -16.5t-45.5 16.5t-16.5 44.5z" />
<glyph unicode="&#x118;" horiz-adv-x="557" d="M516 -196q-38 -16 -83 -16q-50 0 -80.5 24t-30.5 67q0 61 81 121h-317v700h420v-90h-316v-207h271v-90h-271v-223h316v-90q-99 -58 -99 -104q0 -40 49 -40q25 0 47 10z" />
<glyph unicode="&#x119;" horiz-adv-x="544" d="M287 436q-58 0 -92.5 -37.5t-41.5 -103.5h245q1 6 1 16q0 54 -28.5 89.5t-83.5 35.5zM402 -196q-37 -16 -82 -16q-50 0 -80.5 24t-30.5 67q0 57 68 111q-106 10 -167.5 79.5t-61.5 184.5q0 118 65 191.5t174 73.5q97 0 153.5 -62t56.5 -160q0 -29 -4 -67h-341 q15 -156 169 -156q73 0 146 31l17 -82q-44 -21 -103 -30q-87 -53 -87 -97q0 -40 49 -40q25 0 47 10z" />
<glyph unicode="&#x11a;" horiz-adv-x="557" d="M506 90v-90h-420v700h420v-90h-316v-207h271v-90h-271v-223h316zM370 758l-71 95l-69 -95h-100l116 152h107l116 -152h-99z" />
<glyph unicode="&#x11b;" horiz-adv-x="544" d="M467 105l17 -82q-75 -35 -172 -35q-121 0 -192.5 70.5t-71.5 195.5q0 118 65 191.5t174 73.5q97 0 153.5 -62t56.5 -160q0 -29 -4 -67h-341q15 -156 169 -156q73 0 146 31zM287 436q-58 0 -92.5 -37.5t-41.5 -103.5h245q1 6 1 16q0 54 -28.5 89.5t-83.5 35.5zM214 728 l69 -94l70 94h100l-116 -152h-107l-116 152h100z" />
<glyph unicode="&#x11c;" horiz-adv-x="669" d="M606 37q-103 -49 -208 -49q-164 0 -254.5 97t-90.5 260t90 265t250 102q108 0 192 -39l-24 -88q-80 34 -167 34q-114 0 -173.5 -75t-59.5 -199q0 -123 62 -193.5t179 -70.5q55 0 108 15v196h-136v87h232v-342zM437 758l-71 95l-69 -95h-100l116 152h107l116 -152h-99z " />
<glyph unicode="&#x11d;" horiz-adv-x="570" d="M492 14q0 -98 -61.5 -151.5t-169.5 -53.5q-93 0 -167 29l21 82q65 -25 140 -25q66 0 101 29t35 81v42q-50 -26 -110 -26q-108 0 -170.5 63t-62.5 176q0 119 70 189t187 70q103 0 187 -40v-465zM151 268q0 -75 38 -118t106 -43q55 0 96 26v285q-44 16 -86 16 q-71 0 -112.5 -44.5t-41.5 -121.5zM367 576l-71 95l-69 -95h-100l116 152h107l116 -152h-99z" />
<glyph unicode="&#x11e;" horiz-adv-x="669" d="M606 37q-103 -49 -208 -49q-164 0 -254.5 97t-90.5 260t90 265t250 102q108 0 192 -39l-24 -88q-80 34 -167 34q-114 0 -173.5 -75t-59.5 -199q0 -123 62 -193.5t179 -70.5q55 0 108 15v196h-136v87h232v-342zM528 898q-9 -65 -49 -101.5t-113 -36.5q-72 0 -112.5 36.5 t-48.5 101.5h86q9 -65 75 -65q67 0 76 65h86z" />
<glyph unicode="&#x11f;" horiz-adv-x="570" d="M492 14q0 -98 -61.5 -151.5t-169.5 -53.5q-93 0 -167 29l21 82q65 -25 140 -25q66 0 101 29t35 81v42q-50 -26 -110 -26q-108 0 -170.5 63t-62.5 176q0 119 70 189t187 70q103 0 187 -40v-465zM151 268q0 -75 38 -118t106 -43q55 0 96 26v285q-44 16 -86 16 q-71 0 -112.5 -44.5t-41.5 -121.5zM458 716q-9 -65 -49 -101.5t-113 -36.5q-72 0 -112.5 36.5t-48.5 101.5h86q9 -65 75 -65q67 0 76 65h86z" />
<glyph unicode="&#x120;" horiz-adv-x="669" d="M606 37q-103 -49 -208 -49q-164 0 -254.5 97t-90.5 260t90 265t250 102q108 0 192 -39l-24 -88q-80 34 -167 34q-114 0 -173.5 -75t-59.5 -199q0 -123 62 -193.5t179 -70.5q55 0 108 15v196h-136v87h232v-342zM303 835q0 27 16.5 44t45.5 17t45.5 -17t16.5 -44 q0 -28 -16.5 -44.5t-45.5 -16.5t-45.5 16.5t-16.5 44.5z" />
<glyph unicode="&#x121;" horiz-adv-x="570" d="M492 14q0 -98 -61.5 -151.5t-169.5 -53.5q-93 0 -167 29l21 82q65 -25 140 -25q66 0 101 29t35 81v42q-50 -26 -110 -26q-108 0 -170.5 63t-62.5 176q0 119 70 189t187 70q103 0 187 -40v-465zM151 268q0 -75 38 -118t106 -43q55 0 96 26v285q-44 16 -86 16 q-71 0 -112.5 -44.5t-41.5 -121.5zM234 653q0 27 16.5 44t45.5 17t45.5 -17t16.5 -44q0 -28 -16.5 -44.5t-45.5 -16.5t-45.5 16.5t-16.5 44.5z" />
<glyph unicode="&#x122;" horiz-adv-x="669" d="M606 37q-103 -49 -208 -49q-164 0 -254.5 97t-90.5 260t90 265t250 102q108 0 192 -39l-24 -88q-80 34 -167 34q-114 0 -173.5 -75t-59.5 -199q0 -123 62 -193.5t179 -70.5q55 0 108 15v196h-136v87h232v-342zM352 -57h92q-8 -95 -64 -169h-64q34 75 36 169z" />
<glyph unicode="&#x123;" horiz-adv-x="570" d="M492 14q0 -98 -61.5 -151.5t-169.5 -53.5q-93 0 -167 29l21 82q65 -25 140 -25q66 0 101 29t35 81v42q-50 -26 -110 -26q-108 0 -170.5 63t-62.5 176q0 119 70 189t187 70q103 0 187 -40v-465zM151 268q0 -75 38 -118t106 -43q55 0 96 26v285q-44 16 -86 16 q-71 0 -112.5 -44.5t-41.5 -121.5zM344 580h-90q8 99 67 170h65q-36 -70 -42 -170z" />
<glyph unicode="&#x124;" horiz-adv-x="712" d="M627 0h-105v313h-332v-313h-104v700h104v-297h332v297h105v-700zM425 758l-71 95l-69 -95h-100l116 152h107l116 -152h-99z" />
<glyph unicode="&#x125;" horiz-adv-x="586" d="M182 0h-101v719l101 5v-234q56 29 127 29q95 0 149.5 -51t54.5 -142v-326h-102v318q0 115 -116 115q-61 0 -113 -29v-404zM323 786l-71 95l-69 -95h-100l116 152h107l116 -152h-99z" />
<glyph unicode="&#x126;" horiz-adv-x="722" d="M527 0v313h-332v-313h-105v504h-75v85h75v111h105v-111h332v111h105v-111h75v-85h-75v-504h-105zM527 403v101h-332v-101h332z" />
<glyph unicode="&#x127;" horiz-adv-x="586" d="M182 490q56 29 127 29q94 0 149 -53t55 -145v-321h-102v313q0 57 -29.5 88.5t-86.5 31.5q-61 0 -113 -29v-404h-101v581h-71v68h71v70l101 5v-75h162v-68h-162v-91z" />
<glyph unicode="&#x128;" horiz-adv-x="276" d="M86 0v700h104v-700h-104zM199 847q19 0 25.5 13t7.5 39h70q-1 -54 -21 -91.5t-67 -37.5q-30 0 -71 22.5t-61 22.5q-21 0 -29 -12t-10 -34h-70q3 122 94 122q31 0 73 -22t59 -22z" />
<glyph unicode="&#x129;" horiz-adv-x="262" d="M182 507v-507h-101v507h101zM194 665q19 0 25.5 13t7.5 39h70q-1 -54 -21 -91.5t-67 -37.5q-30 0 -71 22.5t-61 22.5q-21 0 -29 -12t-10 -34h-70q3 122 94 122q31 0 73 -22t59 -22z" />
<glyph unicode="&#x12a;" horiz-adv-x="276" d="M86 0v700h104v-700h-104zM-7 786v80h291v-80h-291z" />
<glyph unicode="&#x12b;" horiz-adv-x="262" d="M182 507v-507h-101v507h101zM-12 604v80h291v-80h-291z" />
<glyph unicode="&#x12c;" horiz-adv-x="276" d="M86 0v700h104v-700h-104zM300 898q-9 -65 -49 -101.5t-113 -36.5q-72 0 -112.5 36.5t-48.5 101.5h86q9 -65 75 -65q67 0 76 65h86z" />
<glyph unicode="&#x12d;" horiz-adv-x="262" d="M182 507v-507h-101v507h101zM295 716q-9 -65 -49 -101.5t-113 -36.5q-72 0 -112.5 36.5t-48.5 101.5h86q9 -65 75 -65q67 0 76 65h86z" />
<glyph unicode="&#x12e;" horiz-adv-x="276" d="M194 -196q-38 -16 -82 -16q-51 0 -81.5 24t-30.5 67q0 65 86 125v696h104v-700h-5q-99 -57 -99 -104q0 -40 48 -40q25 0 47 10z" />
<glyph unicode="&#x12f;" horiz-adv-x="262" d="M131 595q-30 0 -46.5 17t-16.5 45q0 27 17 43.5t46 16.5t45.5 -16.5t16.5 -43.5q0 -28 -16.5 -45t-45.5 -17zM189 -196q-38 -16 -82 -16q-51 0 -81.5 24t-30.5 67q0 65 86 125v503h101v-507h-2q-99 -57 -99 -104q0 -40 48 -40q25 0 47 10z" />
<glyph unicode="&#x130;" horiz-adv-x="276" d="M86 0v700h104v-700h-104zM75 835q0 27 16.5 44t45.5 17t45.5 -17t16.5 -44q0 -28 -16.5 -44.5t-45.5 -16.5t-45.5 16.5t-16.5 44.5z" />
<glyph unicode="&#x131;" horiz-adv-x="262" d="M182 507v-507h-101v507h101z" />
<glyph unicode="&#x132;" horiz-adv-x="551" d="M86 0v700h104v-700h-104zM290 -112q72 119 72 268v544h104v-549q0 -182 -85 -311z" />
<glyph unicode="&#x133;" horiz-adv-x="524" d="M182 507v-507h-101v507h101zM131 595q-30 0 -46.5 17t-16.5 45q0 27 17 43.5t46 16.5t45.5 -16.5t16.5 -43.5q0 -28 -16.5 -45t-45.5 -17zM444 7q0 -74 -33 -119.5t-106 -71.5l-31 84q37 18 53 42t16 69v496h101v-500zM455 657q0 -28 -16.5 -45t-45.5 -17q-30 0 -46.5 17 t-16.5 45q0 27 17 43.5t46 16.5t45.5 -16.5t16.5 -43.5z" />
<glyph unicode="&#x134;" horiz-adv-x="276" d="M14 -112q72 119 72 268v544h104v-549q0 -182 -85 -311zM209 758l-71 95l-69 -95h-100l116 152h107l116 -152h-99z" />
<glyph unicode="&#x135;" horiz-adv-x="262" d="M12 -100q37 18 53 42t16 69v496h101v-500q0 -74 -33 -119.5t-106 -71.5zM202 576l-71 95l-69 -95h-100l116 152h107l116 -152h-99z" />
<glyph unicode="&#x136;" horiz-adv-x="637" d="M577 700q-43 -203 -206 -339l249 -361h-122l-205 304q-39 -26 -103 -61v-243h-104v700h104v-352q122 69 190 153.5t92 198.5h105zM290 -57h92q-8 -95 -64 -169h-64q34 75 36 169z" />
<glyph unicode="&#x137;" horiz-adv-x="537" d="M479 507q-11 -130 -137 -239l175 -268h-112l-135 211q-43 -30 -88 -57v-154h-101v718l101 5v-470q90 54 136.5 113t60.5 141h100zM242 -57h92q-8 -95 -64 -169h-64q34 75 36 169z" />
<glyph unicode="&#x139;" horiz-adv-x="537" d="M86 0v700h104v-610h310v-90h-414zM181 910h111l-110 -152h-91z" />
<glyph unicode="&#x13a;" horiz-adv-x="298" d="M177 724v-562q0 -46 14 -67.5t47 -21.5q17 0 29 3l8 -81q-28 -7 -57 -7q-142 0 -142 173v557zM173 935h111l-110 -152h-91z" />
<glyph unicode="&#x13b;" horiz-adv-x="537" d="M86 0v700h104v-610h310v-90h-414zM238 -57h92q-8 -95 -64 -169h-64q34 75 36 169z" />
<glyph unicode="&#x13c;" horiz-adv-x="298" d="M177 724v-562q0 -46 14 -67.5t47 -21.5q17 0 29 3l8 -81q-28 -7 -57 -7q-142 0 -142 173v557zM124 -57h92q-8 -95 -64 -169h-64q34 75 36 169z" />
<glyph unicode="&#x13d;" horiz-adv-x="537" d="M86 0v700h104v-610h310v-90h-414zM323 700h91q-9 -119 -69 -204h-64q37 93 42 204z" />
<glyph unicode="&#x13e;" horiz-adv-x="298" d="M177 724v-562q0 -46 14 -67.5t47 -21.5q17 0 29 3l8 -81q-28 -7 -57 -7q-142 0 -142 173v557zM270 720h91q-9 -119 -69 -204h-64q37 93 42 204z" />
<glyph unicode="&#x13f;" horiz-adv-x="537" d="M86 0v700h104v-610h310v-90h-414zM346 376q0 27 16.5 43t45.5 16q28 0 44 -16t16 -43t-16 -43.5t-44 -16.5q-30 0 -46 16t-16 44z" />
<glyph unicode="&#x140;" horiz-adv-x="355" d="M177 724v-562q0 -46 14 -67.5t47 -21.5q17 0 29 3l8 -81q-28 -7 -57 -7q-142 0 -142 173v557zM243 372q0 27 16.5 43t45.5 16q28 0 44 -16t16 -43t-16 -43.5t-44 -16.5q-29 0 -45.5 16t-16.5 44z" />
<glyph unicode="&#x141;" horiz-adv-x="545" d="M86 0v286l-86 -35v88l86 35v326h104v-283l135 55v-88l-135 -55v-239h310v-90h-414z" />
<glyph unicode="&#x142;" horiz-adv-x="298" d="M8 296v81l68 28v313l101 6v-277l95 40v-81l-95 -40v-204q0 -46 14 -67.5t47 -21.5q17 0 29 3l8 -81q-28 -7 -57 -7q-142 0 -142 173v163z" />
<glyph unicode="&#x143;" horiz-adv-x="717" d="M183 0h-97v700h101q139 -258 350 -553q-3 39 -3 91v462h97v-700h-102q-122 164 -200 279t-150 246q4 -47 4 -115v-410zM408 910h111l-110 -152h-91z" />
<glyph unicode="&#x144;" horiz-adv-x="583" d="M179 0h-101v472q100 47 218 47q104 0 159 -50.5t55 -142.5v-326h-101v319q0 115 -113 115q-65 0 -117 -26v-408zM339 728h111l-110 -152h-91z" />
<glyph unicode="&#x145;" horiz-adv-x="717" d="M183 0h-97v700h101q139 -258 350 -553q-3 39 -3 91v462h97v-700h-102q-122 164 -200 279t-150 246q4 -47 4 -115v-410zM317 -57h92q-8 -95 -64 -169h-64q34 75 36 169z" />
<glyph unicode="&#x146;" horiz-adv-x="583" d="M179 0h-101v472q100 47 218 47q104 0 159 -50.5t55 -142.5v-326h-101v319q0 115 -113 115q-65 0 -117 -26v-408zM249 -57h92q-8 -95 -64 -169h-64q34 75 36 169z" />
<glyph unicode="&#x147;" horiz-adv-x="717" d="M183 0h-97v700h101q139 -258 350 -553q-3 39 -3 91v462h97v-700h-102q-122 164 -200 279t-150 246q4 -47 4 -115v-410zM293 910l69 -94l70 94h100l-116 -152h-107l-116 152h100z" />
<glyph unicode="&#x148;" horiz-adv-x="583" d="M179 0h-101v472q100 47 218 47q104 0 159 -50.5t55 -142.5v-326h-101v319q0 115 -113 115q-65 0 -117 -26v-408zM224 728l69 -94l70 94h100l-116 -152h-107l-116 152h100z" />
<glyph unicode="&#x14c;" horiz-adv-x="714" d="M661 350q0 -162 -79 -262t-225 -100t-225 100t-79 262t79 262t225 100t225 -100t79 -262zM161 350q0 -122 49.5 -195.5t146.5 -73.5q98 0 147 73.5t49 195.5t-49 195.5t-147 73.5t-147 -73.5t-49 -195.5zM212 786v80h291v-80h-291z" />
<glyph unicode="&#x14d;" horiz-adv-x="571" d="M523 254q0 -121 -63.5 -193.5t-174.5 -72.5q-110 0 -173.5 72.5t-63.5 193.5q0 120 63.5 192.5t173.5 72.5q111 0 174.5 -72.5t63.5 -192.5zM151 254q0 -84 34.5 -132.5t99.5 -48.5q67 0 100.5 48t33.5 133q0 84 -34 132t-100 48q-65 0 -99.5 -48.5t-34.5 -131.5z M140 604v80h291v-80h-291z" />
<glyph unicode="&#x14e;" horiz-adv-x="714" d="M661 350q0 -162 -79 -262t-225 -100t-225 100t-79 262t79 262t225 100t225 -100t79 -262zM161 350q0 -122 49.5 -195.5t146.5 -73.5q98 0 147 73.5t49 195.5t-49 195.5t-147 73.5t-147 -73.5t-49 -195.5zM519 898q-9 -65 -49 -101.5t-113 -36.5q-72 0 -112.5 36.5 t-48.5 101.5h86q9 -65 75 -65q67 0 76 65h86z" />
<glyph unicode="&#x14f;" horiz-adv-x="571" d="M523 254q0 -121 -63.5 -193.5t-174.5 -72.5q-110 0 -173.5 72.5t-63.5 193.5q0 120 63.5 192.5t173.5 72.5q111 0 174.5 -72.5t63.5 -192.5zM151 254q0 -84 34.5 -132.5t99.5 -48.5q67 0 100.5 48t33.5 133q0 84 -34 132t-100 48q-65 0 -99.5 -48.5t-34.5 -131.5z M447 716q-9 -65 -49 -101.5t-113 -36.5q-72 0 -112.5 36.5t-48.5 101.5h86q9 -65 75 -65q67 0 76 65h86z" />
<glyph unicode="&#x150;" horiz-adv-x="714" d="M661 350q0 -162 -79 -262t-225 -100t-225 100t-79 262t79 262t225 100t225 -100t79 -262zM161 350q0 -122 49.5 -195.5t146.5 -73.5q98 0 147 73.5t49 195.5t-49 195.5t-147 73.5t-147 -73.5t-49 -195.5zM486 910h107l-109 -152h-88zM314 910h107l-109 -152h-87z" />
<glyph unicode="&#x151;" horiz-adv-x="571" d="M523 254q0 -121 -63.5 -193.5t-174.5 -72.5q-110 0 -173.5 72.5t-63.5 193.5q0 120 63.5 192.5t173.5 72.5q111 0 174.5 -72.5t63.5 -192.5zM151 254q0 -84 34.5 -132.5t99.5 -48.5q67 0 100.5 48t33.5 133q0 84 -34 132t-100 48q-65 0 -99.5 -48.5t-34.5 -131.5z M415 728h107l-109 -152h-88zM243 728h107l-109 -152h-87z" />
<glyph unicode="&#x152;" horiz-adv-x="1022" d="M971 90v-90h-418v80q-75 -92 -203 -92q-143 0 -220 100t-77 262t76.5 262t220.5 100q128 0 203 -92v80h418v-90h-316v-207h271v-90h-271v-223h316zM161 350q0 -122 49.5 -195.5t146.5 -73.5q98 0 147 73t49 196t-49 196t-147 73t-147 -73.5t-49 -195.5z" />
<glyph unicode="&#x153;" horiz-adv-x="913" d="M151 254q0 -84 34.5 -132.5t99.5 -48.5q67 0 101 48t34 133q0 84 -34 132t-101 48q-65 0 -99.5 -48.5t-34.5 -131.5zM655 436q-57 0 -92 -38t-42 -103h247v16q0 54 -29 89.5t-84 35.5zM853 23q-76 -35 -169 -35q-143 0 -212 111q-64 -111 -189 -111q-110 0 -172.5 72.5 t-62.5 193.5q0 120 62.5 192.5t172.5 72.5q125 0 188 -109q65 109 184 109q97 0 153.5 -62t56.5 -160q0 -39 -3 -67h-339q12 -156 167 -156q72 0 145 31z" />
<glyph unicode="&#x154;" horiz-adv-x="620" d="M266 610h-75v-242h75q84 0 126 29t42 93q0 65 -42 92.5t-126 27.5zM589 0h-116l-110 203q-23 41 -47 58t-63 17h-62v-278h-105v700h184q130 0 201 -50.5t71 -151.5q0 -86 -44.5 -131.5t-112.5 -56.5q42 -16 84 -92zM321 910h111l-110 -152h-91z" />
<glyph unicode="&#x155;" horiz-adv-x="377" d="M81 471q86 48 210 48q39 0 71 -7l-14 -85q-21 7 -50 7q-67 0 -116 -26v-408h-101v471zM260 728h111l-110 -152h-91z" />
<glyph unicode="&#x156;" horiz-adv-x="620" d="M266 610h-75v-242h75q84 0 126 29t42 93q0 65 -42 92.5t-126 27.5zM589 0h-116l-110 203q-23 41 -47 58t-63 17h-62v-278h-105v700h184q130 0 201 -50.5t71 -151.5q0 -86 -44.5 -131.5t-112.5 -56.5q42 -16 84 -92zM279 -57h92q-8 -95 -64 -169h-64q34 75 36 169z" />
<glyph unicode="&#x157;" horiz-adv-x="377" d="M81 471q86 48 210 48q39 0 71 -7l-14 -85q-21 7 -50 7q-67 0 -116 -26v-408h-101v471zM84 -57h92q-8 -95 -64 -169h-64q34 75 36 169z" />
<glyph unicode="&#x158;" horiz-adv-x="620" d="M266 610h-75v-242h75q84 0 126 29t42 93q0 65 -42 92.5t-126 27.5zM589 0h-116l-110 203q-23 41 -47 58t-63 17h-62v-278h-105v700h184q130 0 201 -50.5t71 -151.5q0 -86 -44.5 -131.5t-112.5 -56.5q42 -16 84 -92zM206 910l69 -94l70 94h100l-116 -152h-107l-116 152 h100z" />
<glyph unicode="&#x159;" horiz-adv-x="377" d="M81 471q86 48 210 48q39 0 71 -7l-14 -85q-21 7 -50 7q-67 0 -116 -26v-408h-101v471zM145 728l69 -94l70 94h100l-116 -152h-107l-116 152h100z" />
<glyph unicode="&#x15a;" horiz-adv-x="539" d="M45 27l20 91q99 -38 187 -38q143 0 143 104q0 54 -36.5 80.5t-122.5 54.5q-94 31 -140.5 76.5t-46.5 125.5q0 92 61 141.5t171 49.5q96 0 177 -33l-21 -87q-82 28 -150 28q-132 0 -132 -96q0 -48 30 -72t102 -48q42 -14 69 -25t57.5 -29.5t47.5 -40t28.5 -53t11.5 -71.5 q0 -98 -68 -147.5t-177 -49.5q-122 0 -211 39zM320 910h111l-110 -152h-91z" />
<glyph unicode="&#x15b;" horiz-adv-x="436" d="M377 492l-12 -83q-83 25 -134 25q-90 0 -90 -62q0 -31 22.5 -46t75.5 -31q89 -25 129 -59t40 -97q0 -74 -54 -112.5t-143 -38.5q-99 0 -173 31l15 85q80 -31 157 -31q45 0 71.5 17t26.5 47q0 31 -25.5 46.5t-95.5 35.5q-71 21 -108.5 55t-37.5 96q0 72 48 110.5t135 38.5 q89 0 153 -27zM266 728h111l-110 -152h-91z" />
<glyph unicode="&#x15c;" horiz-adv-x="539" d="M45 27l20 91q99 -38 187 -38q143 0 143 104q0 54 -36.5 80.5t-122.5 54.5q-94 31 -140.5 76.5t-46.5 125.5q0 92 61 141.5t171 49.5q96 0 177 -33l-21 -87q-82 28 -150 28q-132 0 -132 -96q0 -48 30 -72t102 -48q42 -14 69 -25t57.5 -29.5t47.5 -40t28.5 -53t11.5 -71.5 q0 -98 -68 -147.5t-177 -49.5q-122 0 -211 39zM346 758l-71 95l-69 -95h-100l116 152h107l116 -152h-99z" />
<glyph unicode="&#x15d;" horiz-adv-x="436" d="M377 492l-12 -83q-83 25 -134 25q-90 0 -90 -62q0 -31 22.5 -46t75.5 -31q89 -25 129 -59t40 -97q0 -74 -54 -112.5t-143 -38.5q-99 0 -173 31l15 85q80 -31 157 -31q45 0 71.5 17t26.5 47q0 31 -25.5 46.5t-95.5 35.5q-71 21 -108.5 55t-37.5 96q0 72 48 110.5t135 38.5 q89 0 153 -27zM291 576l-71 95l-69 -95h-100l116 152h107l116 -152h-99z" />
<glyph unicode="&#x15e;" horiz-adv-x="539" d="M45 27l20 91q99 -38 187 -38q143 0 143 104q0 54 -36.5 80.5t-122.5 54.5q-95 31 -141 76t-46 126q0 92 61 141.5t171 49.5q89 0 176 -33l-18 -89q-81 30 -152 30q-132 0 -132 -96q0 -48 30 -72t102 -48q42 -14 69 -25t57.5 -29.5t47.5 -39.5t28.5 -53t11.5 -72 q0 -88 -56 -137t-148 -58l-15 -39q95 -9 95 -83q0 -47 -37.5 -71t-95.5 -24q-34 0 -66 9l12 58q24 -6 47 -6q59 0 59 36t-66 38l-13 34l16 46q-104 4 -188 39z" />
<glyph unicode="&#x15f;" horiz-adv-x="436" d="M377 492l-12 -83q-90 25 -134 25q-90 0 -90 -57q0 -29 19.5 -42.5t75.5 -30.5q92 -28 132 -62t40 -101q0 -69 -45 -107.5t-122 -44.5l-15 -38q95 -8 95 -83q0 -48 -37 -71.5t-95 -23.5q-35 0 -67 9l13 58q24 -6 47 -6q58 0 58 36t-66 38l-13 34l16 47q-71 4 -139 30 l15 85q78 -31 157 -31q45 0 71.5 17t26.5 49q0 34 -26 50t-100 39q-73 21 -107 54.5t-34 92.5q0 71 48 107.5t135 36.5q72 0 153 -27z" />
<glyph unicode="&#x160;" horiz-adv-x="539" d="M45 27l20 91q99 -38 187 -38q143 0 143 104q0 54 -36.5 80.5t-122.5 54.5q-94 31 -140.5 76.5t-46.5 125.5q0 92 61 141.5t171 49.5q96 0 177 -33l-21 -87q-82 28 -150 28q-132 0 -132 -96q0 -48 30 -72t102 -48q42 -14 69 -25t57.5 -29.5t47.5 -40t28.5 -53t11.5 -71.5 q0 -98 -68 -147.5t-177 -49.5q-122 0 -211 39zM206 910l69 -94l70 94h100l-116 -152h-107l-116 152h100z" />
<glyph unicode="&#x161;" horiz-adv-x="436" d="M377 492l-12 -83q-83 25 -134 25q-90 0 -90 -62q0 -31 22.5 -46t75.5 -31q89 -25 129 -59t40 -97q0 -74 -54 -112.5t-143 -38.5q-99 0 -173 31l15 85q80 -31 157 -31q45 0 71.5 17t26.5 47q0 31 -25.5 46.5t-95.5 35.5q-71 21 -108.5 55t-37.5 96q0 72 48 110.5t135 38.5 q89 0 153 -27zM151 728l69 -94l70 94h100l-116 -152h-107l-116 152h100z" />
<glyph unicode="&#x162;" horiz-adv-x="556" d="M226 0v610h-201v90h506v-90h-201v-610h-23l-19 -49q95 -8 95 -83q0 -48 -37.5 -71.5t-95.5 -23.5q-34 0 -66 9l13 58q24 -6 47 -6q58 0 58 36t-66 38l-13 34l20 58h-17z" />
<glyph unicode="&#x163;" horiz-adv-x="353" d="M84 -218l13 58q24 -6 47 -6q58 0 58 36t-66 38l-13 34l26 74q-59 42 -59 149v260h-72v82h72v116l101 5v-121h125v-82h-125v-259q0 -93 78 -93q32 0 58 7l6 -82q-40 -10 -81 -10q-29 0 -48 5l-16 -42q95 -8 95 -83q0 -48 -37 -71.5t-95 -23.5q-35 0 -67 9z" />
<glyph unicode="&#x164;" horiz-adv-x="556" d="M226 0v610h-201v90h506v-90h-201v-610h-104zM207 910l69 -94l70 94h100l-116 -152h-107l-116 152h100z" />
<glyph unicode="&#x165;" horiz-adv-x="353" d="M333 -2q-40 -10 -81 -10q-162 0 -162 177v260h-72v82h72v116l101 5v-121h125v-82h-125v-259q0 -93 78 -93q32 0 58 7zM272 756h91q-9 -119 -69 -204h-64q37 93 42 204z" />
<glyph unicode="&#x166;" horiz-adv-x="556" d="M226 0v306h-131v89h131v215h-201v90h506v-90h-201v-215h131v-89h-131v-306h-104z" />
<glyph unicode="&#x167;" horiz-adv-x="353" d="M316 507v-82h-125v-93h125v-82h-125v-75q0 -54 19.5 -77.5t59.5 -23.5q31 0 57 7l6 -83q-40 -10 -83 -10q-160 0 -160 186v76h-72v82h72v93h-72v82h72v116l101 5v-121h125z" />
<glyph unicode="&#x168;" horiz-adv-x="693" d="M81 273v427h104v-420q0 -199 162 -199q161 0 161 199v420h105v-427q0 -285 -266 -285t-266 285zM408 847q19 0 25.5 13t7.5 39h70q-1 -54 -21 -91.5t-67 -37.5q-30 0 -71 22.5t-61 22.5q-21 0 -29 -12t-10 -34h-70q3 122 94 122q31 0 73 -22t59 -22z" />
<glyph unicode="&#x169;" horiz-adv-x="577" d="M499 36q-98 -48 -221 -48q-205 0 -205 196v323h101v-323q0 -111 106 -111q66 0 118 27v407h101v-471zM351 665q19 0 25.5 13t7.5 39h70q-1 -54 -21 -91.5t-67 -37.5q-30 0 -71 22.5t-61 22.5q-21 0 -29 -12t-10 -34h-70q3 122 94 122q31 0 73 -22t59 -22z" />
<glyph unicode="&#x16a;" horiz-adv-x="693" d="M81 273v427h104v-420q0 -199 162 -199q161 0 161 199v420h105v-427q0 -285 -266 -285t-266 285zM202 786v80h291v-80h-291z" />
<glyph unicode="&#x16b;" horiz-adv-x="577" d="M499 36q-98 -48 -221 -48q-205 0 -205 196v323h101v-323q0 -111 106 -111q66 0 118 27v407h101v-471zM144 604v80h291v-80h-291z" />
<glyph unicode="&#x16c;" horiz-adv-x="693" d="M81 273v427h104v-420q0 -199 162 -199q161 0 161 199v420h105v-427q0 -285 -266 -285t-266 285zM509 898q-9 -65 -49 -101.5t-113 -36.5q-72 0 -112.5 36.5t-48.5 101.5h86q9 -65 75 -65q67 0 76 65h86z" />
<glyph unicode="&#x16d;" horiz-adv-x="577" d="M499 36q-98 -48 -221 -48q-205 0 -205 196v323h101v-323q0 -111 106 -111q66 0 118 27v407h101v-471zM451 716q-9 -65 -49 -101.5t-113 -36.5q-72 0 -112.5 36.5t-48.5 101.5h86q9 -65 75 -65q67 0 76 65h86z" />
<glyph unicode="&#x16e;" horiz-adv-x="693" d="M81 273v427h104v-420q0 -199 162 -199q161 0 161 199v420h105v-427q0 -285 -266 -285t-266 285zM232 861q0 50 32.5 82t82.5 32t83 -32t33 -82t-32.5 -81.5t-83.5 -31.5q-50 0 -82.5 31.5t-32.5 81.5zM397 861q0 23 -13 37.5t-37 14.5q-23 0 -36 -14.5t-13 -37.5 q0 -22 13 -37t36 -15q24 0 37 15t13 37z" />
<glyph unicode="&#x16f;" horiz-adv-x="577" d="M499 36q-98 -48 -221 -48q-205 0 -205 196v323h101v-323q0 -111 106 -111q66 0 118 27v407h101v-471zM174 679q0 50 32.5 82t82.5 32t83 -32t33 -82t-32.5 -81.5t-83.5 -31.5q-50 0 -82.5 31.5t-32.5 81.5zM339 679q0 23 -13 37.5t-37 14.5q-23 0 -36 -14.5t-13 -37.5 q0 -22 13 -37t36 -15q24 0 37 15t13 37z" />
<glyph unicode="&#x170;" horiz-adv-x="693" d="M81 273v427h104v-420q0 -199 162 -199q161 0 161 199v420h105v-427q0 -285 -266 -285t-266 285zM476 910h107l-109 -152h-88zM304 910h107l-109 -152h-87z" />
<glyph unicode="&#x171;" horiz-adv-x="577" d="M499 36q-98 -48 -221 -48q-205 0 -205 196v323h101v-323q0 -111 106 -111q66 0 118 27v407h101v-471zM418 728h107l-109 -152h-88zM246 728h107l-109 -152h-87z" />
<glyph unicode="&#x172;" horiz-adv-x="693" d="M81 273v427h104v-420q0 -199 162 -199q161 0 161 199v420h105v-427q0 -239 -187 -277q-92 -55 -92 -100q0 -40 49 -40q25 0 47 10l13 -62q-38 -16 -83 -16q-50 0 -80.5 24t-30.5 67q0 55 67 110q-235 17 -235 284z" />
<glyph unicode="&#x173;" horiz-adv-x="577" d="M499 36q-99 -77 -99 -140q0 -40 49 -40q25 0 47 10l13 -62q-38 -16 -83 -16q-50 0 -80.5 24t-30.5 67q0 57 55 117q-46 -8 -92 -8q-205 0 -205 196v323h101v-323q0 -111 106 -111q66 0 118 27v407h101v-471z" />
<glyph unicode="&#x174;" horiz-adv-x="977" d="M694 99q96 257 152 601h106q-73 -409 -197 -700h-114q-90 217 -152 511q-62 -294 -152 -511h-114q-127 300 -198 700h107q27 -165 69.5 -329.5t82.5 -271.5q109 290 156 601h98q49 -320 156 -601zM557 758l-71 95l-69 -95h-100l116 152h107l116 -152h-99z" />
<glyph unicode="&#x175;" horiz-adv-x="797" d="M434 507q20 -217 113 -425q102 207 117 425h100q-15 -143 -52.5 -258t-109.5 -249h-102q-73 145 -107 245q-34 -123 -99 -245h-99q-75 129 -111 243.5t-51 263.5h100q21 -223 117 -425q79 156 104 318q-9 52 -15 107h95zM462 576l-71 95l-69 -95h-100l116 152h107 l116 -152h-99z" />
<glyph unicode="&#x176;" horiz-adv-x="598" d="M246 0v290q-164 223 -236 410h109q61 -155 181 -326q116 167 180 326h108q-76 -191 -237 -411v-289h-105zM372 758l-71 95l-69 -95h-100l116 152h107l116 -152h-99z" />
<glyph unicode="&#x177;" horiz-adv-x="512" d="M326 28q-103 -181 -263 -213l-17 87q113 23 171 119q-82 116 -126.5 230.5t-59.5 255.5h102q11 -120 45.5 -216t91.5 -192q50 101 77.5 193.5t38.5 214.5h101q-26 -238 -161 -479zM335 576l-71 95l-69 -95h-100l116 152h107l116 -152h-99z" />
<glyph unicode="&#x178;" horiz-adv-x="598" d="M246 0v290q-164 223 -236 410h109q61 -155 181 -326q116 167 180 326h108q-76 -191 -237 -411v-289h-105zM268 830q0 -26 -16.5 -42t-43.5 -16q-28 0 -43.5 16t-15.5 42q0 25 15.5 41t43.5 16q27 0 43.5 -16t16.5 -41zM451 830q0 -26 -15.5 -42t-42.5 -16q-28 0 -44 16 t-16 42q0 25 16 41t44 16q27 0 42.5 -16t15.5 -41z" />
<glyph unicode="&#x179;" horiz-adv-x="560" d="M506 622q-64 -143 -143.5 -265t-195.5 -267h358v-90h-485v80q256 320 357 530h-346v90h455v-78zM324 910h111l-110 -152h-91z" />
<glyph unicode="&#x17a;" horiz-adv-x="461" d="M47 507h371v-69q-94 -175 -260 -356h275v-82h-400v70q187 197 275 355h-261v82zM278 728h111l-110 -152h-91z" />
<glyph unicode="&#x17b;" horiz-adv-x="560" d="M506 622q-64 -143 -143.5 -265t-195.5 -267h358v-90h-485v80q256 320 357 530h-346v90h455v-78zM216 835q0 27 16.5 44t45.5 17t45.5 -17t16.5 -44q0 -28 -16.5 -44.5t-45.5 -16.5t-45.5 16.5t-16.5 44.5z" />
<glyph unicode="&#x17c;" horiz-adv-x="461" d="M47 507h371v-69q-94 -175 -260 -356h275v-82h-400v70q187 197 275 355h-261v82zM170 653q0 27 16.5 44t45.5 17t45.5 -17t16.5 -44q0 -28 -16.5 -44.5t-45.5 -16.5t-45.5 16.5t-16.5 44.5z" />
<glyph unicode="&#x17d;" horiz-adv-x="560" d="M506 622q-64 -143 -143.5 -265t-195.5 -267h358v-90h-485v80q256 320 357 530h-346v90h455v-78zM209 910l69 -94l70 94h100l-116 -152h-107l-116 152h100z" />
<glyph unicode="&#x17e;" horiz-adv-x="461" d="M47 507h371v-69q-94 -175 -260 -356h275v-82h-400v70q187 197 275 355h-261v82zM164 728l69 -94l70 94h100l-116 -152h-107l-116 152h100z" />
<glyph unicode="&#x192;" horiz-adv-x="442" d="M77 507h72v41q0 86 40.5 135t122.5 49q38 0 90 -12l-17 -80q-40 7 -57 7q-78 0 -78 -97v-43h128v-82h-128v-432q0 -86 -40.5 -135t-121.5 -49q-46 0 -91 12l18 80q37 -7 56 -7q78 0 78 97v434h-72v82z" />
<glyph unicode="&#x218;" horiz-adv-x="539" d="M45 27l20 91q99 -38 187 -38q143 0 143 104q0 54 -36.5 80.5t-122.5 54.5q-94 31 -140.5 76.5t-46.5 125.5q0 92 61 141.5t171 49.5q96 0 177 -33l-21 -87q-82 28 -150 28q-132 0 -132 -96q0 -48 30 -72t102 -48q42 -14 69 -25t57.5 -29.5t47.5 -40t28.5 -53t11.5 -71.5 q0 -98 -68 -147.5t-177 -49.5q-122 0 -211 39zM236 -57h92q-8 -95 -64 -169h-64q34 75 36 169z" />
<glyph unicode="&#x219;" horiz-adv-x="436" d="M377 492l-12 -83q-83 25 -134 25q-90 0 -90 -62q0 -31 22.5 -46t75.5 -31q89 -25 129 -59t40 -97q0 -74 -54 -112.5t-143 -38.5q-99 0 -173 31l15 85q80 -31 157 -31q45 0 71.5 17t26.5 47q0 31 -25.5 46.5t-95.5 35.5q-71 21 -108.5 55t-37.5 96q0 72 48 110.5t135 38.5 q89 0 153 -27zM181 -57h92q-8 -95 -64 -169h-64q34 75 36 169z" />
<glyph unicode="&#x21a;" horiz-adv-x="556" d="M226 0v610h-201v90h506v-90h-201v-610h-104zM234 -57h92q-8 -95 -64 -169h-64q34 75 36 169z" />
<glyph unicode="&#x21b;" horiz-adv-x="353" d="M333 -2q-40 -10 -81 -10q-162 0 -162 177v260h-72v82h72v116l101 5v-121h125v-82h-125v-259q0 -93 78 -93q32 0 58 7zM143 -57h92q-8 -95 -64 -169h-64q34 75 36 169z" />
<glyph unicode="&#x237;" horiz-adv-x="262" d="M12 -100q37 18 53 42t16 69v496h101v-500q0 -74 -33 -119.5t-106 -71.5z" />
<glyph unicode="&#x2c6;" d="M316 568l-71 95l-69 -95h-100l116 152h107l116 -152h-99z" />
<glyph unicode="&#x2c7;" d="M176 720l69 -94l70 94h100l-116 -152h-107l-116 152h100z" />
<glyph unicode="&#x2d8;" d="M412 708q-9 -65 -49 -101.5t-113 -36.5q-72 0 -112.5 36.5t-48.5 101.5h86q9 -65 75 -65q67 0 76 65h86z" />
<glyph unicode="&#x2d9;" d="M188 645q0 27 16.5 44t45.5 17t45.5 -17t16.5 -44q0 -28 -16.5 -44.5t-45.5 -16.5t-45.5 16.5t-16.5 44.5z" />
<glyph unicode="&#x2da;" d="M134 671q0 50 32.5 82t82.5 32t83 -32t33 -82t-32.5 -81.5t-83.5 -31.5q-50 0 -82.5 31.5t-32.5 81.5zM299 671q0 23 -13 37.5t-37 14.5q-23 0 -36 -14.5t-13 -37.5q0 -22 13 -37t36 -15q24 0 37 15t13 37z" />
<glyph unicode="&#x2db;" d="M322 -196q-38 -16 -82 -16q-51 0 -81.5 24t-30.5 67q0 68 94 130l91 -9q-100 -57 -100 -104q0 -40 49 -40q25 0 47 10z" />
<glyph unicode="&#x2dc;" d="M310 657q19 0 25.5 13t7.5 39h70q-1 -54 -21 -91.5t-67 -37.5q-30 0 -71 22.5t-61 22.5q-21 0 -29 -12t-10 -34h-70q3 122 94 122q31 0 73 -22t59 -22z" />
<glyph unicode="&#x2dd;" d="M342 720h107l-109 -152h-88zM170 720h107l-109 -152h-87z" />
<glyph unicode="&#x326;" horiz-adv-x="0" d="M-45 -57h92q-8 -95 -64 -169h-64q34 75 36 169z" />
<glyph unicode="&#x3c0;" horiz-adv-x="639" d="M607 -2q-33 -10 -79 -10q-145 0 -145 171v266h-166v-425h-101v425h-93v82h580v-82h-119v-264q0 -49 17 -68t51 -19q24 0 54 7z" />
<glyph unicode="&#x1e80;" horiz-adv-x="977" d="M694 99q96 257 152 601h106q-73 -409 -197 -700h-114q-90 217 -152 511q-62 -294 -152 -511h-114q-127 300 -198 700h107q27 -165 69.5 -329.5t82.5 -271.5q109 290 156 601h98q49 -320 156 -601zM446 758l-110 152h111l90 -152h-91z" />
<glyph unicode="&#x1e81;" horiz-adv-x="797" d="M434 507q20 -217 113 -425q102 207 117 425h100q-15 -143 -52.5 -258t-109.5 -249h-102q-73 145 -107 245q-34 -123 -99 -245h-99q-75 129 -111 243.5t-51 263.5h100q21 -223 117 -425q79 156 104 318q-9 52 -15 107h95zM351 576l-110 152h111l90 -152h-91z" />
<glyph unicode="&#x1e82;" horiz-adv-x="977" d="M694 99q96 257 152 601h106q-73 -409 -197 -700h-114q-90 217 -152 511q-62 -294 -152 -511h-114q-127 300 -198 700h107q27 -165 69.5 -329.5t82.5 -271.5q109 290 156 601h98q49 -320 156 -601zM532 910h111l-110 -152h-91z" />
<glyph unicode="&#x1e83;" horiz-adv-x="797" d="M434 507q20 -217 113 -425q102 207 117 425h100q-15 -143 -52.5 -258t-109.5 -249h-102q-73 145 -107 245q-34 -123 -99 -245h-99q-75 129 -111 243.5t-51 263.5h100q21 -223 117 -425q79 156 104 318q-9 52 -15 107h95zM437 728h111l-110 -152h-91z" />
<glyph unicode="&#x1e84;" horiz-adv-x="977" d="M694 99q96 257 152 601h106q-73 -409 -197 -700h-114q-90 217 -152 511q-62 -294 -152 -511h-114q-127 300 -198 700h107q27 -165 69.5 -329.5t82.5 -271.5q109 290 156 601h98q49 -320 156 -601zM454 830q0 -26 -16.5 -42t-43.5 -16q-28 0 -43.5 16t-15.5 42 q0 25 15.5 41t43.5 16q27 0 43.5 -16t16.5 -41zM637 830q0 -26 -15.5 -42t-42.5 -16q-28 0 -44 16t-16 42q0 25 16 41t44 16q27 0 42.5 -16t15.5 -41z" />
<glyph unicode="&#x1e85;" horiz-adv-x="797" d="M434 507q20 -217 113 -425q102 207 117 425h100q-15 -143 -52.5 -258t-109.5 -249h-102q-73 145 -107 245q-34 -123 -99 -245h-99q-75 129 -111 243.5t-51 263.5h100q21 -223 117 -425q79 156 104 318q-9 52 -15 107h95zM359 648q0 -26 -16.5 -42t-43.5 -16 q-28 0 -43.5 16t-15.5 42q0 25 15.5 41t43.5 16q27 0 43.5 -16t16.5 -41zM542 648q0 -26 -15.5 -42t-42.5 -16q-28 0 -44 16t-16 42q0 25 16 41t44 16q27 0 42.5 -16t15.5 -41z" />
<glyph unicode="&#x1ef2;" horiz-adv-x="598" d="M246 0v290q-164 223 -236 410h109q61 -155 181 -326q116 167 180 326h108q-76 -191 -237 -411v-289h-105zM260 758l-110 152h111l90 -152h-91z" />
<glyph unicode="&#x1ef3;" horiz-adv-x="512" d="M326 28q-103 -181 -263 -213l-17 87q113 23 171 119q-82 116 -126.5 230.5t-59.5 255.5h102q11 -120 45.5 -216t91.5 -192q50 101 77.5 193.5t38.5 214.5h101q-26 -238 -161 -479zM224 576l-110 152h111l90 -152h-91z" />
<glyph unicode="&#x2000;" horiz-adv-x="487" />
<glyph unicode="&#x2001;" horiz-adv-x="975" />
<glyph unicode="&#x2002;" horiz-adv-x="487" />
<glyph unicode="&#x2003;" horiz-adv-x="975" />
<glyph unicode="&#x2004;" horiz-adv-x="325" />
<glyph unicode="&#x2005;" horiz-adv-x="243" />
<glyph unicode="&#x2006;" horiz-adv-x="162" />
<glyph unicode="&#x2007;" horiz-adv-x="162" />
<glyph unicode="&#x2008;" horiz-adv-x="121" />
<glyph unicode="&#x2009;" horiz-adv-x="195" />
<glyph unicode="&#x200a;" horiz-adv-x="54" />
<glyph unicode="&#x2010;" horiz-adv-x="336" d="M40 274v86h256v-86h-256z" />
<glyph unicode="&#x2011;" horiz-adv-x="336" d="M40 274v86h256v-86h-256z" />
<glyph unicode="&#x2012;" horiz-adv-x="336" d="M40 274v86h256v-86h-256z" />
<glyph unicode="&#x2013;" d="M35 282v86h430v-86h-430z" />
<glyph unicode="&#x2014;" horiz-adv-x="1000" d="M35 282v86h930v-86h-930z" />
<glyph unicode="&#x2018;" horiz-adv-x="224" d="M144 478h-97q3 119 91 242h57q-46 -114 -51 -242z" />
<glyph unicode="&#x2019;" horiz-adv-x="224" d="M87 720h98q-4 -118 -91 -242h-58q46 114 51 242z" />
<glyph unicode="&#x201a;" horiz-adv-x="224" d="M74 112h98q-4 -118 -91 -242h-58q46 114 51 242z" />
<glyph unicode="&#x201c;" horiz-adv-x="409" d="M329 478h-98q4 118 91 242h58q-46 -114 -51 -242zM144 478h-97q3 119 91 242h57q-46 -114 -51 -242z" />
<glyph unicode="&#x201d;" horiz-adv-x="409" d="M87 720h98q-4 -118 -91 -242h-58q46 114 51 242zM271 720h98q-3 -119 -91 -242h-58q46 114 51 242z" />
<glyph unicode="&#x201e;" horiz-adv-x="409" d="M74 112h98q-4 -118 -91 -242h-58q46 114 51 242zM258 112h98q-3 -119 -91 -242h-58q46 114 51 242z" />
<glyph unicode="&#x2020;" horiz-adv-x="553" d="M50 416v84q41 0 109.5 -3.5t78.5 -3.5q0 5 -3.5 62.5t-3.5 94.5q0 46 3 91h84q4 -60 4 -91q0 -37 -3.5 -94.5t-3.5 -62.5q8 0 76 3.5t111 3.5v-84q-46 0 -188 7q8 -139 8 -159v-464h-91v464q0 35 3.5 91.5t3.5 67.5q-142 -7 -188 -7z" />
<glyph unicode="&#x2021;" horiz-adv-x="553" d="M50 416v84q41 0 109.5 -3.5t78.5 -3.5q0 5 -3.5 62.5t-3.5 94.5q0 46 3 91h84q4 -60 4 -91q0 -37 -3.5 -94.5t-3.5 -62.5q8 0 76 3.5t111 3.5v-84q-47 0 -187 7q0 -10 3.5 -63.5t3.5 -88.5q0 -22 -8 -155q160 8 188 8v-85q-42 0 -110.5 3.5t-76.5 3.5q7 -112 7 -156 q0 -32 -4 -92h-84q-3 45 -3 92q0 44 7 156q-10 0 -78.5 -3.5t-109.5 -3.5v85q28 0 188 -8q0 9 -3.5 64.5t-3.5 90.5t3.5 88.5t3.5 63.5q-142 -7 -188 -7z" />
<glyph unicode="&#x2022;" horiz-adv-x="306" d="M254 354q0 -45 -26.5 -73.5t-73.5 -28.5q-48 0 -75 28.5t-27 73.5q0 44 27 72t75 28q47 0 73.5 -28t26.5 -72z" />
<glyph unicode="&#x2026;" horiz-adv-x="755" d="M60 52q0 28 16.5 44t46.5 16q29 0 45.5 -16.5t16.5 -43.5q0 -28 -16.5 -44.5t-45.5 -16.5q-30 0 -46.5 16.5t-16.5 44.5zM315 52q0 28 16.5 44t46.5 16t46 -16t16 -44t-16 -44.5t-46 -16.5t-46.5 16.5t-16.5 44.5zM570 52q0 28 16.5 44t46.5 16q29 0 45.5 -16t16.5 -44 t-16 -44.5t-46 -16.5t-46.5 16.5t-16.5 44.5z" />
<glyph unicode="&#x202f;" horiz-adv-x="195" />
<glyph unicode="&#x2030;" horiz-adv-x="1221" d="M358 514q0 -80 -43 -125.5t-115 -45.5q-71 0 -114 46t-43 125q0 77 43.5 123t113.5 46q71 0 114.5 -46t43.5 -123zM125 514q0 -48 19 -75.5t56 -27.5q76 0 76 103q0 46 -19 73.5t-57 27.5q-36 0 -55.5 -27.5t-19.5 -73.5zM557 671h80l-346 -671h-80zM804 159 q0 -79 -43 -125t-114 -46t-114.5 46t-43.5 125q0 77 43.5 123t114.5 46t114 -46t43 -123zM572 159q0 -47 19 -74.5t56 -27.5q75 0 75 102q0 101 -75 101q-37 0 -56 -27t-19 -74zM1178 159q0 -79 -43 -125t-115 -46q-71 0 -114 46t-43 125q0 77 43.5 123t113.5 46 q72 0 115 -45.5t43 -123.5zM945 159q0 -47 19 -74.5t56 -27.5q75 0 75 102q0 101 -75 101q-37 0 -56 -27t-19 -74z" />
<glyph unicode="&#x2039;" horiz-adv-x="361" d="M199 65q-90 87 -176 212q83 122 176 212h124q-91 -89 -182 -212q87 -119 182 -212h-124z" />
<glyph unicode="&#x203a;" horiz-adv-x="361" d="M162 65h-124q98 98 182 212q-87 119 -182 212h124q97 -95 176 -212q-82 -120 -176 -212z" />
<glyph unicode="&#x2044;" horiz-adv-x="108" d="M207 700h85l-391 -700h-86z" />
<glyph unicode="&#x205f;" horiz-adv-x="243" />
<glyph unicode="&#x2070;" horiz-adv-x="337" d="M322 534q0 -84 -41.5 -131.5t-111.5 -47.5t-112 47.5t-42 131.5q0 83 42 130.5t112 47.5t111.5 -47.5t41.5 -130.5zM97 534q0 -111 72 -111q71 0 71 111q0 110 -71 110q-72 0 -72 -110z" />
<glyph unicode="&#x2074;" horiz-adv-x="337" d="M20 423v51q67 119 178 230h75v-221h47v-60h-47v-60h-74v60h-179zM199 517q0 59 3 118q-68 -82 -112 -152h109v34z" />
<glyph unicode="&#x20ac;" horiz-adv-x="615" d="M431 -12q-123 0 -200 61t-102 174h-96v71h85q-1 14 -1 42q0 27 1 40h-85v72h95q26 112 102 173.5t192 61.5q75 0 141 -21l-21 -84q-59 17 -108 17q-158 0 -199 -147h244l-7 -72h-249q-1 -13 -1 -40q0 -16 2 -42h242l-6 -71h-224q43 -147 201 -147q62 0 118 17l17 -84 q-61 -21 -141 -21z" />
<glyph unicode="&#x20b9;" horiz-adv-x="538" d="M53 598v73h439v-73h-121q16 -38 23 -87h98v-73h-94q-7 -179 -217 -199l220 -239h-129l-218 237h-1v80h75q86 0 127.5 28t45.5 93h-248v73h245q-6 42 -25 87h-220z" />
<glyph unicode="&#x2113;" horiz-adv-x="523" d="M54 73l-39 76l88 49q-14 61 -14 137q0 182 63 279.5t160 97.5q76 0 119.5 -47t43.5 -136q0 -119 -63.5 -204t-190.5 -158l-3 -2q36 -88 132 -88q51 0 97 17v-89q-46 -17 -105 -17q-148 0 -211 128zM192 340q0 -44 5 -89q94 58 136.5 122t42.5 149q0 102 -66 102 q-59 0 -88.5 -77.5t-29.5 -206.5z" />
<glyph unicode="&#x2122;" horiz-adv-x="753" d="M121 366v276h-101v58h271v-58h-100v-276h-70zM331 700h74q42 -103 113 -215q59 94 109 215h73v-334h-63v178l3 52q-44 -91 -96 -173h-52q-57 88 -101 177l4 -56v-178h-64v334z" />
<glyph unicode="&#x2126;" horiz-adv-x="714" d="M60 0v90h104q-111 104 -111 272q0 154 79.5 252t224.5 98t224.5 -98.5t79.5 -251.5q0 -169 -110 -272h103v-90h-231v82q59 22 94.5 96.5t35.5 171.5q0 122 -49 195.5t-147 73.5t-147 -73.5t-49 -195.5q0 -98 35.5 -172.5t95.5 -95.5v-82h-232z" />
<glyph unicode="&#x212e;" horiz-adv-x="709" d="M550 276v151q0 11 -8 19q-76 78 -185 78q-112 0 -187 -81q-8 -6 -8 -19v-148q0 -4 4 -4h381q3 0 3 4zM662 257h-496q-4 0 -4 -3v-150q0 -10 7 -18q77 -80 188 -80q120 0 197 90h44q-94 -107 -242 -107q-127 0 -216.5 80.5t-89.5 194.5t89.5 195.5t216.5 81.5t216.5 -81.5 t89.5 -195.5v-7z" />
<glyph unicode="&#x2202;" horiz-adv-x="569" d="M241 -12q-96 0 -148.5 55.5t-52.5 154.5q0 135 77 228t191 93q51 0 92 -33q-34 67 -93 124.5t-128 89.5l128 7q92 -49 154.5 -142.5t62.5 -209.5q0 -168 -76 -267.5t-207 -99.5zM144 202q0 -61 28 -95t82 -34q76 0 122 70.5t46 163.5q0 127 -110 127q-75 0 -121.5 -69.5 t-46.5 -162.5z" />
<glyph unicode="&#x2206;" horiz-adv-x="636" d="M20 0v81l247 619h101l248 -619v-81h-596zM504 89l-187 497l-189 -497h376z" />
<glyph unicode="&#x220f;" horiz-adv-x="740" d="M710 610h-100v-740h-104v740h-271v-740h-105v740h-100v90h680v-90z" />
<glyph unicode="&#x2211;" horiz-adv-x="557" d="M535 -130h-512v84l272 335l-251 327v84h464v-90h-334l213 -280v-86l-235 -284h383v-90z" />
<glyph unicode="&#x2212;" horiz-adv-x="524" d="M37 298v88h450v-88h-450z" />
<glyph unicode="&#x2215;" horiz-adv-x="108" d="M207 700h85l-391 -700h-86z" />
<glyph unicode="&#x221a;" horiz-adv-x="519" d="M175 0l-90 227h-70v90h135l75 -210l179 593h100l-224 -700h-105z" />
<glyph unicode="&#x221e;" horiz-adv-x="815" d="M35 325q0 84 50.5 134t126.5 50q63 0 109.5 -32.5t90.5 -92.5q46 61 90 93.5t106 32.5q71 0 121.5 -50.5t50.5 -134.5q0 -85 -50.5 -136t-120.5 -51q-65 0 -111.5 32.5t-92.5 93.5q-48 -66 -93.5 -96t-105.5 -30q-69 0 -120 50t-51 137zM218 425q-43 0 -68.5 -27.5 t-25.5 -74.5t26 -74t68 -27t71.5 23.5t68.5 75.5q-40 54 -70 79t-70 25zM457 326q38 -53 68.5 -78.5t72.5 -25.5q44 0 69 27t25 74q0 48 -26 76t-70 28q-40 0 -71 -25t-68 -76z" />
<glyph unicode="&#x222b;" horiz-adv-x="445" d="M407 640q-37 7 -56 7q-78 0 -78 -97v-556q0 -87 -40.5 -136t-121.5 -49q-39 0 -91 12l17 81q30 -7 57 -7q78 0 78 97v556q0 86 40.5 135t121.5 49q39 0 91 -12z" />
<glyph unicode="&#x2248;" horiz-adv-x="524" d="M487 469q-12 -54 -43.5 -84.5t-79.5 -30.5q-45 0 -98.5 25t-86.5 25q-58 0 -82 -52l-60 38q14 50 48 79t82 29q41 0 94.5 -24.5t86.5 -24.5q54 0 80 56zM487 294q-12 -54 -43.5 -84.5t-79.5 -30.5q-45 0 -98.5 25.5t-86.5 25.5q-58 0 -82 -53l-60 39q14 50 48 79t82 29 q41 0 94.5 -24.5t86.5 -24.5q53 0 80 55z" />
<glyph unicode="&#x2260;" horiz-adv-x="524" d="M337 609h98l-61 -131h113v-88h-153l-45 -96h198v-88h-238l-61 -131h-99l61 131h-113v88h154l44 96h-198v88h239z" />
<glyph unicode="&#x2264;" horiz-adv-x="524" d="M37 23v88h450v-88h-450zM487 172l-450 153v99l450 154v-100l-331 -103l331 -102v-101z" />
<glyph unicode="&#x2265;" horiz-adv-x="524" d="M487 23h-450v88h450v-88zM37 172v101l331 102l-331 103v100l450 -154v-99z" />
<glyph unicode="&#x25ca;" horiz-adv-x="504" d="M252 82l132 212l-132 213l-132 -213zM200 0l-185 293l185 297h103l186 -297l-186 -293h-103z" />
<glyph unicode="&#x25fc;" horiz-adv-x="505" d="M0 505h505v-505h-505v505z" />
<glyph horiz-adv-x="1690" d="M86 0v700h216v-700h-216zM347 496v204h216v-204h-216zM607 0v700h217v-700h-217zM868 496v204h216v-204h-216zM1128 0v700h217v-700h-217zM1389 496v204h216v-204h-216zM1389 247v205h216v-205h-216z" />
<glyph d="M140 709h91q-9 -119 -69 -204h-64q37 93 42 204z" />
<glyph horiz-adv-x="0" d="M47 572h-90q8 99 67 170h65q-36 -70 -42 -170z" />
</font>
</defs>
</svg>
