<?xml version="1.0" standalone="no"?>
<!DOCTYPE svg PUBLIC "-//W3C//DTD SVG 1.1//EN" "http://www.w3.org/Graphics/SVG/1.1/DTD/svg11.dtd" >
<!--
2013-9-30: Created.
-->
<svg>
<metadata>
Created by iconfont
</metadata>
<defs>

<font id="iconfont" horiz-adv-x="1024" >
  <font-face
    font-family="iconfont"
    font-weight="500"
    font-stretch="normal"
    units-per-em="1024"
    ascent="896"
    descent="-128"
  />
    <missing-glyph />
    
    <glyph glyph-name="top" unicode="&#59416;" d="M923.648 819.2h-819.2c-20.48 0-37.888 17.408-37.888 37.888S83.968 894.976 104.448 894.976h819.2c20.48 0 37.888-17.408 37.888-37.888s-17.408-37.888-37.888-37.888zM675.84-128H358.4c-16.384 0-31.744 6.144-43.008 17.408-12.288 12.288-18.432 27.648-18.432 44.032V235.51999999999998H142.336c-16.384 0-31.744 6.144-43.008 17.408S81.92 279.552 81.92 295.93600000000004c0 15.36 5.12 29.696 16.384 40.96L470.016 742.4c11.264 12.288 25.6 18.432 41.984 19.456 16.384 1.024 31.744-5.12 44.032-15.36l2.048-3.072L931.84 338.94399999999996c11.264-12.288 16.384-27.648 15.36-44.032 0-16.384-7.168-31.744-19.456-41.984-11.264-10.24-25.6-16.384-40.96-16.384H737.28V-66.55999999999995c0-16.384-6.144-31.744-17.408-43.008-12.288-12.288-27.648-18.432-44.032-18.432z m-302.08 76.8h286.72V312.32000000000005h191.488l-337.92 367.616L177.152 312.32000000000005h196.608v-363.52z m0 0"  horiz-adv-x="1024" />

    
    <glyph glyph-name="authentication" unicode="&#59414;" d="M1024 307.20000000000005c-38.912 49.152-99.328 80.896-166.912 80.896-117.76 0-214.016-97.28-214.016-217.088 0-65.536 28.672-128 79.872-168.96H95.232c-53.248 0-95.232 43.008-95.232 96.256V673.792c0 53.248 43.008 96.256 95.232 96.256h833.536c52.224 0 95.232-43.008 95.232-96.256v-366.592zM586.752 622.592c-14.336 0-25.6-12.288-25.6-25.6 0-14.336 12.288-25.6 25.6-25.6h254.976c14.336 0 25.6 12.288 25.6 25.6 0 14.336-12.288 25.6-25.6 25.6H586.752z m270.336-620.544c-92.16 0-166.912 75.776-166.912 168.96s74.752 168.96 166.912 168.96S1024 264.192 1024 171.00800000000004c0-94.208-74.752-168.96-166.912-168.96z m-35.84 140.288l-33.792 34.816c-5.12 5.12-13.312 9.216-21.504 9.216s-16.384-3.072-21.504-9.216c-11.264-12.288-11.264-31.744 0-44.032l55.296-56.32c5.12-5.12 13.312-9.216 21.504-9.216s16.384 3.072 21.504 9.216l126.976 126.976c11.264 12.288 11.264 31.744 0 44.032-5.12 5.12-13.312 9.216-21.504 9.216s-16.384-3.072-21.504-9.216L821.248 142.336z m-338.944 50.176c18.432 0 30.72 17.408 25.6 34.816-20.48 68.608-72.704 122.88-141.312 145.408C419.84 402.432 447.488 465.92 431.104 527.36c-16.384 60.416-73.728 102.4-135.168 99.328-72.704-3.072-130.048-62.464-130.048-135.168 0-49.152 26.624-94.208 69.632-118.784-69.632-23.552-122.88-77.824-142.336-146.432-5.12-16.384 8.192-33.792 25.6-33.792h1.024c12.288 0 22.528 8.192 25.6 19.456 19.456 67.584 81.92 115.712 155.648 115.712 73.728 0 136.192-49.152 155.648-116.736 4.096-12.288 12.288-18.432 25.6-18.432zM301.056 409.6c-21.504 0-41.984 8.192-57.344 23.552-15.36 15.36-23.552 35.84-23.552 57.344 0 21.504 8.192 41.984 23.552 57.344 15.36 15.36 35.84 23.552 57.344 23.552 45.056 0 80.896-36.864 80.896-80.896 0-21.504-8.192-41.984-23.552-57.344-15.36-15.36-35.84-23.552-57.344-23.552z m286.72 97.28c-11.264 0-22.528-7.168-25.6-17.408-5.12-17.408 8.192-32.768 24.576-32.768h254.976c14.336 0 25.6 12.288 25.6 25.6 0 14.336-12.288 25.6-25.6 25.6l-253.952-1.024z"  horiz-adv-x="1024" />

    
    <glyph glyph-name="service" unicode="&#59403;" d="M549.888-128c-71.68 0-125.952 45.056-125.952 105.472 0 58.368 56.32 105.472 125.952 105.472 55.296 0 102.4-28.672 118.784-70.656h62.464c21.504 13.312 49.152 37.888 71.68 64.512 24.576 27.648 55.296 73.728 70.656 145.408-4.096-2.048-8.192-2.048-13.312-2.048-12.288 0-24.576 5.12-32.768 14.336-8.192 9.216-13.312 21.504-13.312 32.768V539.648c0 19.456 9.216 34.816 26.624 43.008C780.288 716.8 652.288 803.84 513.024 803.84 373.76 803.84 245.76 716.8 184.32 581.6320000000001c15.36-8.192 26.624-24.576 26.624-41.984v-271.36c1.024-11.264-4.096-23.552-13.312-32.768-9.216-9.216-20.48-14.336-32.768-14.336-94.208 0-162.816 77.824-162.816 184.32 0 66.56 27.648 123.904 76.8 156.672C135.168 758.784 314.368 896 513.024 896 713.728 896 890.88 756.736 946.176 557.056c48.128-32.768 76.8-90.112 76.8-156.672s-25.6-120.832-71.68-151.552c-10.24-107.52-54.272-178.176-90.112-218.112-39.936-45.056-83.968-72.704-94.208-77.824-1.024-1.024-2.048-1.024-3.072-2.048-6.144-4.096-12.288-7.168-25.6-7.168h-69.632c-19.456-45.056-64.512-71.68-118.784-71.68zM514.048 151.55200000000002c-52.224 0-102.4 19.456-142.336 54.272-18.432 16.384-20.48 46.08-4.096 64.512 8.192 10.24 21.504 15.36 33.792 15.36 11.264 0 22.528-4.096 30.72-11.264 22.528-19.456 51.2-30.72 80.896-30.72s58.368 11.264 80.896 30.72c8.192 7.168 19.456 11.264 30.72 11.264 13.312 0 25.6-5.12 33.792-15.36 16.384-18.432 15.36-48.128-4.096-64.512-36.864-35.84-87.04-54.272-140.288-54.272z"  horiz-adv-x="1024" />

    
    <glyph glyph-name="mobileLife" unicode="&#59400;" d="M877.568-128H147.456C66.56-128 0-61.440000000000055 0 19.456000000000017V748.544C0 829.44 66.56 896 147.456 896h729.088c81.92 0 147.456-66.56 147.456-147.456v-729.088c0-80.896-65.536-147.456-146.432-147.456zM147.456 817.152c-37.888 0-68.608-30.72-68.608-68.608v-729.088c0-37.888 30.72-68.608 68.608-68.608h729.088c37.888 0 68.608 30.72 68.608 68.608V748.544c0 37.888-30.72 68.608-68.608 68.608H147.456zM512 379.904c-138.24 0-262.144 87.04-309.248 218.112-11.264 31.744 5.12 66.56 36.864 77.824 31.744 11.264 66.56-5.12 77.824-36.864 29.696-81.92 107.52-137.216 194.56-137.216s164.864 55.296 194.56 137.216c11.264 31.744 46.08 48.128 77.824 36.864 31.744-11.264 48.128-46.08 36.864-77.824C775.168 466.944 650.24 379.904 512 379.904z"  horiz-adv-x="1024" />

    
    <glyph glyph-name="help" unicode="&#59399;" d="M512 896C229.376 896 0 666.624 0 384s229.376-512 512-512 512 229.376 512 512S794.624 896 512 896z m0-943.104C273.408-47.10400000000004 80.896 145.40800000000002 80.896 384S273.408 815.104 512 815.104 943.104 621.568 943.104 384c0-238.592-192.512-431.104-431.104-431.104zM502.784 207.87199999999996c-40.96 0-72.704-27.648-72.704-70.656s30.72-70.656 72.704-70.656 73.728 28.672 73.728 70.656-32.768 70.656-73.728 70.656zM518.144 687.104c-76.8 0-134.144-35.84-181.248-87.04l53.248-49.152c36.864 39.936 74.752 59.392 116.736 59.392 59.392 0 89.088-33.792 89.088-82.944 0-88.064-157.696-121.856-136.192-254.976H542.72c-17.408 118.784 143.36 140.288 143.36 263.168 0 96.256-68.608 151.552-167.936 151.552z"  horiz-adv-x="1024" />

    
    <glyph glyph-name="translate" unicode="&#59396;" d="M512 834.56c248.832 0 450.56-202.752 450.56-450.56S760.832-66.55999999999995 512-66.55999999999995 61.44 135.168 61.44 384 263.168 834.56 512 834.56m0 61.44C229.376 896 0 666.624 0 384s229.376-512 512-512 512 229.376 512 512S794.624 896 512 896zM544.768 106.49599999999998V214.01599999999996H389.12c1.024-7.168 1.024-14.336 2.048-22.528l1.024-5.12-5.12-3.072c-36.864-22.528-67.584-44.032-91.136-63.488l-7.168-6.144-35.84 50.176 6.144 5.12c11.264 10.24 16.384 23.552 16.384 43.008V423.936h-68.608v58.368h129.024v-263.168c11.264 8.192 24.576 17.408 37.888 27.648l10.24 7.168v16.384h160.768v51.2H407.552v55.296h137.216V435.2h60.416v-59.392h151.552v-55.296H605.184v-51.2h177.152v-55.296H605.184v-107.52h-60.416zM381.952 398.336c-7.168 14.336-14.336 27.648-23.552 40.96l-7.168 11.264 13.312 2.048c57.344 8.192 108.544 21.504 152.576 38.912-35.84 28.672-63.488 62.464-81.92 102.4h-41.984v55.296h353.28v-49.152l-1.024-2.048c-24.576-40.96-60.416-77.824-107.52-108.544 39.936-15.36 86.016-25.6 139.264-30.72l13.312-1.024-7.168-11.264c-8.192-14.336-16.384-28.672-23.552-43.008l-3.072-6.144-6.144 1.024c-68.608 11.264-128 30.72-176.128 56.32-51.2-24.576-112.64-45.056-182.272-61.44l-7.168-2.048-3.072 7.168z m118.784 195.584c19.456-28.672 45.056-54.272 76.8-73.728 35.84 20.48 66.56 45.056 92.16 73.728H500.736z m-178.176-68.608c-25.6 31.744-53.248 64.512-82.944 96.256l-6.144 7.168 48.128 37.888 5.12-5.12c30.72-30.72 60.416-61.44 88.064-92.16l6.144-7.168-53.248-44.032-5.12 7.168z"  horiz-adv-x="1024" />

    
    <glyph glyph-name="switch" unicode="&#59395;" d="M978.057827 292.626122H42.879362c-3.062812 0-5.104686 0-8.167498-1.020938-2.041874 0-3.062812-1.020937-3.062811-1.020937-2.041874 0-3.062812-1.020937-4.083749-2.041874-2.041874-1.020937-3.062812-2.041874-4.083749-3.062812-1.020937-1.020937-3.062812-1.020937-3.062811-2.041874-3.062812-2.041874-4.083749-4.083749-6.125623-5.104686-2.041874-2.041874-3.062812-5.104686-5.104686-6.125623-1.020937-1.020937-1.020937-3.062812-2.041875-4.083749-1.020937-2.041874-2.041874-3.062812-2.041874-5.104686-1.020937-2.041874-1.020937-3.062812-2.041874-5.104686 0-1.020937-1.020937-3.062812-1.020938-4.083749-1.020937-5.104686-1.020937-12.251246 0-18.376869 0-1.020937 1.020937-3.062812 1.020938-4.083749 1.020937-2.041874 1.020937-3.062812 2.041874-5.104686s2.041874-3.062812 2.041874-5.104686c1.020937-1.020937 1.020937-3.062812 2.041875-4.083748 2.041874-3.062812 3.062812-5.104686 5.104686-6.125623l298.113659-324.658026c8.167498-9.188435 19.397807-14.293121 29.607178-14.293121s22.460618 5.104686 29.607179 14.293121c17.355932 18.376869 17.355932 46.963111 0 66.360917l-225.627119 245.024925h833.084746c23.481555 0 42.879362 20.418744 42.879362 46.963111-1.020937 27.565304-19.397807 47.984048-43.900299 47.984048zM42.879362 478.43669h936.199402c3.062812 0 6.125623 0 8.167497 1.020937 1.020937 0 2.041874 1.020937 3.062812 1.020937 2.041874 0 3.062812 1.020937 4.083749 2.041875 2.041874 1.020937 2.041874 2.041874 4.083748 2.041874 1.020937 1.020937 3.062812 1.020937 3.062812 2.041874 3.062812 2.041874 4.083749 4.083749 6.125623 5.104686 2.041874 2.041874 3.062812 5.104686 5.104686 6.125624 1.020937 1.020937 1.020937 3.062812 2.041874 4.083748 1.020937 2.041874 2.041874 3.062812 2.041875 5.104686 1.020937 2.041874 1.020937 3.062812 2.041874 5.104686 0 1.020937 1.020937 3.062812 1.020937 4.083749 1.020937 5.104686 1.020937 12.251246 0 18.376869 0 1.020937-1.020937 3.062812-1.020937 4.083749-1.020937 2.041874-1.020937 4.083749-2.041874 5.104686-1.020937 2.041874-2.041874 3.062812-2.041875 5.104686-1.020937 1.020937-1.020937 3.062812-2.041874 4.083749-2.041874 3.062812-3.062812 5.104686-5.104686 6.125623L710.572283 881.706879c-17.355932 18.376869-43.900299 18.376869-60.235294 0C632.981057 863.33001 632.981057 834.743769 650.336989 816.366899l225.627119-244.003988H42.879362c-23.481555 0-42.879362-20.418744-42.879362-46.96311 0-26.544367 18.376869-46.963111 42.879362-46.963111z"  horiz-adv-x="1025" />

    
    <glyph glyph-name="articleExpress" unicode="&#59393;" d="M995.328 500.736H793.6V835.5840000000001c0 17.408-13.312 30.72-30.72 30.72H32.768c-17.408 0-30.72-13.312-30.72-30.72v-768C2.048-23.55200000000002 75.776-97.27999999999997 166.912-97.27999999999997H860.16c91.136 0 164.864 73.728 164.864 164.864V470.016c1.024 17.408-12.288 30.72-29.696 30.72zM167.936-36.86400000000003c-57.344 0-103.424 46.08-103.424 103.424V803.84h668.672v-742.4c0-41.984 12.288-74.752 29.696-99.328H167.936z m796.672 104.448c0-56.32-45.056-102.4-100.352-103.424-13.312 3.072-70.656 23.552-70.656 98.304V439.296h171.008v-371.712zM172.032 451.584h443.392V394.24H172.032zM172.032 302.08000000000004h443.392v-57.344H172.032zM172.032 153.60000000000002h443.392v-57.344H172.032zM244.736 567.296V712.704H215.04V629.76c0-10.24 0-16.384 1.024-20.48-1.024 2.048-3.072 5.12-7.168 11.264L149.504 711.6800000000001h-33.792v-145.408h29.696V650.24c0 10.24 0 18.432-1.024 23.552 1.024-3.072 4.096-7.168 7.168-12.288l61.44-94.208h31.744zM364.544 592.896h-55.296v34.816h48.128v25.6h-48.128v33.792h51.2v25.6h-81.92v-145.408h86.016zM451.584 567.296l25.6 94.208c1.024 4.096 2.048 9.216 3.072 16.384 0-5.12 1.024-11.264 2.048-16.384l24.576-94.208h34.816l38.912 145.408h-31.744l-21.504-98.304c-1.024-5.12-2.048-10.24-2.048-16.384-1.024 6.144-1.024 11.264-2.048 15.36l-24.576 99.328h-32.768l-26.624-98.304c-2.048-6.144-3.072-11.264-3.072-16.384h-1.024c0 6.144-1.024 12.288-2.048 16.384l-21.504 98.304h-33.792l38.912-145.408h34.816zM652.288 652.288c-12.288 5.12-20.48 9.216-23.552 13.312-3.072 3.072-5.12 6.144-5.12 10.24 0 5.12 2.048 8.192 7.168 11.264 4.096 3.072 10.24 4.096 18.432 4.096 13.312 0 24.576-3.072 33.792-10.24v28.672c-9.216 4.096-21.504 5.12-35.84 5.12-17.408 0-30.72-4.096-40.96-11.264-10.24-7.168-15.36-18.432-15.36-31.744 0-18.432 11.264-32.768 33.792-41.984 14.336-6.144 23.552-10.24 26.624-14.336 3.072-3.072 5.12-7.168 5.12-11.264 0-4.096-2.048-8.192-6.144-11.264-4.096-3.072-10.24-4.096-19.456-4.096-15.36 0-27.648 5.12-39.936 14.336v-30.72c10.24-5.12 24.576-8.192 40.96-8.192 18.432 0 31.744 4.096 41.984 11.264 10.24 7.168 14.336 18.432 14.336 31.744 0 9.216-3.072 17.408-8.192 24.576-4.096 7.168-13.312 14.336-27.648 20.48z"  horiz-adv-x="1025" />

    
    <glyph glyph-name="clouddoc" unicode="&#59392;" d="M346.112 495.616h379.904c18.432 0 32.768 15.36 32.768 32.768 0 18.432-14.336 32.768-32.768 32.768H346.112c-18.432 0-32.768-15.36-32.768-32.768 0-17.408 14.336-32.768 32.768-32.768z m0 142.336h379.904c18.432 0 32.768 15.36 32.768 32.768 0 18.432-14.336 32.768-32.768 32.768H346.112c-18.432 0-32.768-15.36-32.768-32.768 0-18.432 14.336-32.768 32.768-32.768z m140.288-464.896c-12.288 70.656-70.656 123.904-141.312 123.904s-129.024-53.248-141.312-123.904c-74.752-6.144-133.12-70.656-133.12-150.528 0-82.944 64.512-150.528 144.384-150.528h262.144c79.872 0 144.384 67.584 144.384 150.528-2.048 79.872-60.416 144.384-135.168 150.528zM831.488 896H240.64c-67.584 0-121.856-57.344-121.856-128v-521.216c6.144 3.072 13.312 6.144 19.456 8.192 13.312 33.792 32.768 62.464 57.344 86.016V743.424c0 46.08 36.864 82.944 82.944 82.944h516.096c46.08 0 82.944-36.864 82.944-82.944v-714.752c0-46.08-36.864-82.944-82.944-82.944h-96.256c-10.24-27.648-25.6-52.224-44.032-73.728h178.176c67.584 0 121.856 57.344 121.856 128v768c0 70.656-55.296 128-122.88 128zM346.112 354.304h379.904c18.432 0 32.768 15.36 32.768 32.768 0 18.432-14.336 32.768-32.768 32.768H346.112c-18.432 0-32.768-15.36-32.768-32.768 0-17.408 14.336-32.768 32.768-32.768z m379.904-75.776H580.608c-18.432 0-32.768-15.36-32.768-32.768 0-18.432 14.336-32.768 32.768-32.768h145.408c18.432 0 32.768 15.36 32.768 32.768 0 18.432-14.336 32.768-32.768 32.768z"  horiz-adv-x="1024" />

    
    <glyph glyph-name="doctorHelp" unicode="&#59387;" d="M970.105263 626.526316H781.473684V788.210526a107.789474 107.789474 0 0 1-107.789473 107.789474h-269.473685a107.789474 107.789474 0 0 1-107.789473-107.789474v-161.68421H107.789474A107.789474 107.789474 0 0 1 0 518.736842v-538.947368a107.789474 107.789474 0 0 1 107.789474-107.789474h862.315789a107.789474 107.789474 0 0 1 107.789474 107.789474V518.736842a107.789474 107.789474 0 0 1-107.789474 107.789474zM377.263158 761.263158a53.894737 53.894737 0 0 0 53.894737 53.894737h215.578947a53.894737 53.894737 0 0 0 53.894737-53.894737V626.526316H377.263158z m619.789474-754.526316a53.894737 53.894737 0 0 0-53.894737-53.894737h-808.421053a53.894737 53.894737 0 0 0-53.894737 53.894737v485.052632a53.894737 53.894737 0 0 0 53.894737 53.894737h808.421053a53.894737 53.894737 0 0 0 53.894737-53.894737zM700.631579 289.684211H579.368421v118.568421c0 16.168421-18.108632 29.210947-40.421053 29.210947s-40.421053-13.042526-40.421052-29.210947v-118.568421H377.263158a26.947368 26.947368 0 0 1-26.947369-26.947369v-26.947368a26.947368 26.947368 0 0 1 26.947369-26.947369h121.263158v-118.568421c0-16.168421 18.108632-29.210947 40.421052-29.210947s40.421053 13.042526 40.421053 29.210947v118.568421H700.631579a26.947368 26.947368 0 0 1 26.947368 26.947369v26.947368a26.947368 26.947368 0 0 1-26.947368 26.947369z"  horiz-adv-x="1077" />

    
    <glyph glyph-name="fold" unicode="&#59385;" d="M512.090316-128C794.959252-128 1024.180632 101.22137899999996 1024.180632 384.090316 1024 666.7786209999999 794.778621 896 512.090316 896S0 666.7786209999999 0 383.90968399999997C0 101.22137899999996 229.221379-128 512.090316-128zM273.476098 291.606985l204.1136 204.113601c9.392838 9.57347 21.856412 14.269889 34.319986 14.269889s24.927148-4.696419 34.319986-14.269889l204.1136-204.113601c7.767155-7.767155 7.767155-20.230729 0-27.817251s-20.230729-7.767155-27.817251 0L518.412418 467.903334c-3.61263 3.61263-9.392838 3.61263-13.005468 0l-204.1136-204.1136c-7.767155-7.767155-20.230729-7.767155-27.817252 0-7.586523 7.586523-7.586523 20.050097 0 27.817251z"  horiz-adv-x="1024" />

    
    <glyph glyph-name="unfold" unicode="&#59386;" d="M512.090316 896C229.221379 896 0 666.7786209999999 0 383.90968399999997 0 101.22137899999996 229.221379-128 512.090316-128S1024 101.22137899999996 1024 383.90968399999997C1024 666.7786209999999 794.778621 896 512.090316 896z m238.433586-419.606985l-204.1136-204.113601c-9.392838-9.57347-21.856412-14.269889-34.319986-14.269889s-24.927148 4.696419-34.319986 14.269889l-204.1136 204.113601c-7.767155 7.767155-7.767155 20.230729 0 27.817251 7.767155 7.767155 20.230729 7.767155 27.817251 0l204.113601-204.1136c3.61263-3.61263 9.392838-3.61263 13.005468 0l204.1136 204.1136c7.767155 7.767155 20.230729 7.767155 27.817252 0 7.767155-7.767155 7.767155-20.230729 0-27.817251z"  horiz-adv-x="1024" />

    
    <glyph glyph-name="hottag" unicode="&#59381;" d="M541.696 520.192c-50.176 0-81.92-43.008-81.92-113.664s32.768-115.712 81.92-115.712c50.176 0 82.944 45.056 82.944 115.712s-32.768 113.664-82.944 113.664z m437.248 108.544H45.056c-25.6 0-45.056-20.48-45.056-45.056v-523.264l113.664 113.664h864.256c25.6 0 45.056 20.48 45.056 45.056V582.656c1.024 25.6-19.456 46.08-44.032 46.08zM348.16 253.952h-47.104V391.168H172.032v-137.216h-47.104V556.0319999999999h47.104v-122.88h129.024v122.88H348.16v-302.08z m193.536-5.12c-77.824 0-131.072 60.416-131.072 157.696s53.248 155.648 131.072 155.648c77.824 0 131.072-58.368 131.072-155.648s-53.248-157.696-131.072-157.696z m392.192 267.264h-89.088v-262.144h-47.104V516.096h-88.064v39.936h225.28v-39.936z"  horiz-adv-x="1024" />

    
    <glyph glyph-name="club139" unicode="&#59379;" d="M549.888 812.032h34.816v-34.816c0-8.192 7.168-15.36 15.36-15.36h3.072c8.192 0 15.36 7.168 15.36 15.36V812.032h34.816c8.192 0 15.36 7.168 15.36 15.36v3.072c0 8.192-7.168 15.36-15.36 15.36h-34.816V880.64c0 8.192-7.168 15.36-15.36 15.36h-3.072c-8.192 0-15.36-7.168-15.36-15.36v-34.816h-34.816c-8.192 0-15.36-7.168-15.36-15.36v-3.072c0-8.192 6.144-15.36 15.36-15.36zM422.912 599.04l23.552-30.72c3.072-4.096 7.168-6.144 12.288-6.144 3.072 0 6.144 1.024 9.216 3.072 7.168 5.12 8.192 14.336 3.072 21.504l-23.552 30.72c-5.12 7.168-14.336 8.192-21.504 3.072-6.144-5.12-8.192-14.336-3.072-21.504zM246.784 703.488l52.224 43.008 64.512-18.432-25.6 62.464 39.936 50.176-63.488-2.048L270.336 887.808l-21.504-62.464-59.392-22.528 56.32-30.72 1.024-68.608z m30.72 111.616l4.096 13.312 9.216-10.24c5.12-6.144 13.312-9.216 21.504-10.24-5.12-8.192-7.168-19.456-3.072-28.672l2.048-5.12-4.096 1.024c-3.072 1.024-6.144 1.024-8.192 1.024-7.168 0-14.336-2.048-19.456-7.168l-3.072-3.072v5.12c0 10.24-5.12 19.456-14.336 24.576 7.168 5.12 12.288 11.264 15.36 19.456zM168.96 657.408c18.432 0 33.792 15.36 33.792 33.792 0 18.432-15.36 33.792-33.792 33.792-18.432 0-33.792-15.36-33.792-33.792 0-18.432 15.36-33.792 33.792-33.792zM715.776 728.064c18.432 0 33.792 15.36 33.792 33.792s-15.36 33.792-33.792 33.792c-18.432 0-33.792-15.36-33.792-33.792s15.36-33.792 33.792-33.792zM600.064 207.87199999999996c-12.288 4.096-25.6-2.048-29.696-14.336 0 0-12.288-34.816-60.416-34.816h-1.024c-47.104 0-60.416 31.744-62.464 34.816-4.096 12.288-17.408 18.432-29.696 14.336-12.288-4.096-18.432-17.408-14.336-29.696 1.024-3.072 23.552-65.536 105.472-65.536h1.024c80.896 0 103.424 63.488 104.448 65.536 5.12 12.288-1.024 25.6-13.312 29.696zM987.136 672.768c-40.96 49.152-99.328 73.728-131.072 51.2-19.456-13.312-24.576-38.912-24.576-57.344-52.224 49.152-91.136 13.312-61.44-15.36 0 0 44.032-35.84 84.992-61.44-13.312-10.24-23.552-23.552-30.72-37.888-5.12-11.264-17.408-26.624-32.768-43.008-6.144 2.048-13.312 4.096-19.456 5.12L644.096 641.024l24.576 31.744c5.12 7.168 4.096 16.384-3.072 21.504s-16.384 4.096-21.504-3.072l-22.528-28.672-69.632 70.656c-17.408 17.408-40.96 26.624-65.536 26.624s-48.128-9.216-65.536-26.624L348.16 660.48c-29.696 24.576-56.32 33.792-58.368 34.816-8.192 3.072-17.408 1.024-23.552-5.12-2.048-2.048-52.224-51.2-88.064-97.28-4.096-5.12-6.144-13.312-4.096-19.456 2.048-7.168 6.144-12.288 13.312-15.36 14.336-6.144 25.6-14.336 34.816-22.528l-22.528-22.528c-23.552-7.168-45.056-21.504-60.416-39.936-21.504 31.744-52.224 47.104-80.896 39.936-29.696-8.192-47.104-35.84-47.104-75.776 0-55.296 44.032-126.976 102.4-171.008v-169.984c0-66.56 54.272-119.808 119.808-119.808h18.432v-13.312c0-48.128 38.912-88.064 88.064-88.064 48.128 0 88.064 39.936 88.064 88.064v13.312h142.336v-13.312c0-48.128 38.912-88.064 88.064-88.064 48.128 0 88.064 39.936 88.064 88.064v13.312h5.12c66.56 0 119.808 54.272 119.808 119.808V317.44000000000005v2.048c46.08 60.416 89.088 158.72 87.04 219.136 9.216 1.024 19.456 4.096 28.672 9.216 23.552 16.384 43.008 74.752 0 124.928z m-532.48 28.672c17.408 17.408 48.128 17.408 65.536 0l74.752-74.752-50.176-64.512c-5.12-7.168-4.096-16.384 3.072-21.504 3.072-2.048 6.144-3.072 9.216-3.072 4.096 0 9.216 2.048 12.288 6.144l47.104 61.44 88.064-88.064H435.2c-11.264 49.152-32.768 84.992-54.272 111.616l73.728 72.704z m-165.888-56.32c24.576-12.288 76.8-48.128 99.328-129.024h-97.28c-9.216 20.48-26.624 47.104-58.368 68.608 20.48 23.552 43.008 47.104 56.32 60.416z m77.824-685.056c0-14.336-12.288-26.624-26.624-26.624-14.336 0-26.624 12.288-26.624 26.624v13.312h52.224v-13.312z m318.464 0c0-14.336-12.288-26.624-26.624-26.624s-26.624 12.288-26.624 26.624v13.312h52.224v-13.312z m131.072 390.144c-6.144-7.168-8.192-17.408-6.144-25.6 0-2.048-1.024-4.096-1.024-7.168v-223.232c0-32.768-26.624-58.368-58.368-58.368H233.472c-32.768 0-58.368 26.624-58.368 58.368V272.384v3.072c1.024 11.264-3.072 22.528-13.312 29.696-52.224 33.792-88.064 95.232-88.064 130.048 0 8.192 1.024 13.312 2.048 15.36 3.072-2.048 10.24-7.168 17.408-19.456 8.192-14.336 19.456-27.648 32.768-37.888 13.312-10.24 32.768-8.192 43.008 5.12 3.072 4.096 5.12 7.168 5.12 12.288 2.048 2.048 4.096 5.12 5.12 8.192 9.216 21.504 30.72 35.84 54.272 35.84h517.12c8.192 0 16.384-2.048 23.552-5.12 4.096-2.048 7.168-2.048 11.264-2.048 11.264-6.144 26.624-5.12 35.84 5.12 27.648 27.648 47.104 52.224 57.344 72.704 4.096 8.192 11.264 15.36 16.384 18.432 0-1.024 0-2.048 1.024-4.096 5.12-35.84-31.744-130.048-79.872-189.44zM674.816 318.46400000000006h-68.608c-8.192 0-15.36-7.168-15.36-15.36s7.168-15.36 15.36-15.36h68.608c8.192 0 15.36 7.168 15.36 15.36s-6.144 15.36-15.36 15.36zM358.4 338.94399999999996c-21.504 0-38.912-17.408-38.912-38.912 0-21.504 17.408-38.912 38.912-38.912 21.504 0 38.912 17.408 38.912 38.912 0 21.504-17.408 38.912-38.912 38.912z"  horiz-adv-x="1024" />

    
    <glyph glyph-name="alipay" unicode="&#59377;" d="M1024 165.88800000000003l-373.248 113.664C711.68 383.48800000000006 737.28 476.672 737.28 477.184v41.984h-225.28V602.1120000000001h266.752v41.472H512V768H409.088v-124.416H143.36v-41.472h266.24v-82.432H184.32v-41.984h429.056C605.184 394.24 552.96 311.808 552.96 311.808S420.864 373.76 245.76 373.76 0 267.264 0 207.87199999999996C0 147.96799999999996 13.824 0 225.28 0c169.984 0 290.304 94.208 370.688 198.656L1024 0v165.888zM225.28 62.464000000000055c-176.128 0-184.32 93.184-184.32 145.408 0 92.672 118.272 124.416 204.8 124.416s245.76-82.944 245.76-82.944-90.112-186.88-266.24-186.88z"  horiz-adv-x="1024" />

    
    <glyph glyph-name="wechatpay" unicode="&#59378;" d="M372.224 264.192c-4.608-2.56-9.728-3.584-15.36-3.584-12.8 0-24.064 7.168-29.696 17.408l-2.048 5.12-93.184 204.288c-1.024 2.048-1.536 4.608-1.536 7.168 0 9.216 7.68 16.896 16.896 16.896 3.584 0 7.168-1.024 10.24-3.584L367.616 430.08c8.192-5.12 17.408-8.192 28.16-8.192 6.144 0 12.288 1.024 17.408 3.072l517.12 230.4c-92.672 109.056-245.248 180.736-418.304 180.736C229.376 835.5840000000001 0 644.608 0 409.088c0-128.512 69.12-244.224 177.152-322.56 8.704-6.144 14.336-16.384 14.336-27.648 0-3.584-1.024-7.168-2.048-10.752-8.704-32.256-22.528-83.456-23.04-86.016-1.024-4.096-2.56-8.192-2.56-12.288 0-9.216 7.68-16.896 16.896-16.896 3.584 0 6.656 1.536 9.728 3.072L302.592 0c8.192 5.12 17.408 7.68 27.136 7.68 5.12 0 10.24-1.024 14.848-2.048 52.224-14.848 108.544-23.552 166.912-23.552 282.624 0 512 190.976 512 426.496 0 71.168-20.992 138.752-58.368 197.632L376.32 266.24l-4.096-2.048z"  horiz-adv-x="1024" />

    
    <glyph glyph-name="m139" unicode="&#59376;" d="M1005.568 206.84799999999996c-6.144-12.288-14.336-22.528-24.576-31.744-11.264-9.216-22.528-15.36-35.84-18.432-13.312-3.072-23.552-5.12-32.768-6.144-10.24-2.048-18.432-2.048-26.624-2.048H769.024c-10.24 0-19.456 1.024-28.672 3.072-8.192 2.048-15.36 4.096-22.528 7.168-6.144 2.048-10.24 4.096-13.312 6.144-2.048 1.024-6.144 4.096-11.264 9.216-5.12 5.12-9.216 8.192-12.288 11.264-3.072 3.072-6.144 7.168-10.24 14.336-4.096 6.144-8.192 15.36-12.288 25.6-5.12 10.24-7.168 30.72-6.144 60.416v23.552h106.496v-24.576c0-9.216 2.048-16.384 7.168-22.528 4.096-5.12 10.24-9.216 18.432-11.264 8.192-2.048 17.408-3.072 27.648-3.072h38.912c14.336 0 25.6 2.048 32.768 6.144 7.168 4.096 13.312 8.192 16.384 13.312 3.072 5.12 6.144 10.24 6.144 16.384 1.024 6.144 1.024 14.336 1.024 23.552v45.056c-8.192-6.144-16.384-10.24-23.552-13.312-7.168-3.072-18.432-4.096-33.792-4.096h-68.608c-28.672 0-47.104 1.024-55.296 2.048-8.192 1.024-16.384 4.096-24.576 8.192-8.192 4.096-17.408 10.24-25.6 19.456-8.192 8.192-14.336 18.432-17.408 29.696 1.024 10.24-1.024 20.48-3.072 31.744-1.024 11.264-2.048 24.576-2.048 40.96s1.024 31.744 2.048 47.104c2.048 18.432 4.096 32.768 9.216 44.032 4.096 11.264 10.24 20.48 17.408 29.696 7.168 8.192 15.36 15.36 24.576 19.456 9.216 4.096 17.408 8.192 26.624 10.24 9.216 2.048 18.432 3.072 28.672 3.072h124.928c23.552 0 38.912-1.024 46.08-2.048 7.168-1.024 16.384-4.096 26.624-9.216s18.432-10.24 25.6-16.384c7.168-6.144 13.312-14.336 18.432-22.528 6.144-9.216 9.216-16.384 12.288-23.552 2.048-6.144 4.096-21.504 6.144-44.032 2.048-22.528 3.072-40.96 3.072-53.248v-150.528c0-16.384-2.048-32.768-5.12-50.176-4.096-16.384-9.216-30.72-14.336-41.984zM909.312 496.64c-1.024 8.192-4.096 14.336-8.192 19.456s-12.288 8.192-24.576 8.192h-60.416c-18.432 0-29.696 0-32.768-2.048-3.072-1.024-7.168-4.096-10.24-8.192-3.072-4.096-5.12-8.192-6.144-13.312-1.024-4.096-2.048-11.264-2.048-21.504-1.024-10.24 0-17.408 1.024-21.504 1.024-7.168 4.096-14.336 10.24-20.48 5.12-6.144 16.384-9.216 33.792-9.216h67.584c11.264 0 19.456 3.072 24.576 8.192 5.12 6.144 8.192 15.36 8.192 28.672 0 16.384-1.024 25.6-1.024 31.744zM624.64 247.808c-1.024-8.192-3.072-17.408-7.168-27.648-3.072-10.24-7.168-19.456-12.288-25.6-4.096-6.144-11.264-13.312-20.48-21.504-9.216-7.168-17.408-12.288-22.528-14.336-6.144-2.048-15.36-4.096-30.72-6.144-14.336-2.048-23.552-3.072-27.648-3.072h-102.4l-35.84-1.024c-12.288 0-24.576 2.048-36.864 5.12-12.288 3.072-23.552 8.192-33.792 14.336-10.24 7.168-19.456 17.408-26.624 32.768-8.192 14.336-12.288 28.672-12.288 40.96-1.024 13.312-1.024 24.576-1.024 34.816v20.48h111.616v-26.624c0-8.192 2.048-13.312 5.12-16.384 3.072-3.072 6.144-5.12 10.24-6.144 4.096-1.024 11.264-1.024 22.528-1.024H460.8c13.312 0 23.552 2.048 31.744 7.168 7.168 5.12 12.288 13.312 13.312 25.6 1.024 12.288 1.024 24.576-1.024 36.864-2.048 9.216-5.12 15.36-9.216 20.48-4.096 4.096-10.24 6.144-17.408 6.144H331.776v92.16h123.904c5.12 0 12.288 1.024 19.456 2.048 8.192 2.048 13.312 4.096 16.384 6.144 3.072 2.048 6.144 6.144 8.192 10.24 2.048 4.096 3.072 13.312 3.072 25.6s-1.024 21.504-4.096 26.624c-3.072 6.144-8.192 11.264-13.312 13.312-5.12 2.048-13.312 4.096-22.528 4.096h-60.416c-14.336 0-24.576-2.048-29.696-6.144-5.12-4.096-9.216-7.168-10.24-9.216-1.024-2.048-2.048-8.192-2.048-19.456V465.92H254.976v11.264c0 2.048 0 8.192-1.024 18.432v28.672c1.024 21.504 5.12 37.888 12.288 49.152 7.168 12.288 15.36 20.48 22.528 25.6 8.192 5.12 17.408 9.216 27.648 14.336 10.24 4.096 26.624 6.144 48.128 6.144h152.576c8.192 0 18.432-1.024 30.72-4.096 12.288-3.072 24.576-8.192 35.84-15.36s19.456-17.408 25.6-31.744c6.144-14.336 10.24-26.624 11.264-37.888 1.024-11.264 2.048-24.576 2.048-38.912-1.024-16.384-2.048-31.744-5.12-44.032-3.072-12.288-6.144-21.504-11.264-25.6l-18.432-20.48c9.216-8.192 15.36-15.36 19.456-20.48 4.096-5.12 7.168-11.264 10.24-17.408 3.072-6.144 5.12-14.336 7.168-24.576 2.048-10.24 3.072-27.648 3.072-53.248-1.024-18.432-1.024-29.696-3.072-37.888zM64.512 522.24H0v98.304h196.608v-433.152L64.512 148.48000000000002V522.24z"  horiz-adv-x="1025" />

    
    <glyph glyph-name="insure" unicode="&#59374;" d="M512 896C229.376 896 0 666.624 0 384s229.376-512 512-512 512 229.376 512 512S794.624 896 512 896z m0-945.152c-238.592 0-433.152 194.56-433.152 433.152 0 238.592 194.56 433.152 433.152 433.152 238.592 0 433.152-194.56 433.152-433.152 0-238.592-194.56-433.152-433.152-433.152z m130.048 729.088L521.216 471.04 395.264 679.936 145.408 250.88 245.76 82.94399999999996l100.352 171.008-124.928-1.024 92.16 151.552 187.392-324.608 100.352 175.104-129.024-1.024 81.92 146.432 189.44-320.512 122.88 208.896-224.256 391.168z"  horiz-adv-x="1024" />

    
    <glyph glyph-name="selection" unicode="&#59375;" d="M514.048 352.256c-51.2 0-91.136 18.432-92.16 18.432-4.096 2.048-9.216 3.072-14.336 3.072-11.264 0-22.528-6.144-27.648-15.36-4.096-7.168-5.12-15.36-3.072-22.528 2.048-8.192 8.192-14.336 16.384-18.432 2.048-1.024 54.272-25.6 120.832-25.6 66.56 0 116.736 19.456 118.784 20.48 8.192 3.072 14.336 9.216 17.408 17.408 3.072 7.168 2.048 15.36-1.024 22.528-5.12 10.24-16.384 17.408-28.672 17.408-4.096 0-8.192-1.024-12.288-2.048-1.024 0-41.984-15.36-94.208-15.36zM381.952 492.544L252.928 334.84799999999996l261.12-251.904 261.12 251.904L645.12 492.544H381.952z m132.096-322.56L337.92 338.94399999999996l74.752 91.136h202.752l74.752-91.136-176.128-168.96zM902.144 522.24c-4.096 86.016-66.56 156.672-148.48 169.984C731.136 808.96 628.736 896 512 896S292.864 808.96 270.336 692.2239999999999c-81.92-12.288-145.408-83.968-148.48-169.984L95.232 59.39200000000005c-2.048-49.152 15.36-96.256 48.128-132.096 33.792-35.84 78.848-55.296 126.976-55.296h482.304c48.128 0 93.184 19.456 126.976 55.296 33.792 35.84 50.176 82.944 48.128 133.12l-25.6 461.824zM512 831.488c82.944 0 154.624-57.344 176.128-138.24H335.872C357.376 774.144 429.056 831.488 512 831.488z m320.512-861.184c-21.504-22.528-49.152-33.792-79.872-33.792h-481.28c-29.696 0-58.368 12.288-79.872 33.792-22.528 23.552-33.792 53.248-31.744 86.016l25.6 462.848c3.072 61.44 51.2 110.592 111.616 110.592h430.08c60.416 0 109.568-48.128 111.616-110.592L864.256 56.32000000000005c2.048-31.744-9.216-62.464-31.744-86.016z"  horiz-adv-x="1024" />

    
    <glyph glyph-name="adtagchina" unicode="&#59373;" d="M935.936 658.432H88.064C38.912 658.432 0 619.52 0 570.3679999999999v-379.904c0-48.128 38.912-88.064 88.064-88.064h848.896c48.128 0 88.064 38.912 88.064 88.064V570.3679999999999c-1.024 49.152-39.936 88.064-89.088 88.064z m73.728-467.968c0-39.936-32.768-72.704-72.704-72.704H88.064c-39.936 0-72.704 32.768-72.704 72.704V570.3679999999999c0 39.936 32.768 72.704 72.704 72.704h848.896c39.936 0 72.704-32.768 72.704-72.704v-379.904zM380.928 484.352c-3.072 12.288-10.24 30.72-17.408 45.056l-21.504-4.096c6.144-14.336 13.312-31.744 16.384-44.032H237.568v-91.136c0-43.008-3.072-100.352-32.768-141.312 5.12-3.072 13.312-11.264 17.408-15.36 32.768 44.032 38.912 109.568 38.912 156.672v70.656h232.448v20.48H366.592l14.336 3.072zM691.2 462.848h99.328v19.456h-99.328v47.104h-22.528v-47.104h-69.632c6.144 12.288 11.264 25.6 16.384 38.912l-21.504 5.12c-12.288-35.84-32.768-72.704-56.32-96.256 5.12-3.072 15.36-8.192 19.456-11.264 10.24 12.288 21.504 27.648 30.72 44.032h80.896v-53.248H532.48v-19.456h281.6v19.456h-122.88v53.248zM572.416 233.47199999999998H593.92v18.432h159.744v-18.432h21.504v122.88H572.416v-122.88zM593.92 336.89599999999996h159.744V271.36H593.92v65.536z"  horiz-adv-x="1025" />

    
    <glyph glyph-name="receipt" unicode="&#59372;" d="M752.64 489.472H576.512c-16.384 0-29.696-14.336-29.696-32.768 0-18.432 13.312-32.768 29.696-32.768h176.128c16.384 0 29.696 14.336 29.696 32.768 0 17.408-13.312 32.768-29.696 32.768zM752.64 345.08799999999997H576.512c-16.384 0-29.696-14.336-29.696-32.768 0-18.432 13.312-32.768 29.696-32.768h176.128c16.384 0 29.696 14.336 29.696 32.768 0 17.408-13.312 32.768-29.696 32.768zM993.28 480.256c17.408 0 31.744 14.336 31.744 31.744V666.624c0 53.248-40.96 96.256-92.16 96.256h-839.68c-51.2 0-92.16-43.008-92.16-96.256v-154.624c0-17.408 14.336-31.744 31.744-31.744 48.128 0 88.064-43.008 88.064-96.256s-39.936-96.256-88.064-96.256c-17.408 0-31.744-14.336-31.744-31.744v-154.624c0-53.248 40.96-96.256 92.16-96.256h839.68c51.2 0 92.16 43.008 92.16 96.256V256c0 17.408-14.336 31.744-31.744 31.744-48.128 0-88.064 43.008-88.064 96.256s39.936 96.256 88.064 96.256z m-44.032-248.832v-122.88c0-16.384-12.288-30.72-27.648-30.72H104.448c-14.336 0-27.648 14.336-27.648 30.72v122.88C144.384 246.784 194.56 309.24800000000005 194.56 384c0 74.752-50.176 137.216-116.736 152.576v122.88c0 16.384 12.288 30.72 27.648 30.72h818.176c14.336 0 27.648-14.336 27.648-30.72v-122.88c-66.56-15.36-116.736-77.824-116.736-152.576-2.048-74.752 48.128-137.216 114.688-152.576zM436.224 515.072H304.128c-35.84 0-65.536-29.696-65.536-65.536v-131.072c0-35.84 29.696-65.536 65.536-65.536h131.072c35.84 0 65.536 29.696 65.536 65.536V449.536c1.024 35.84-28.672 65.536-64.512 65.536zM432.128 322.55999999999995h-122.88V445.44h123.904l-1.024-122.88z"  horiz-adv-x="1025" />

    
    <glyph glyph-name="signin" unicode="&#59371;" d="M493.885 246.16999999999996h-22.968a34.468 34.468 0 0 1-34.457-34.458v-22.968a34.468 34.468 0 0 1 34.457-34.448h22.968a34.468 34.468 0 0 1 34.458 34.448v22.968a34.468 34.468 0 0 1-34.458 34.458z m80.395 482.396H390.513v-68.915H574.28v68.915z m-45.937-310.108a34.458 34.458 0 0 1-34.458 34.447h-22.968a34.468 34.468 0 0 1-34.457-34.447v-22.969a34.468 34.468 0 0 1 34.457-34.457h22.968a34.468 34.468 0 0 1 34.458 34.457v22.969z m114.852 149.309h22.978a22.968 22.968 0 0 1 22.969 22.979V820.46a22.979 22.979 0 0 1-22.969 22.978h-22.978a22.968 22.968 0 0 1-22.968-22.978v-229.714a22.958 22.958 0 0 1 22.968-22.979z m252.682 0v-68.915h2.11a34.355 34.355 0 0 1 32.348-22.968 34.355 34.355 0 0 1 32.338 22.968h2.11v91.894c0 76.114-61.707 137.82-137.821 137.82h-91.894v-68.915h68.905a91.884 91.884 0 0 0 91.904-91.884zM264.172 246.16999999999996h-22.969a34.468 34.468 0 0 1-34.457-34.458v-22.968a34.458 34.458 0 0 1 34.457-34.448h22.969a34.458 34.458 0 0 1 34.457 34.448v22.968a34.468 34.468 0 0 1-34.457 34.458z m753.1 197.14l-16.25 16.24a22.948 22.948 0 0 1-32.482 0L757.381 248.39300000000003l-81.213 81.213a22.968 22.968 0 0 1-32.482 0l-16.271-16.24a22.999 22.999 0 0 1 0-32.482L741.13 167.178a22.968 22.968 0 0 1 32.482 0l243.66 243.65a22.968 22.968 0 0 1 0 32.482z m-810.526-24.852v-22.969a34.468 34.468 0 0 1 34.457-34.457h22.969a34.468 34.468 0 0 1 34.457 34.457v22.969a34.458 34.458 0 0 1-34.457 34.447h-22.969a34.458 34.458 0 0 1-34.457-34.447z m91.883 149.309h22.968a22.968 22.968 0 0 1 22.979 22.979V820.46a22.979 22.979 0 0 1-22.979 22.978H298.63a22.968 22.968 0 0 1-22.968-22.978v-229.714a22.958 22.958 0 0 1 22.968-22.979zM930.345 246.16999999999996a34.468 34.468 0 0 1-34.458-34.458c0-4.055 0.83-7.875 2.11-11.479h-2.11v-114.862a91.894 91.894 0 0 0-91.893-91.884H160.799a91.884 91.884 0 0 0-91.884 91.884V567.767a91.884 91.884 0 0 0 91.884 91.884h68.915v68.915H137.83C61.716 728.566 0 666.86 0 590.746v-528.343c0-76.125 61.716-137.83 137.83-137.83h689.142c76.114 0 137.82 61.705 137.82 137.83v137.83h-2.11c1.28 3.615 2.11 7.434 2.11 11.479a34.458 34.458 0 0 1-34.447 34.458z"  horiz-adv-x="1024" />

    
    <glyph glyph-name="cancelShare" unicode="&#59370;" d="M979.968 232.44799999999998c-20.48 20.48-52.224 20.48-72.704 0l-96.256-96.256-96.256 96.256c-20.48 20.48-52.224 20.48-72.704 0s-20.48-52.224 0-72.704l96.256-96.256-96.256-96.256c-20.48-20.48-20.48-52.224 0-72.704s52.224-20.48 72.704 0l96.256 96.256 96.256-96.256c20.48-20.48 52.224-20.48 72.704 0s20.48 52.224 0 72.704l-96.256 96.256 96.256 96.256c20.48 19.456 20.48 52.224 0 72.704zM427.008 361.472c0 20.48-4.096 39.936-10.24 58.368L655.36 549.8879999999999c38.912-39.936 94.208-65.536 156.672-65.536 117.76 0 212.992 91.136 212.992 203.776 0 112.64-95.232 203.776-212.992 203.776S599.04 800.768 599.04 688.1279999999999c0-20.48 4.096-39.936 10.24-58.368L370.688 498.688c-38.912 39.936-94.208 65.536-156.672 65.536C96.256 564.2239999999999 1.024 473.088 1.024 360.448c0-112.64 95.232-203.776 212.992-203.776 48.128 0 93.184 16.384 129.024 41.984l-1.024-2.048 175.104-95.232 41.984 81.92-155.648 84.992c14.336 28.672 23.552 60.416 23.552 93.184zM811.008 808.96c70.656 0 128-54.272 128-121.856 0-67.584-57.344-121.856-128-121.856S683.008 619.52 683.008 687.104c0 67.584 57.344 121.856 128 121.856zM214.016 239.61599999999999c-70.656 0-128 54.272-128 121.856 0 67.584 57.344 121.856 128 121.856s128-54.272 128-121.856c0-67.584-57.344-121.856-128-121.856z"  horiz-adv-x="1025" />

    
    <glyph glyph-name="refresh" unicode="&#59369;" d="M531.456 871.424v-81.92c226.304 0 409.6-183.296 409.6-409.6s-183.296-409.6-409.6-409.6-409.6 183.296-409.6 409.6c0 120.832 53.248 229.376 136.192 304.128V517.12c0-22.528 18.432-40.96 40.96-40.96s40.96 18.432 40.96 40.96V762.88c0 14.336-7.168 27.648-18.432 34.816-7.168 11.264-19.456 18.432-34.816 18.432H40.96c-22.528 0-40.96-18.432-40.96-40.96s18.432-40.96 40.96-40.96h150.528c-93.184-89.088-151.552-215.04-151.552-355.328C39.936 107.51999999999998 260.096-113.66399999999999 532.48-113.66399999999999c271.36 0 491.52 221.184 491.52 492.544S803.84 871.424 531.456 871.424z"  horiz-adv-x="1024" />

    
    <glyph glyph-name="pause" unicode="&#59367;" d="M640 620.544c-17.408 0-31.744-14.336-31.744-31.744v-406.528c0-17.408 14.336-31.744 31.744-31.744 17.408 0 31.744 14.336 31.744 31.744V587.7760000000001c0 18.432-14.336 32.768-31.744 32.768zM385.024 620.544c-17.408 0-31.744-14.336-31.744-31.744v-406.528c0-17.408 14.336-31.744 31.744-31.744 17.408 0 31.744 14.336 31.744 31.744V587.7760000000001c0 18.432-14.336 32.768-31.744 32.768zM874.496 746.496C774.144 845.824 643.072 896 512 896 380.928 896 249.856 845.824 149.504 746.496c-199.68-199.68-199.68-524.288 0-723.968C249.856-77.82399999999996 380.928-128 512-128c131.072 0 262.144 50.176 362.496 149.504 199.68 200.704 199.68 524.288 0 724.992zM829.44 67.58399999999995c-84.992-84.992-197.632-131.072-317.44-131.072s-232.448 47.104-317.44 131.072C110.592 151.55200000000002 63.488 264.192 63.488 384S109.568 616.448 194.56 700.4159999999999c84.992 84.992 197.632 131.072 317.44 131.072s232.448-47.104 317.44-131.072c84.992-84.992 131.072-196.608 131.072-316.416S913.408 151.55200000000002 829.44 67.58399999999995z"  horiz-adv-x="1024" />

    
    <glyph glyph-name="play" unicode="&#59368;" d="M688.128 432.128L501.76 574.4639999999999c-45.056 32.768-74.752 45.056-95.232 45.056-24.576 0-33.792-20.48-33.792-51.2v-368.64c0-31.744 12.288-50.176 37.888-50.176 21.504 0 52.224 14.336 91.136 45.056l186.368 142.336c34.816 26.624 34.816 68.608 0 95.232zM463.872 245.76l-1.024-1.024c-9.216-7.168-17.408-13.312-24.576-17.408V540.672c7.168-4.096 16.384-10.24 26.624-17.408L645.12 385.024 463.872 245.76zM874.496 746.496C774.144 845.824 643.072 896 512 896 380.928 896 249.856 845.824 149.504 746.496c-199.68-199.68-199.68-524.288 0-723.968C249.856-77.82399999999996 380.928-128 512-128c131.072 0 262.144 50.176 362.496 149.504 199.68 200.704 199.68 524.288 0 724.992zM829.44 67.58399999999995c-84.992-84.992-197.632-131.072-317.44-131.072s-232.448 47.104-317.44 131.072C110.592 151.55200000000002 63.488 264.192 63.488 384S109.568 616.448 194.56 700.4159999999999c84.992 84.992 197.632 131.072 317.44 131.072s232.448-47.104 317.44-131.072c84.992-84.992 131.072-196.608 131.072-316.416S913.408 151.55200000000002 829.44 67.58399999999995z"  horiz-adv-x="1024" />

    
    <glyph glyph-name="pendingstus" unicode="&#59366;" d="M162.994074 758.784C-60.237926 548.864-49.997926 202.75199999999995 168.114074 5.1200000000000045l-65.536-7.168c-22.528-2.048-37.888-22.528-35.84-44.032 2.048-22.528 22.528-37.888 44.032-35.84l160.768 17.408c22.528 2.048 37.888 22.528 35.84 44.032l-17.408 160.768c-2.048 22.528-22.528 37.888-44.032 35.84-22.528-2.048-37.888-22.528-35.84-44.032l6.144-62.464C45.234074 231.42399999999998 32.946074 504.832 199.858074 680.96 348.338074 838.656 599.218074 859.136 772.274074 728.064 969.906074 577.5360000000001 999.602074 294.91200000000003 841.906074 107.51999999999998c-91.136-109.568-224.256-161.792-355.328-153.6-21.504 1.024-39.936-14.336-41.984-34.816-3.072-23.552 14.336-44.032 37.888-46.08 155.648-9.216 314.368 52.224 422.912 181.248 194.56 231.424 148.48 584.704-110.592 756.736-196.608 130.048-460.8 108.544-631.808-52.224zM497.842074 673.792c-22.528 0-39.936-18.432-39.936-39.936v-296.96c0-22.528 18.432-39.936 39.936-39.936h323.584c22.528 0 39.936 18.432 39.936 39.936 0 22.528-18.432 39.936-39.936 39.936H538.802074v256c0 22.528-18.432 40.96-40.96 40.96z"  horiz-adv-x="1025" />

    
    <glyph glyph-name="refuse" unicode="&#59364;" d="M512-128C229.23776-128 0 101.23605299999997 0 384S229.23776 896 512 896c282.763947 0 512-229.236053 512-512S794.763947-128 512-128z m0 80.841387c104.4992 0 200.28928 37.21216 274.921813 99.06688l-607.0272 607.01184C118.053547 584.28928 80.843093 488.4992 80.843093 384c0-238.1312 193.025707-431.158613 431.156907-431.158613z m0 862.31552c-104.4992 0-200.28928-37.210453-274.920107-99.065174l607.0016-607.013546c61.868373 74.61888 99.078827 170.420907 99.078827 274.921813C943.158613 622.1175470000001 750.1312 815.156907 512 815.156907z"  horiz-adv-x="1024" />

    
    <glyph glyph-name="accept" unicode="&#59365;" d="M916.210347 896H107.789653C48.262827 896 0 847.737173 0 788.210347v-808.420694C0-79.73717299999998 48.262827-128 107.789653-128h808.420694C975.737173-128 1024-79.73717299999998 1024-20.210346999999956V788.210347C1024 847.737173 975.737173 896 916.210347 896z m26.94656-875.789653c0-37.210453-30.1568-67.367253-67.367254-67.367254H148.210347c-37.210453 0-67.36896 30.1568-67.36896 67.367254V747.789653c0 37.210453 30.158507 67.36896 67.36896 67.36896h727.579306c37.210453 0 67.367253-30.158507 67.367254-67.36896v-727.579306z m-176.525654 527.394133l-295.053653-295.0656-176.104107 176.119467c-15.79008 15.776427-41.3952 15.776427-57.18528 0-15.761067-15.79008-15.761067-41.3952 0-57.171627l193.815894-193.815893c1.682773-1.682773 3.841707-2.459307 5.710506-3.787094 1.580373-2.486613 2.711893-5.200213 4.89472-7.38304 15.79008-15.776427 41.3952-15.776427 57.157974 0l323.94752 323.94752c15.762773 15.776427 15.762773 41.367893 0 57.157974-15.788373 15.788373-41.3952 15.788373-57.183574-0.001707z"  horiz-adv-x="1024" />

    
    <glyph glyph-name="adminfolder" unicode="&#59363;" d="M949.05-40.75199999999995H84.268S8.816-53.125 8.816 46.75599999999997V741.233s1.075 89.518 94.123 89.518h335.91s39.615 8.451 73.793-43.291c32.608-49.326 50.736-80.541 50.736-80.541s12.879-14.298 39.014-13.691c-24.071-0.56 339.715 0 339.715 0s76.305 7.776 76.305-75.991V42.07000000000005s11.308-82.821-69.362-82.821z m-22.094 586.547c0 30.812-24.965 55.781-55.798 55.781H156.136c-30.792 0-55.777-24.965-55.777-55.781v-439.798c0-30.809 24.986-55.77 55.777-55.77h715.025c30.829 0 55.798 24.962 55.798 55.77V545.7950000000001zM685.745 302.83799999999997h-36.506c-3.516-20.859-11.855-40.018-23.641-56.535l25.952-25.972c4.482-4.478 4.482-11.738 0-16.224l-16.224-16.224c-4.482-4.478-11.738-4.478-16.224 0l-26.04 26.04c-16.517-11.697-35.652-19.985-56.47-23.48v-36.751c0-6.325-5.158-11.476-11.472-11.476h-22.944c-6.339 0-11.476 5.154-11.476 11.476v36.751c-20.797 3.492-39.731 12.025-56.245 23.702l-26.266-26.262c-4.482-4.478-11.742-4.478-16.224 0l-16.227 16.224c-4.482 4.482-4.482 11.745 0 16.224l26.126 26.156c-11.807 16.49-20.163 35.611-23.818 56.354h-36.502c-6.339 0-11.472 5.154-11.472 11.479v22.944c0 6.339 5.134 11.472 11.472 11.472h36.502c3.519 20.883 11.855 40.042 23.644 56.562l-25.955 25.965c-4.482 4.485-4.482 11.738 0 16.227l16.227 16.224c4.482 4.482 11.738 4.482 16.224 0l26.037-26.037c16.497 11.697 35.628 19.968 56.47 23.484v36.724c0 6.342 5.137 11.472 11.476 11.472h22.944c6.318 0 11.472-5.13 11.472-11.472v-36.724c20.797-3.499 39.711-12.032 56.248-23.712l26.259 26.266c4.482 4.482 11.742 4.482 16.224 0l16.224-16.224c4.482-4.489 4.482-11.742 0-16.227l-26.126-26.15c11.81-16.514 20.169-35.604 23.818-56.381h36.506c6.318 0 11.472-5.134 11.472-11.472v-22.944c0.01-6.328-5.147-11.479-11.465-11.479z m-172.1 114.736c-50.688 0-91.785-41.076-91.785-91.791 0-50.685 41.097-91.781 91.785-91.781 50.691 0 91.788 41.097 91.788 91.781 0 50.715-41.097 91.791-91.788 91.791z"  horiz-adv-x="1024" />

    
    <glyph glyph-name="cancelstar" unicode="&#59362;" d="M464.896 105.47199999999998c0 13.312 1.024 27.648 3.072 40.96L261.12-2.048000000000002c-2.048-2.048-5.12-2.048-7.168-2.048-8.192 0-15.36 8.192-12.288 16.384l92.16 279.552c2.048 5.12 0 11.264-5.12 14.336L86.016 479.232c-10.24 7.168-5.12 23.552 8.192 23.552h300.032c6.144 0 10.24 3.072 12.288 9.216l93.184 279.552c2.048 4.096 7.168 7.168 12.288 7.168s10.24-3.072 12.288-9.216l93.184-279.552c2.048-5.12 7.168-9.216 12.288-9.216h300.032c12.288 0 18.432-16.384 8.192-23.552l-120.832-86.016c31.744-6.144 62.464-18.432 89.088-33.792l78.848 56.32c32.768 23.552 47.104 64.512 33.792 102.4-12.288 37.888-48.128 63.488-89.088 63.488H678.912L601.088 814.08C588.8 852.992 552.96 877.568 512 877.568c-40.96 0-76.8-25.6-89.088-63.488l-77.824-233.472H94.208c-40.96 0-76.8-25.6-89.088-63.488-12.288-37.888 1.024-78.848 33.792-102.4l202.752-144.384L163.84 36.86400000000003c-9.216-27.648-4.096-58.368 13.312-81.92 17.408-23.552 46.08-37.888 75.776-37.888 19.456 0 38.912 6.144 55.296 17.408L471.04 49.152000000000044c-4.096 18.432-6.144 36.864-6.144 56.32zM761.856-108.54399999999998c-117.76 0-212.992 96.256-212.992 212.992S645.12 317.44000000000005 761.856 317.44000000000005s212.992-96.256 212.992-212.992-95.232-212.992-212.992-212.992z m0 347.136c-73.728 0-133.12-59.392-133.12-133.12s59.392-133.12 133.12-133.12 133.12 59.392 133.12 133.12-59.392 133.12-133.12 133.12zM658.91328 259.53279999999995l261.38624-261.39648-56.48384-56.4736L602.42944 203.05920000000003z"  horiz-adv-x="1024" />

    
    <glyph glyph-name="visicard" unicode="&#59361;" d="M921.6 776.192H102.4c-56.32 0-102.4-46.08-102.4-102.4v-588.8c0-56.32 46.08-102.4 102.4-102.4h819.2c56.32 0 102.4 46.08 102.4 102.4V673.792c0 56.32-46.08 102.4-102.4 102.4z m25.6-653.312c0-35.84-28.672-63.488-64.512-63.488H141.312c-35.84 0-63.488 28.672-63.488 63.488v512c0 35.84 28.672 63.488 63.488 63.488h742.4c35.84 0 64.512-28.672 64.512-63.488v-512zM595.968 353.28c41.984 27.648 69.632 74.752 69.632 128 0 84.992-68.608 153.6-153.6 153.6s-153.6-68.608-153.6-153.6c0-53.248 27.648-100.352 69.632-128-78.848-26.624-142.336-88.064-169.984-171.008-6.144-20.48 4.096-41.984 24.576-48.128 20.48-7.168 41.984 4.096 48.128 24.576 25.6 78.848 98.304 131.072 181.248 131.072S667.648 236.54399999999998 693.248 158.72000000000003c5.12-16.384 20.48-26.624 36.864-26.624 4.096 0 8.192 1.024 12.288 2.048 20.48 6.144 30.72 28.672 24.576 48.128-27.648 82.944-92.16 144.384-171.008 171.008zM512 404.48c-41.984 0-76.8 34.816-76.8 76.8S470.016 558.0799999999999 512 558.0799999999999s76.8-34.816 76.8-76.8S553.984 404.48 512 404.48z"  horiz-adv-x="1024" />

    
    <glyph glyph-name="sticked" unicode="&#59360;" d="M960.088747 750.64832s-20.882773 30.603947-50.000214 45.001387c-20.570453 11.549013-42.431147 17.604267-66.717013 17.604266H141.984427c-29.108907 0-56.09472-8.83712-78.53056-24.041813 0 0-30.5152-19.75808-44.383574-49.933653C8.352427 719.41632 1.706667 697.0862930000001 1.706667 672.976213v-561.109333c0-77.472427 62.810453-140.281173 140.276053-140.281173h420.834987V41.72799999999995H141.984427c-38.731093 0-70.137173 31.368533-70.137174 70.142293V672.976213c0 8.35584 2.05312 16.16384 4.759894 23.630507l366.549333-242.816 58.492587-38.76864 1.099093-0.684373c7.4496 7.02464 36.089173 28.504747 51.370667 39.11168l348.330666 255.00672c6.406827-10.550613 11.062613-22.260053 11.062614-35.4816v-140.27776h70.140586v140.27776c0 28.76928-8.73472 55.41376-23.563946 77.673813zM503.365973 497.901227L135.169707 741.742933c2.36544 0.27648 4.38272 1.370453 6.81472 1.370454h696.35584L503.365973 497.901227zM1007.84128 272.65194699999995c-49.16736 71.451307-114.435413 139.257173-163.474773 203.799893-23.149227 30.465707-36.21888 26.71104-62.92992-3.21024-57.705813-64.638293-144.452267-145.250987-189.09184-213.998933-21.963093-33.8688-11.055787-57.117013 21.89312-56.832 19.35872 0.14336 61.093547-1.565013 79.240533-1.068374 25.311573 0.709973 29.7728-25.88672 29.88032-69.09952 0.211627-60.89728 2.384213-102.25664 2.633387-147.892906 0.288427-48.914773 11.339093-71.092907 51.165866-70.739627 28.663467 0.288427 48.904533 0.914773 73.970347 1.128107 42.3936 0.3584 48.003413 39.159467 47.858347 67.971413-0.390827 67.956053-2.566827 107.0336-2.9952 171.854507-0.141653 29.73184 2.925227 47.419733 26.34752 47.98976 21.500587 0.50176 51.628373 3.208533 71.237973 2.993493 33.69984-0.354987 40.792747 28.5952 14.26432 67.104427z"  horiz-adv-x="1024" />

    
    <glyph glyph-name="sdaeroinfo" unicode="&#59336;" d="M1019.336909 559.9232s10.51648 42.89536 0 52.8896H691.165389s-30.28992 64.45056 17.26464 70.52288h155.46368l17.26464-35.25632h138.1888S1007.048909 856.91392 725.704909 894.89408c0 0-163.05152 13.03552-310.87616-70.52288 0 0 128.02048 43.29472 259.072 17.63328 0 0 124.68224-23.45984 172.71808-123.40224 0 0-95.95904 105.85088-259.10272 52.87936 0 0-278.08768-73.39008-379.97568-405.46304 0 0-66.07872-246.50752 120.91392-299.70432 0 0 94.5664-34.34496 276.33664 17.64352 0 0-172.24704-31.8464-207.2576 105.7792v70.52288h380.0064l-17.27488-35.25632h138.14784l51.8144 88.12544H414.818509s-17.0496 39.53664 0 52.8896H829.343949v-17.63328h138.17856l34.53952 70.52288H449.358029l17.27488 52.8896h397.25056v-17.63328h138.17856l17.27488 70.5024H518.447309l34.52928 52.8896h328.17152v-17.63328h138.1888zM501.172429 207.36l34.54976-52.8896h103.60832l51.84512 52.8896H501.172429zM311.148749 13.424639999999954c-285.80864 46.08-189.96224 387.85024-189.96224 387.85024C236.181709 692.2239999999999 501.172429 806.73792 501.172429 806.73792c-112.3328 1.44384-224.5632-88.13568-224.5632-88.13568C-19.459891 513.65888 0.272589 207.36 0.272589 207.36c-3.47136-321.92512 328.17152-334.98112 328.17152-334.98112 322.68288 9.1136 535.43936 317.34784 535.43936 317.34784H725.694669C533.878989-34.826239999999984 311.148749 13.424639999999954 311.148749 13.424639999999954z"  horiz-adv-x="1024" />

    
    <glyph glyph-name="checkin" unicode="&#59337;" d="M1005.03552 336.5888H75.84768V640a18.96448 18.96448 0 0 1-18.96448 18.96448H18.96448C8.47872 658.96448 0 650.46528 0 640v-512c0-10.47552 8.47872-18.96448 18.96448-18.96448h37.92896A18.95424 18.95424 0 0 1 75.85792 128V260.74112h872.30464V128c0-10.47552 8.47872-18.96448 18.96448-18.96448h37.92896A18.95424 18.95424 0 0 1 1024.02048 128V317.63455999999996a18.97472 18.97472 0 0 1-18.98496 18.95424z m-891.25888 18.97472h891.25888V431.4112S780.43136 572.83584 360.2944 583.10656c0 0 43.75552-234.93632-227.55328-151.69536 0 0-67.20512-40.26368-18.96448-75.84768zM256 431.4112c47.13472 0 85.32992 38.1952 85.32992 85.32992s-38.1952 85.32992-85.32992 85.32992-85.32992-38.1952-85.32992-85.32992S208.86528 431.4112 256 431.4112z"  horiz-adv-x="1024" />

    
    <glyph glyph-name="zjelectric" unicode="&#59338;" d="M512.3584 896C229.79584 896 0.72704 666.9312 0.72704 384.3584c0-282.55232 229.0688-511.63136 511.63136-511.63136C794.91072-127.27296000000001 1024 101.80607999999995 1024 384.3584 1024 666.9312 794.91072 896 512.3584 896zM310.03648 25.90719999999999l177.8176 277.92384-227.59424 72.66304 424.64256 366.32576L525.824 432.61952l238.65344-70.25664L310.03648 25.90719999999999z"  horiz-adv-x="1024" />

    
    <glyph glyph-name="xiecheng" unicode="&#59339;" d="M900.51584 263.64928c-50.3808-12.3904-57.48736-50.69824-61.10208-94.94528-12.1344-148.52096-161.71008-228.3008-295.08608-158.84288l0.1536 0.01024a0.3072 0.3072 0 0 0-0.08192 0.02048c-121.36448 54.2208-120.1664 158.63808-109.62944 267.80672-34.048-71.05536-34.67264-142.68416-5.61152-213.94432 28.60032-70.16448 84.02944-115.89632 167.61856-154.20416-131.56352 5.81632-231.0656 82.46272-268.9536 192.62464-37.2736 108.31872-1.06496 238.82752 90.13248 314.39872 22.19008 18.41152 49.34656 53.6064 79.11424 30.52544 39.04512-30.26944-3.9424-56.99584-17.67424-84.02944-1.64864-3.42016-1.18784-7.92576-1.64864-11.9296 76.84096-4.21888 167.61856 55.11168 169.19552 128.37888 1.51552 71.28064 43.30496 84.54144 92.8768 100.22912 20.50048 6.48192 41.25696 12.1344 65.792 19.3024-10.94656 6.31808-18.37056 9.5744-24.48384 14.47936-4.75136 3.79904-16.09728 6.2464-7.69024 16.55808 74.63936-6.41024 112.59904-2.95936 139.12064 13.73184 21.9648 13.81376 40.74496 31.3344 34.9184 59.99616-5.72416 28.07808-26.73664 41.90208-54.53824 40.66304-28.78464-1.20832-43.56096 6.9632-52.29568 37.71392C820.20352 854.14912 770.77504 887.6544 695.53152 894.38208 579.54304 904.77568 479.9488 864.17408 390.48192 796.01664c-49.31584-37.55008-91.02336-75.15136-163.97312-60.68224-48.3328 9.63584-101.77536-11.44832-143.57504-47.21664-24.24832-20.72576-39.99744-44.288-40.52992-82.91328 15.36 5.2736 24.50432 8.61184 33.80224 11.44832 29.5424 9.04192 60.34432 23.06048 87.00928-4.18816 28.2624-28.84608 0.96256-53.62688-9.87136-78.44864-41.03168-93.93152-53.23776-192.26624-30.67904-291.09248 61.3376-268.51328 333.78304-426.45504 602.2144-352.86016 155.46368 42.60864 238.41792 129.97632 254.7712 268.24704 8.27392 70.00064-8.31488 92.07808-79.13472 105.33888zM700.1088 779.64288c-26.81856-50.64704-26.81856-50.64704 9.43104-96.63488-34.21184-3.0208-53.68832 14.42816-58.48064 43.02848-4.59776 27.98592 13.38368 45.08672 49.0496 53.6064zM839.424 168.704c3.62496 44.24704 10.74176 82.56512 61.12256 94.94528-4.02432 52.96128-30.50496 79.88224-85.12512 70.33856-47.42144-8.13056-55.9616-42.88512-51.80416-83.69152 15.94368-156.07808-58.50112-237.90592-219.136-240.42496l-0.1536-0.01024c133.376-69.45792 282.95168 10.32192 295.09632 158.84288z"  horiz-adv-x="1024" />

    
    <glyph glyph-name="ciba" unicode="&#59340;" d="M1024 385.93536c0 130.9696-178.81088 239.93344-397.44512 239.93344-176.0256 0-325.50912-68.096-376.14592-163.79904-5.24288-8.02816-8.02816-19.21024-8.02816-27.2384 0-24.45312 16.06656-43.65312 37.36576-57.28256l202.9056-117.3504c10.83392-5.59104 24.10496-8.02816 37.376-8.02816 13.2608 0 26.54208 2.78528 37.35552 8.02816l192.09216 111.75936c13.27104 8.0384 21.2992 19.21024 21.2992 32.82944 0 13.62944-8.02816 24.45312-18.50368 32.83968l-71.94624 40.8576-162.75456-95.34464-120.14592 68.096c45.4144 40.86784 130.62144 70.90176 229.45792 70.90176 146.688 0 266.83392-62.86336 266.83392-138.99776-2.78528-120.14592-178.82112-212.69504-389.40672-207.4624-213.4016 5.59104-381.3888 106.51648-378.94144 226.32448 2.78528 158.208 208.14848 283.58656 458.9056 280.79104 21.30944 0 45.40416-2.79552 66.7136-2.79552-50.6368 19.21024-117.3504 30.04416-186.83904 30.04416-55.87968 0-109.32224-8.0384-154.7264-19.21024C128.17408 641.5871999999999 0 524.58496 0 388.03456c0-182.66112 229.44768-330.04544 512.34816-330.04544C794.55232 55.88991999999996 1024 203.27423999999996 1024 385.93536z"  horiz-adv-x="1024" />

    
    <glyph glyph-name="psbc" unicode="&#59341;" d="M601.88672 607.39584l23.0912 113.83808 5.02784 27.904H999.424L1024 862.96576H590.34624L560.7424 721.13152H326.5536l-59.43296-280.2688H54.40512L29.61408 327.23968l-4.9152-28.1088L0 185.30304h214.41536l-59.43296-280.2688h511.25248l24.68864 113.62304 34.63168 166.64576h156.70272l22.9888 113.82784H684.41088l-23.0912-113.82784-36.34176-166.64576H244.02944l5.0176 26.51136h339.70176l59.32032 282.08128h262.30784l24.68864 113.62304H606.9248l-23.0912-113.62304-36.34176-168.3456H273.84832l4.9152 26.40896h234.1888l22.97856 113.82784 6.52288 28.1088 23.20384 113.62304H331.45856l6.62528 26.39872H677.6832l29.70624 140.1344h262.30784l24.576 113.83808H666.24512l-24.80128-113.83808-4.8128-26.40896h-275.456l6.62528 26.40896h234.0864zM237.40416 299.13088000000005H89.0368l5.02784 28.1088h149.9648l-6.62528-28.1088z m239.21664 28.1088l-5.0176-28.1088H301.75232l6.62528 28.1088h168.2432z"  horiz-adv-x="1024" />

    
    <glyph glyph-name="wzgas" unicode="&#59342;" d="M744.74076 437.015617s6.701772-93.354143-76.349037-183.260199c-47.761633-54.575953-79.612954-122.238267-61.093555-198.515682 0 0 60.991237 156.268942 137.442592 152.718538 0 0 45.633437-186.984543-137.442592-244.343522-52.151038-16.841398-274.383829-54.790819-320.70279 229.077807-5.791149 30.398417-10.211249 162.53075 183.249967 366.510167 16.288886 16.687923 65.186239 73.780877 91.645447 152.708306 8.850431 29.907295 13.628641 131.723064-15.275946 183.260199 0 0-76.860623-164.218983-274.885183-366.510166-200.439244-236.700433-73.709256-503.257002 0-565.036081 73.699024-61.768847 124.192524-91.624984 259.619468-91.624984 135.406481 0 296.484328 50.943696 335.968506 305.447308 0 58.085431-9.474566 173.304743-122.176877 259.568309zM439.313916 177.42684399999996s-2.476074 134.373078 106.90093 229.057344c11.17303 8.952748 121.624364 127.405282 61.093554 274.885183 0 0-44.477253-136.184091-137.452823-229.067575-24.433329-30.019844-132.613223-165.364934-30.541661-274.874952zM546.214846 70.48498700000005s-33.027967 134.403773 76.379732 229.088039c11.152566 8.952748 106.327954 127.405282 45.817608 274.885183 0 0-13.935592-136.194323-106.90093-229.077807-24.453792-30.009612-117.367972-165.364934-15.29641-274.895415z"  horiz-adv-x="1024" />

    
    <glyph glyph-name="travel" unicode="&#59343;" d="M409.7024 808.22272H240.16896l-21.1968-35.30752H395.5712l14.1312 35.30752z m173.17888-129.46432h-63.00672l-15.73888-31.91808h63.00672L425.34912 407.48032h63.01696l141.79328 239.36h15.75936l-78.77632-239.36H614.4l94.5152 271.27808h-47.2576v15.95392h63.00672V726.6304h-189.0304v-31.91808h47.24736v-15.95392z m-456.84736-95.744h47.2576L126.03392 439.3984h173.29152l47.2576 143.616h47.26784l-63.01696-175.53408h63.01696l79.43168 252.416H381.44l28.25216 49.43872H346.112l-28.25216-49.43872h-98.89792l21.1968 49.43872h-63.56992l-21.18656-49.43872H77.70112L0 407.48032h78.76608l47.26784 175.53408z m133.90848 63.82592c30.45376 0 55.1424-17.8688 55.1424-39.89504 0-22.03648-24.68864-39.89504-55.1424-39.89504-30.45376 0-55.1424 17.85856-55.1424 39.89504 0 22.02624 24.68864 39.89504 55.1424 39.89504zM204.8 535.13216h78.76608l-15.75936-63.82592h-78.76608L204.8 535.13216zM708.9152 806.41024h-62.99648L614.4 742.5843199999999h63.00672l31.50848 63.82592zM522.73152 758.784l-428.20608-0.24576-16.82432-35.072h445.0304V758.784z m327.97696-0.24576l15.73888 47.872h-78.7456l-47.27808-95.744h78.76608l15.75936 15.95392h173.29152L1024 758.53824H850.70848zM645.91872 407.48032h157.52192V439.3984h-78.76608l63.0272 143.616 47.24736-175.53408h94.52544l-47.26784 159.56992 110.29504 79.79008H819.18976l15.75936 31.91808h173.29152v15.95392H756.18304l-110.26432-287.232z m-502.20032-72.76544L49.19296-16.343039999999974h78.77632l78.76608 351.04768h-63.01696z m472.60672-239.36s-6.53312-5.4784 12.34944-50.0224c33.03424-55.04 77.95712-69.75488 134.97344-67.75808-67.79904-9.216-142.30528 15.47264-163.08224 149.69856 0 0-9.90208 258.38592-236.30848 223.39584 0 0-200.54016-42.93632-173.28128-271.27808 0 0 40.05888-140.8 220.55936-111.69792 0 0 133.2224 43.60192 126.02368 127.66208 0 0-8.48896 35.01056-21.9136 55.95136 0 0-109.35296-207.2576-240.15872-63.58016 0 0-46.25408 139.25376 84.76672 176.5888 0 0 130.99008 27.61728 161.54624-105.14432 0 0 64-246.1184 299.3152-191.47776 0 0 52.36736 28.53888 63.01696 63.82592 0.01024 0-155.88352-85.59616-267.80672 63.83616z m40.20224 232.30464s-48.47616-25.48736-84.35712-84.54144c0 0 30.47424-43.4688 28.25216-98.89792 0 0 112.77312 205.08672 252.22144 78.77632 0 0 36.02432-51.24096 24.59648-133.29408-0.79872-1.3312-1.3312-1.98656-1.3312-1.98656l1.24928 1.24928c-0.04096-0.23552-0.0512-0.45056-0.08192-0.68608 0 0 97.73056 78.34624 15.75936 207.44192 0 0-78.90944 102.8096-236.30848 31.93856z m-481.30048 23.00928h15.74912v31.90784h-63.01696s-37.31456 0.49152-47.26784-47.86176v-31.91808h31.51872c0-0.01024-3.28704 48.54784 63.01696 47.872z"  horiz-adv-x="1024" />

    
    <glyph glyph-name="ningbowater" unicode="&#59344;" d="M576.73728 548.29056c40.47872-38.25664 257.47456-196.21888 400.1792-47.08352V630.6816s-146.98496-149.08416-270.71488-35.30752c-40.89856 33.59744-251.91424 202.2912-447.27296 58.84928C244.8896 668.79488 156.7232 821.8112 0 807.23968v-847.44192h153.00608V595.37408l58.84928-105.9328s204.14464 201.32864 364.88192 58.84928z m11.776-223.62112C656.98816 275.47648000000004 839.68 131.27679999999998 976.91648 289.36192000000005V407.05024c-152.08448-104.8064-197.05856-99.6352-364.87168 35.30752-61.62432 49.78688-238.45888 108.73856-364.88192-23.54176l58.84928-82.3808c0.01024 0 134.62528 100.608 282.50112-11.76576z m70.61504-94.16704c-61.62432 49.79712-238.45888 108.73856-364.88192-23.54176l58.84928-82.39104s134.61504 100.61824 282.49088-11.76576C704.07168 63.62112000000002 886.76352-80.58879999999999 1024 77.48608000000002V195.18463999999994c-152.08448-104.8064-197.05856-99.6352-364.87168 35.31776z"  horiz-adv-x="1024" />

    
    <glyph glyph-name="railway" unicode="&#59345;" d="M911.40096 621.32224C847.872 731.56608 741.34528 811.91936 616.16128 839.94624c-3.72736 1.86368-7.4752 5.60128-7.4752 9.33888-1.86368 18.688-13.07648 35.51232-29.88032 42.97728h-1.88416C554.48576 894.13632 533.94432 896 511.52896 896c-20.56192 0-42.97728-1.86368-67.2768-5.60128-16.81408-7.4752-28.02688-24.28928-29.9008-42.97728 0-3.72736-3.7376-9.33888-7.4752-9.33888-113.98144-26.1632-211.1488-95.30368-276.55168-192.47104-67.2768-100.90496-91.56608-222.3616-67.2768-341.95456 26.1632-128.94208 108.38016-241.05984 224.23552-304.5888h3.74784c1.86368 0 3.72736 1.88416 5.60128 1.88416l63.52896 82.21696c1.87392 1.86368 1.87392 3.72736 1.87392 5.60128a4.02432 4.02432 0 0 1-3.7376 3.7376c-80.35328 41.1136-142.00832 110.2336-170.0352 196.1984-28.03712 85.95456-20.55168 177.5104 20.54144 257.86368 57.92768 113.99168 173.78304 184.99584 302.72512 184.99584a331.6736 331.6736 0 0 0 153.21088-37.36576c168.18176-84.09088 233.58464-287.78496 149.504-454.08256-33.6384-63.52896-84.09088-115.84512-149.504-147.6096-1.86368-1.88416-3.72736-1.88416-3.72736-3.7376 0-1.87392 0-3.7376 1.87392-5.60128l63.52896-82.21696c1.88416-1.88416 3.7376-1.88416 5.61152-1.88416s1.87392 0 3.72736 1.88416C842.26048 60.73343999999997 918.87616 157.9008 952.5248 275.61983999999995c33.62816 117.72928 18.688 239.18592-41.12384 345.7024zM780.5952-60.71295999999995L590.00832-23.347200000000043c-26.17344 5.60128-44.86144 28.02688-44.86144 54.19008V284.96896000000004c0 16.82432 11.22304 31.76448 28.02688 35.50208l89.7024 24.28928c3.71712 0 5.60128 3.74784 5.60128 5.62176v84.0704c0 24.29952-13.07648 46.72512-33.61792 59.8016h-1.88416c-44.84096 7.4752-87.82848 11.2128-130.79552 11.2128-42.97728 0-85.95456-3.72736-127.05792-9.33888h-1.87392c-20.55168-13.07648-33.6384-35.50208-33.6384-59.8016v-84.08064c0-3.72736 1.87392-5.61152 5.61152-5.61152l89.69216-24.28928c16.81408-3.72736 28.03712-18.67776 28.03712-35.50208v-252.2624c0-26.17344-18.688-48.57856-44.8512-54.20032l-190.59712-37.36576c-11.20256-1.86368-20.55168-13.06624-20.55168-24.27904v-39.24992c0-3.74784 3.7376-7.4752 7.4752-7.4752h584.86784c3.7376 0 7.46496 3.72736 7.46496 7.4752v39.24992c-5.61152 9.32864-13.07648 18.67776-26.1632 20.55168z"  horiz-adv-x="1024" />

    
    <glyph glyph-name="cmb" unicode="&#59346;" d="M888.48655 285.134777h126.154277l3.53273 21.165657H879.147857zM909.857003 237.00774h92.967101l5.805963 19.916402H900.323754zM178.858503 177.03325900000004h283.642327L317.669167 527.705286zM837.850763 405.278294l8.314714-21.165656H1023.97952v21.165656zM867.320894 334.52130999999997h154.170356l2.48827 21.370452H857.9822zM824.98958 433.49917h196.50167l-2.283474 21.165657H816.695346zM469.556049 177.03325900000004h283.642327L608.366713 527.705286zM805.073179 482.885702h209.567648l-4.771744 21.155417H795.529689zM932.056879 184.09871799999996l-110.589788-161.440611H216.622868L97.728605 171.02250000000004 358.966261 845.374453l148.354153-353.160297L648.414552 848.896942l135.50321-316.624707h218.906342l-7.065459 18.871942-7.044979 20.131437-7.065459 18.667147-9.533249 17.847963-8.314714 18.677387L953.427331 644.101038l-10.587948 16.598708-10.782504 16.393912-12.861183 16.598708-5.805964 8.089438-6.020999 8.304474-12.871423 15.349453-14.100198 14.110438L866.286674 753.666847l-15.359693 14.100198-15.339213 12.861182-15.154897 11.837204-16.598708 11.816723L787.440251 816.119358l-17.858203 10.577708-17.622687 9.338693-17.643167 9.338694-18.667147 8.294234-18.882182 8.304474-9.553729 3.522489-9.338693 3.532729-19.906162 5.805964-20.131438 6.021-19.916401 4.566949-21.175897 3.522489-20.110958 3.532729-21.175896 1.239016L533.053019 896h-34.037079l-12.850943-1.044459-25.947641-1.239015-25.937402-3.52249-13.065978-2.49851-12.871423-2.283474-11.816724-2.273235-12.871422-3.532729-23.449131-7.055219-23.653927-7.055219-23.643687-9.543489-22.210116-10.577708L268.282634 833.752285l-10.577708-5.805964-10.577709-6.021-10.577708-7.055218-10.587948-6.021-20.121198-15.144657-9.348933-7.055219-10.577708-7.055219-17.632928-16.598708-17.643167-17.632927-9.328453-8.304474-8.304474-9.338693-8.294234-8.294234-8.304474-9.338694-14.120678-19.926641-15.134417-20.121198-13.076218-21.165656-5.805964-10.577709-6.021-10.587948-11.622168-22.404672-10.577708-22.414912-8.304474-23.449131-8.294234-23.438891-7.055219-23.653927-5.816204-24.688146-4.771744-25.947641-3.52249-25.722366-1.239015-26.142197L0 384.112638v-13.076219l1.044459-12.861183 1.239015-27.186656 3.52249-24.688146 2.49851-12.871423 2.283474-13.055738 2.273235-11.632408 3.532729-13.065978 7.055219-23.438892 8.294234-24.698386 8.304474-22.404672 10.577708-23.653927 11.622168-20.96086 6.021-11.837204 5.805964-10.577708 7.055218-10.577709 6.021-9.553728 15.144657-19.916402 7.260015-10.577709 6.850423-9.553728 16.598708-18.667147 17.632927-17.632927 8.294234-8.294235 9.348933-8.304474 8.294234-8.294234 9.338694-8.304474 19.926641-15.144657 20.121198-14.110437 21.165656-13.076219 10.577709-5.805964 10.577708-7.055219 22.414912-10.587948 22.210116-10.577708 23.653927-9.338694 23.653927-8.304474 23.438891-5.805963 24.698386-6.021 25.927161-4.771745 25.937402-3.317693 25.947641-2.48827h46.888022l20.121198 1.239015 19.926641 2.293714 10.782504 1.239015 9.348933 1.034219 19.916402 3.53273 18.882182 4.771744 19.916402 4.771745 18.882182 5.805964 17.632928 7.055219 18.882182 7.055219 17.643167 7.260014 17.622688 8.099678 17.643167 9.54349 16.598708 9.328453 16.393912 10.587948 15.359693 10.577709 15.349453 11.622167 15.144657 11.826964 14.110438 13.076218 14.110438 12.861183L881.646367 29.713326000000052l12.850943 13.076218 12.871423 15.134418 11.837203 15.574728 10.577708 15.144657 11.816724 15.349453 9.348933 16.404152 10.577708 17.632927 8.294235 16.608948 8.099678 17.622688 8.304473 17.632927 7.04498 18.892422H921.47917z"  horiz-adv-x="1024" />

    
    <glyph glyph-name="cz" unicode="&#59347;" d="M609.529172 44.39332999999999c-13.461831 59.273004-51.185668 107.745831-96.976367 140.095173-48.493302-32.339105-86.206902-80.82217-96.986604-140.095173-37.7136 48.493302-94.273763 83.514536-156.239133 96.986604v-59.273004c5.384732-40.395729 51.185668-210.10693 253.225737-210.10693S760.39381 41.71120099999996 765.778542 84.80953299999999v56.570401c-61.955133-16.154197-115.82293-48.483065-156.24937-96.986604zM669.447115 717.884112v-75.4272c-88.899268-18.8568-150.864638-110.458672-150.864638-196.655336v-239.763907c40.405966-21.538929 80.82217-67.339865 94.284-110.448434 0 2.702603 2.702603 5.394969 8.097573 10.789939v309.775663c0 91.591634 51.175431 188.578238 140.074699 218.204502 0 0-26.933899 10.779702-64.637261 10.779702V717.873875c29.636502 5.384732 51.165194 32.328868 51.165193 61.955133 0 35.021234-29.626265 64.647499-64.637261 64.647499-37.723837 0-64.657736-26.933899-64.657736-64.647499-0.020474-29.626265 21.538929-53.878034 51.175431-61.944896zM243.807574 631.666973c88.899268-32.318631 140.084936-123.910265 140.084936-218.194265v-307.103771c2.692366-2.702603 8.077098-5.384732 10.779702-10.789939 13.461831 37.723837 51.185668 86.206902 94.284 110.448434V445.791338c0 86.196665-61.96537 177.798536-150.864638 196.655337V717.873875c29.636502 5.384732 51.185668 32.328868 48.493302 61.955133 0 37.723837-29.636502 64.647499-64.647498 64.647499-37.7136 0-64.647499-29.626265-64.647499-64.647499 0-29.636502 21.538929-53.888271 51.185668-61.955133v-75.4272c-35.031471 0-64.667973-10.779702-64.667973-10.779702zM835.831247 618.205143c-78.140041 0-177.808774-67.350102-177.808773-239.753669v-255.918103c35.031471 24.231295 83.524773 43.088095 110.468908 43.088095v239.753669c0 91.591634 64.627024 118.53577 96.976367 118.53577-18.877274-16.164434-26.933899-37.7136-26.933898-61.955133 0-48.493302 40.395729-88.909505 88.899268-88.909505 48.483065 0 83.504299 37.723837 86.196665 88.909505-0.010237 86.206902-59.262766 156.24937-177.798537 156.249371zM367.083137 122.53337099999999V378.45147399999996c0 172.403567-96.976367 239.753669-177.798537 239.753669-118.53577 0-177.798536-70.042468-177.798536-156.239133 2.692366-51.185668 37.7136-88.909505 86.196665-88.909506s88.899268 40.416203 88.899268 88.909506c0 24.241532-8.087336 45.790699-26.933898 61.955132 32.318631 0 96.976367-26.933899 96.976366-118.53577v-239.753669c26.954373-0.010237 75.447675-18.867037 110.458672-43.098332zM509.860439 523.910905c16.154197 48.493302 48.483065 88.899268 91.591634 115.843404-10.769465 29.626265-40.416203 51.185668-75.437437 56.5704v70.042468c29.646739 8.077098 51.195905 35.010997 51.195905 64.647499 0 37.7136-29.636502 64.647499-64.647499 64.647499-35.021234 0-64.657736-26.933899-67.350102-67.350102 0-29.636502 21.549166-53.878034 51.185668-61.955133v-70.042468c-35.021234-2.692366-64.647499-29.636502-78.119566-56.5704 43.088095-24.231295 75.416963-67.339865 91.581397-115.833167z"  horiz-adv-x="1024" />

    
    <glyph glyph-name="ca" unicode="&#59348;" d="M432.978671 138.728474V428.466522c26.33703 177.795431 118.526874 276.569533 289.738047 283.15379C867.590862 698.4517969999999 933.433436 770.878629 979.533478 896 834.669575 797.225898 762.232503 863.078713 623.952856 823.562928c-105.358359-39.505545-276.579772-118.526874-309.501059-375.343634v-276.569533c-6.594497-32.921287-65.852814-32.921287-79.02133 0V448.219294c0 52.684299-13.168515 79.021329-46.100042 85.605587 19.763012 59.268557 131.695389-46.089802 138.289887 98.774101-65.852814-79.021329-158.042659 6.584257-164.626916-98.774101H44.466522c79.021329-19.752772 85.605587-39.505545 85.605586-118.526874l-6.594497-276.569533c26.34727-197.558443 309.50106-171.221413 309.50106 0zM702.963946 672.104527c-144.863904-26.33703-223.895473-105.358359-237.063988-243.638005v-289.738048C452.731443-25.898442000000045 274.946252-71.99848399999996 169.587893 7.022844999999961c111.942617-190.953706 401.690904-98.774102 401.690904 105.368599V421.882264c19.752772 98.774102 72.426832 158.042659 184.379688 164.626916 85.595347 13.168515 131.695389 65.852814 151.448161 144.863904-59.268557-65.852814-131.705629-52.684299-204.1427-59.268557zM795.15379 461.387809c-92.189844 39.505545-197.548203-13.168515-197.548203-98.774102v-289.738047c-26.33703-144.874144-111.952856-184.389928-217.311216-197.558444 151.458401-19.752772 302.906562 46.100042 309.50106 269.985276v171.211173c0 46.100042 19.752772 65.852814 52.684299 52.69454 19.752772-13.168515 26.33703-32.931527 19.752773-52.69454-6.584257-13.168515-32.921287-6.584257-39.505545 13.168515-6.584257-98.763862 118.516634-118.526874 144.863904-32.921287 13.168515 65.852814-6.584257 118.537114-72.437072 164.626916z"  horiz-adv-x="1024" />

    
    <glyph glyph-name="gdb" unicode="&#59349;" d="M373.82144 236.52351999999996l0.78848 0.06144C423.72096 314.12224000000003 470.65088 391.80288 512 474.51136 452.52608 590.86848 405.97504 709.81632 374.94784 826.18368 302.55104 593.4592 162.90816 360.74496 0 179.72224000000006c116.35712 28.43648 243.06688 49.14176 372.35712 56.8832l1.46432-0.08192zM649.05216 236.59519999999998c-91.52512 5.12-182.55872 5.12-274.10432 0l-0.33792-0.02048-0.78848-0.06144 0.72704-0.06144C302.14144 127.85663999999997 219.8016 27.135999999999967 134.46144-55.603200000000015c243.2512 53.76 514.44736 51.15904 755.07712-2.58048-87.92064 85.31968-168.0896 183.59296-240.4864 294.77888zM649.05216 236.59519999999998c131.8912-7.76192 258.59072-28.43648 374.94784-59.48416C855.92064 355.56352000000004 721.44896 590.86848 646.46144 826.18368 615.44448 709.81632 568.90368 590.86848 512 474.51136c41.3696-82.74944 85.32992-160.32768 137.05216-237.91616zM649.05216 236.59519999999998c72.3968-111.18592 152.56576-209.4592 240.4864-294.77888L1024 177.13152000000002c-116.35712 31.0272-243.05664 51.73248-374.94784 59.46368zM374.54848 236.47231999999997l-0.72704 0.0512-1.46432 0.08192c-129.29024-7.74144-256-28.42624-372.35712-56.8832l134.46144-235.30496c85.34016 82.71872 167.68 183.43936 240.08704 292.05504zM646.46144 826.18368H374.94784c31.0272-116.36736 77.57824-235.3152 137.05216-351.67232 56.90368 116.35712 103.44448 235.30496 134.46144 351.67232z"  horiz-adv-x="1024" />

    
    <glyph glyph-name="ccb" unicode="&#59350;" d="M942.368697 357.254043c-52.816906 4.771748-197.105976 0-197.105976 0L502.466743 107.31068200000004 271.692294 354.86816899999997l237.921832 249.933121 233.160323-235.535957 125.01776 122.642125L646.653415 729.82929S564.60187 847.382233 438.928763 844.668685C207.949518 808.952251 30.964756 605.999347 30.964756 361.15540799999997c0-270.177213 215.291866-489.155408 480.922606-489.155408 255.995085 0 465.12259 203.382975 479.949825 459.92077-2.59067 8.120164-12.543759 21.984858-49.46849 25.333273zM890.852246 527.19382l102.182998 99.592328C697.207324 1032.691955 456.582184 859.076088 456.582184 859.076088c119.181072 83.014086 434.270062-331.882268 434.270062-331.882268z"  horiz-adv-x="1024" />

    
    <glyph glyph-name="abc" unicode="&#59351;" d="M456.325354 598.037731c2.099191-10.649555 10.454996-17.029048 19.845036-18.094004h55.336728c9.400281 0 28.200842-2.129911 33.42322 8.509405 2.088951 3.194867 4.177902 9.5846 4.177902 12.769226 2.088951 7.454689 0 21.288871 0 28.733319V822.579508c0 8.509404 1.044476 73.420492-2.088951 73.420492H458.424545c-4.188142 0-2.099191-31.928186-2.099191-37.242724v-153.240956c0-35.112813-3.133427-72.355536 0-107.478589zM344.586943 388.83541v4.8947a23.685021 23.685021 0 0 1 0-4.8947zM1016.061883 416.073696C1003.528176 637.420606 846.877314 831.088913 635.944439 885.360685v-160.685405c0-48.957234 6.256614-103.229006-1.054715-152.176001-4.167662-30.86323-77.270715-10.639315-98.149988-17.029049-21.933988-7.444449-12.543947-50.01195-12.543947-67.040998v-103.218767c8.345565 19.14872 35.512171 12.769226 51.169065 12.769227 28.200842 0 61.613821-5.314538 88.770187 0 11.478992 3.194867 16.71161 12.779466 16.71161 23.418781-4.177902 3.194867 0 35.112813 0 41.502546V755.53851c139.929012-65.976043 231.832626-213.892222 231.832626-371.393 0-200.06828-150.384008-376.717778-345.670228-403.310946v211.76231c0 4.259822-1.044476 10.649555 0 14.899138 3.143667 8.519644-1.044476 4.259822 6.266854 7.454688 12.533707 4.259822 122.183167-13.834182 107.560508 22.353827-5.222378 9.57436 0 39.372635 0 51.076905V394.784825c1.054716-27.678604-32.368504-21.288871-50.12459-21.28887-28.200842 0-58.480394 3.194867-85.63676 0-28.180362 0-20.879272-37.252964-20.879272-55.336728v-103.218767c-5.232618 0-13.578183-1.064956-17.745846 1.064956-6.266854 2.119671-5.222378 1.064956-5.222378 10.639315V307.509672c0 14.909377 3.133427 34.058097-1.054715 48.957234-4.167662 24.473497-42.8235 17.029048-59.52487 17.029049-26.10165 0-57.425679-5.335018-83.537569 0-7.720928 2.611189-11.84763 8.140766-12.533708 15.329215v-115.363355c0-13.834182-3.133427-28.733319 0-41.502546 4.177902-23.408542 35.512171-17.029048 52.213541-17.029049h52.223781c11.489232 0 7.311329-10.639315 7.311329-20.213675v-213.902461c-195.27598 26.603408-345.659988 203.252906-345.659988 403.310946 0 157.490539 92.93785 305.406717 233.921577 371.393v-260.709305c0-24.473497-1.044476-48.946994-1.044475-74.485447 2.078711-13.834182 8.345565-20.223915 21.923747-22.353826h65.801964c18.790321 0 59.52487 9.5846 69.969626-12.769227V502.263414c0 25.538453 5.222378 52.141861-26.12213 54.271772-16.70137 1.064956-35.501931 0-52.213541 0-34.457455 0-33.41298 15.964093-33.412979 47.882039V885.360685C155.577817 825.774375-8.374134 596.9727760000001 8.327235 351.152368c19.845037-292.637491 286.124878-513.974161 572.259997-474.601526 257.944517 36.188008 450.08707 275.608442 435.474651 539.522854z"  horiz-adv-x="1024" />

    
    <glyph glyph-name="hb" unicode="&#59352;" d="M1020.283802 143.97439999999995l0.54272 4.29056c-31.05792-38.03136-34.80576-41.23648-50.87232-47.13472 23.02976 29.99296 53.54496 56.22784 50.87232 99.60448-12.30848-18.74944-21.42208-39.61856-44.45184-47.13472h-3.20512l17.14176 31.60064a124.07808 124.07808 0 0 1-25.16992-17.67424c-18.7392-18.20672-36.41344-37.4784-56.2176-53.54496a341.08416 341.08416 0 0 0-270.94016-83.52768C483.267482 52.224000000000046 368.722842 185.34400000000005 370.238362 341.54495999999995a303.58528 303.58528 0 0 0 99.06176 225.95584 307.88608 307.88608 0 0 0 350.72 53.54496c23.56224-11.776 45.5168-26.76736 68.53632-40.69376a107.14112 107.14112 0 0 0 53.54496 53.54496 189.66528 189.66528 0 0 1 26.76736 17.13152 32.12288 32.12288 0 0 1 6.43072 44.98432 49.28512 49.28512 0 0 1-56.22784 24.10496 141.86496 141.86496 0 0 0-94.22848 20.34688 21.41184 21.41184 0 0 0-13.39392 24.6272 35.88096 35.88096 0 0 1-25.71264 44.4416 123.21792 123.21792 0 0 1-48.18944 7.49568 39.61856 39.61856 0 0 0-45.50656 29.45024c0 3.20512-3.74784 5.888-4.28032 9.10336-0.54272 3.21536-8.0384 11.24352-17.14176 11.24352a469.07392 469.07392 0 0 1-306.2784-112.4352c-39.61856-33.73056-74.43456-69.61152-112.4352-104.41728a251.0848 251.0848 0 0 0-135.4752-71.2192 46.592 46.592 0 0 0-53.54496 36.41344c-5.888 5.888-5.888 10.71104-5.888 20.34688a264.4992 264.4992 0 0 1-53.54496-89.9584 95.25248 95.25248 0 0 1 6.9632-68.53632 97.9968 97.9968 0 0 1 114.05312-53.54496c24.09472 5.35552 47.64672 13.91616 72.81664 21.41184v-8.02816a560.60928 560.60928 0 0 1 5.34528-146.70848 470.1696 470.1696 0 0 1 221.67552-318.06464 466.42176 466.42176 0 0 1 299.3152-68.01408 315.37152 315.37152 0 0 1 136.54016 42.31168 389.6832 389.6832 0 0 1 129.04448 126.89408 571.99616 571.99616 0 0 1 34.816 70.68672h-3.7376zM588.749722 218.9312c4.59776-0.67584 9.2672-0.67584 13.8752 0h226.48832a46.04928 46.04928 0 0 1 49.79712 48.72192V411.15648a46.57152 46.57152 0 0 1-48.73216 48.18944l-2.67264 2.67264H598.877082a48.16896 48.16896 0 0 1-49.79712-50.33984v-139.2128a47.12448 47.12448 0 0 1 39.66976-53.53472z"  horiz-adv-x="1024" />

    
    <glyph glyph-name="qunar" unicode="&#59353;" d="M816.11776 187.24864000000002c13.33248 13.35296 0 86.79424 13.33248 93.47072 0 6.67648 6.67648 60.08832 20.00896 66.7648 13.37344 6.66624 73.44128-53.42208 73.44128-66.7648 33.3824-20.0192 46.7456-66.74432 60.08832-100.15744 13.37344-26.68544 13.37344-73.4208 13.37344-100.12672v-46.72512c-6.68672-13.35296-26.70592-13.35296-26.70592-26.68544 20.0192 0 60.07808-6.67648 53.42208 20.02944v46.73536c0 46.71488-6.67648 100.13696 0 146.86208 0 13.35296-26.70592 33.37216-33.35168 46.72512-6.69696 6.66624-13.39392 26.68544-20.03968 33.39264 6.66624 20.02944 0 13.35296 20.03968 13.35296 0 20.0192 13.32224 6.67648 13.32224 20.0192 6.67648 6.67648-6.67648 13.35296-6.67648 13.35296-13.34272 0-20.00896 6.66624-26.6752 13.3632-20.03968 13.34272-13.35296 40.04864-20.03968 60.06784-6.67648 20.0192-6.67648 60.09856-6.67648 86.784-6.656 6.66624-19.99872 33.37216-26.69568 40.04864-6.63552 6.66624-20.00896 20.0192-20.00896 26.69568-6.656 0-40.04864 26.69568-40.04864 33.39264-13.38368 6.68672-40.01792 26.69568-40.01792 46.73536-6.73792 13.33248-6.73792 26.68544-13.38368 40.0384 0 6.66624 26.6752 33.36192 13.38368 33.36192-6.73792 0-20.02944 0-26.71616 6.68672-6.7072 6.66624 0 20.00896-13.3632 26.68544-13.37344 6.66624-26.70592 0-40.04864-6.67648-13.39392-6.66624-60.0576-53.39136-60.0576-13.34272 0 0-13.38368 53.43232-26.7264 6.67648-6.68672-13.34272-6.68672-26.69568-13.35296-40.04864-13.35296-20.02944-40.06912 6.67648-53.42208-13.34272 0 0-6.66624-33.37216-13.37344-33.37216-19.99872-13.35296-46.71488 0-73.44128-6.66624-20.0192 0-26.68544-6.68672-46.72512-20.03968-20.02944-13.34272-33.37216-40.04864-53.43232-53.4016-26.66496-20.02944-86.79424-26.71616-113.48992-6.68672-20.00896 13.35296-53.41184 40.0384-53.41184 60.08832-6.68672 13.35296-13.33248 26.70592-13.33248 40.04864 0 20.02944-13.34272 40.04864-13.34272 60.07808 0 33.35168-93.50144 13.34272-106.81344 6.66624-26.70592 0-60.08832 6.67648-80.14848-13.35296-13.3632-6.66624-13.3632-26.69568-13.3632-33.36192-6.66624-13.35296 13.3632-20.02944 26.70592-20.02944 20.03968-13.34272 53.41184-6.67648 73.44128-20.00896 26.6752-13.35296 13.33248-40.05888 26.6752-60.08832 6.69696-13.33248 26.70592-26.68544 40.07936-40.04864 6.69696-6.66624 33.37216-33.36192 33.37216-40.0384 13.34272 0 26.6752-26.68544 40.04864-26.68544 6.67648-6.67648 26.70592-13.35296 33.37216-20.02944 40.07936-20.0192 120.1664 13.35296 140.17536-33.39264 0-20.03968 40.06912-26.68544 20.03968-53.38112-6.67648-13.35296-6.67648-26.70592-13.3632-40.05888-6.66624-33.39264-53.39136-53.4016-60.08832-86.784-6.66624-20.02944 6.69696-33.36192 20.03968-46.72512 0 0 6.66624-13.35296 13.34272-13.35296 0-13.34272 33.39264-20.0192 33.39264-33.36192 6.67648-6.68672 20.00896-13.35296 26.70592-26.69568 6.66624-13.3632 13.34272-33.3824 26.6752-46.72512 13.34272-20.0192-6.68672-53.42208-13.3632-66.77504-13.3632-6.656 26.70592-13.34272 33.3824 0 6.69696 13.3632-13.3632 53.44256 6.69696 53.44256 13.37344 0 20.00896 20.00896 13.37344 26.69568 0 0-20.04992 6.66624-13.37344 6.66624v33.37216c0 13.33248 6.66624 26.68544 6.66624 40.0384 0 33.39264 0 66.77504-6.66624 106.82368v40.0384c0 13.34272 6.66624 26.68544 6.66624 40.04864 6.69696 20.00896 26.70592 13.35296 40.04864 13.35296 13.35296 6.656 19.99872 13.34272 33.37216 13.34272 6.68672 0 40.06912 13.3632 40.06912 20.00896 19.99872 6.68672 33.3824 20.03968 53.44256 26.71616 6.63552 6.66624 40.00768 6.66624 53.4016 0 6.66624-6.67648 33.37216 0 40.04864-6.67648 6.66624 0-13.37344-60.0576-6.67648-66.73408 6.67648-13.3632 0-20.02944 0-33.41312 0-13.3632 13.35296-20.0192 13.35296-33.37216v-53.41184c-6.66624-13.35296-13.35296-33.37216-13.35296-46.72512 0-13.34272-13.38368-33.39264-13.38368-46.7456-6.66624-20.00896-13.34272-40.02816-26.6752-60.0576-6.69696-13.35296-20.02944-26.68544-26.69568-40.04864-13.37344 0-26.65472-20.02944-33.3824-26.6752-6.656 0-13.38368-13.3632-13.38368-13.3632s26.74688 0 33.39264 6.66624c0 0 6.68672-6.66624 13.37344 0 6.68672 6.68672 6.68672 13.34272 6.68672 20.00896 0 6.68672 6.67648 13.3632 6.67648 20.03968 6.68672 13.35296 20.0192 20.0192 26.68544 33.37216 20.02944 33.31072 40.06912 66.70336 73.472 93.39904zM502.3232 133.83680000000004s-20.03968 26.68544-26.70592 26.68544c-13.34272 0-33.35168 33.36192-40.0384 40.0384-13.37344 13.35296-20.04992 33.3824-13.37344 53.39136 6.69696 20.03968 13.37344 26.69568 20.00896 40.04864l13.39392 26.69568c13.34272 6.66624 20.00896-13.34272 26.6752-40.04864 6.69696-20.0192 6.69696-46.71488 13.34272-66.74432 0-19.98848 13.38368-66.69312 6.69696-80.06656z"  horiz-adv-x="1024" />

    
    <glyph glyph-name="citic" unicode="&#59354;" d="M71.09632 290.62144h284.4672l-2.54976 15.4112H71.15776v12.87168h277.62688c-1.7408 5.16096-3.4816 10.26048-6.03136 15.42144H71.04512v12.86144h264.76544c-3.42016 5.16096-6.84032 10.26048-11.13088 15.42144h-114.7904v12.86144h103.66976c-5.16096 5.96992-11.13088 10.26048-17.16224 15.42144h-86.50752v12.86144h70.28736c5.16096 5.16096 11.12064 10.26048 16.2816 15.42144H71.09632V432.0256h237.3632c4.29056 5.16096 7.71072 10.26048 11.12064 15.4112H71.09632V460.288h256.19456c1.7408 5.16096 4.29056 10.25024 6.03136 15.4112H71.09632v12.87168h265.63584c0.8704 5.15072 1.7408 10.25024 1.7408 15.4112H71.09632v12.81024h267.37664c0 5.96992-0.8704 10.26048-1.7408 15.4112H71.09632V545.0752h260.48512c-2.54976 5.95968-5.16096 10.25024-7.71072 15.4112h-86.51776V573.3376000000001h77.99808c-4.29056 5.96992-8.57088 10.26048-13.73184 15.42144h-64.26624v13.73184h47.99488c-6.84032 6.03136-14.61248 10.32192-23.12192 15.42144H0v-467.82464h269.04576a333.0048 333.0048 0 0 1 25.73312 15.42144h-56.55552v12.86144h71.97696a134.144 134.144 0 0 1 15.4112 15.4112h-87.38816v12.88192H335.872c3.42016 5.95968 6.02112 10.24 8.57088 15.40096H71.09632v12.88192H349.5936c1.7408 5.09952 2.54976 9.37984 4.29056 14.5408H71.09632V262.3488h284.4672c0.8704 5.15072 0.8704 10.26048 0.8704 15.4112H71.09632v12.86144zM462.47936 161.15711999999996h0.18432v0.04096l-0.18432-0.04096zM941.7216 301.74208l80.5376 88.25856h-73.70752l-74.52672-86.51776v166.1952h-60.83584v-306.71872h60.83584v71.95648l24.79104 24.87296 54.08768-96.89088H1024zM766.08512 375.44960000000003c-14.5408 13.68064-33.44384 19.70176-56.54528 19.70176-14.61248 0-26.61376-2.54976-37.7344-8.57088-11.12064-6.03136-21.38112-15.47264-30.84288-30.02368v33.44384h-57.41568v-227.04128h59.93472V293.2224c0 16.30208 4.28032 29.96224 12.87168 38.54336 8.58112 9.46176 19.70176 13.74208 33.44384 13.74208 16.2816 0 27.41248-5.16096 33.4336-16.2816 3.42016-6.90176 5.16096-16.2816 5.16096-29.16352v-137.10336h59.96544V319.76448000000005c-0.04096 23.97184-7.74144 42.82368-22.272 55.68512zM564.66432 180.11136c-2.56 5.09952-3.42016 13.6704-3.42016 26.55232V330.02495999999996c0 24.87296-11.14112 42.83392-32.64512 54.77376-15.4112 7.71072-33.4336 11.13088-56.54528 11.13088h-8.58112v-0.69632c-23.94112-0.88064-42.79296-5.1712-57.31328-13.73184-20.57216-12.00128-33.44384-34.31424-35.9936-65.1264h57.42592c0.8704 9.44128 3.42016 16.2816 7.71072 21.4528 5.15072 6.83008 14.5408 10.25024 27.41248 10.25024l0.74752 40.83712v-40.96h0.8704c11.18208 0 19.70176-0.86016 25.73312-3.42016 7.70048-4.28032 12.86144-12.00128 12.86144-23.12192 0-6.03136-2.54976-10.32192-6.84032-13.74208-2.60096-1.7408-7.70048-3.42016-13.73184-4.29056l-19.64032-2.53952v0.0512l-34.2528-5.15072c-20.57216-2.54976-35.9936-10.26048-47.98464-22.26176-12.05248-12.8-18.03264-29.09184-18.03264-50.5344 0-21.4528 7.71072-38.6048 22.3232-50.5856 11.99104-10.25024 28.27264-15.4112 47.11424-15.4112 11.02848 0 21.20704 1.71008 30.58688 4.22912h-0.58368v39.40352c-4.28032-0.86016-7.70048-1.73056-12.86144-1.73056-6.90176 0-12.86144 1.73056-18.0224 6.02112-6.90176 5.16096-9.45152 12.00128-9.45152 21.44256 0 11.20256 4.29056 20.5824 12.00128 25.74336 5.15072 3.42016 14.5408 6.84032 27.41248 8.58112 0.83968 0 0.88064 0.01024 1.67936 0.79872 11.12064 1.75104 20.51072 4.3008 26.54208 6.0416s10.31168 4.29056 12.86144 6.02112v-30.02368c0-12.86144-5.16096-23.98208-15.4112-32.5632-6.84032-5.98016-15.42144-9.40032-23.99232-11.14112v-38.5536l0.06144 0.02048v-0.06144h-0.06144v-0.80896c5.15072 0.8704 10.26048 3.47136 15.4112 6.03136 7.71072 4.21888 16.29184 11.99104 25.73312 22.25152 0.8704-8.51968 3.4816-17.9712 6.03136-26.54208h64.256v8.57088a17.01888 17.01888 0 0 0-9.41056 9.43104z"  horiz-adv-x="1024" />

    
    <glyph glyph-name="elong" unicode="&#59355;" d="M603.77088 733.60384c-15.89248 0-37.05856 5.30432-52.9408 5.30432v-5.30432c5.28384 0 10.57792-5.30432 15.88224-5.30432 105.92256-31.77472 190.64832-90.04032 254.208-174.78656 63.52896-84.736 95.35488-174.76608 79.42144-280.7296-21.15584-132.39296-127.10912-222.42304-254.18752-217.11872-116.5312 5.31456-275.42528 137.70752-307.22048 233.02144-15.88224 42.35264-21.16608 90.05056-10.57792 137.728 21.18656-21.18656 37.07904-42.38336 52.96128-63.56992 42.36288-52.95104 95.34464-90.0608 158.90432-111.21664 63.5392-15.88224 121.81504-21.17632 180.0704 0 95.34464 31.77472 121.79456 116.52096 63.54944 201.25696-26.49088 42.37312-68.85376 68.85376-111.23712 84.74624-84.72576 31.78496-169.48224 31.78496-254.21824 5.30432-10.58816-5.30432-21.18656-5.30432-26.46016 0-21.18656 21.17632-37.07904 47.6672-52.98176 74.12736 15.90272 0 21.1968 5.31456 37.09952 5.31456-15.90272 15.90272-31.78496 26.48064-47.67744 42.37312 26.48064-5.30432 47.67744-5.30432 74.1376-5.30432 21.18656 5.30432 31.78496 15.88224 21.18656 37.0688 0 10.60864-10.58816 21.18656-15.88224 31.77472 0-37.07904-10.5984-42.38336-37.05856-37.07904l-95.34464 31.78496c15.88224 5.30432 26.46016 5.30432 37.05856 5.30432 31.77472 0 42.37312 15.90272 31.77472 42.37312-21.18656-5.30432-42.37312-15.88224-63.55968-10.60864-31.76448 5.30432-68.83328 15.90272-105.92256 26.48064-26.48064 10.5984-31.78496 5.30432-42.37312-15.872C95.30368 797.14304 52.93056 818.33984 10.56768 844.8L0 834.22208c15.88224-37.07904 31.78496-68.83328 47.6672-105.92256 15.88224 5.30432 21.18656 15.90272 31.7952 15.90272 26.49088 0 84.736-52.96128 95.3344-84.736-10.5984 0-21.18656-5.30432-31.78496 0-26.48064 10.58816-58.24512 26.48064-79.44192 37.05856 15.90272-68.85376 84.736-153.58976 137.71776-153.58976-10.60864 21.17632-26.49088 42.36288-37.07904 63.55968 21.18656-15.89248 47.67744-26.49088 68.864-37.07904 5.30432-5.30432 10.57792-5.30432 15.88224-10.60864 21.18656-26.48064 37.0688-58.24512 58.25536-84.736-5.30432-5.30432-5.30432-10.60864-5.30432-10.60864l-10.58816-10.5984c-42.37312-52.96128-58.24512-111.22688-47.67744-174.75584 21.18656-79.47264 68.864-137.71776 137.71776-174.76608 143.01184-74.1376 296.59136-90.05056 450.2016-42.37312 111.22688 37.03808 180.08064 116.52096 190.6688 238.31552 10.60864 105.9328-31.78496 195.96288-105.9328 275.4048-84.75648 90.0608-190.69952 137.71776-312.5248 158.91456z m-37.05856-222.45376c74.1376-21.1968 142.99136-58.2656 164.16768-143.0016 5.30432-21.17632 5.30432-42.37312 5.30432-63.54944-5.30432-31.80544-37.0688-47.67744-68.83328-37.07904-15.90272 5.2736-26.48064 10.5984-37.08928 15.88224-90.03008 58.2656-142.98112 143.02208-206.56128 227.75808 47.68768 15.872 95.3344 15.872 143.01184-0.01024zM238.32576 701.80864c-21.17632-10.5984-31.78496 15.90272-52.96128 26.49088 21.18656-5.30432 37.07904-15.89248 52.96128-21.18656v-5.30432zM127.10912 426.42432c-21.18656-5.30432-47.67744-5.30432-74.14784-15.91296-26.48064-10.5984-42.36288-31.77472-42.36288-68.864 0-63.52896 15.88224-116.52096 47.6672-169.48224 68.864-111.21664 164.20864-180.09088 286.01344-217.15968 42.37312-10.5472 90.04032-21.15584 137.70752-31.76448V-66.15039999999999c-227.76832 84.75648-370.75968 227.75808-354.87744 492.57472z"  horiz-adv-x="1024" />

    
    <glyph glyph-name="hywater" unicode="&#59356;" d="M566.9888 399.88224c60.16-32.43008 237.94688-82.82112 428.7488 143.19616a503.07072 503.07072 0 0 1-11.58144 31.4368c-53.10464-52.06016-198.656-167.53664-404.72576-117.74976-18.64704 15.34976-37.00736 38.72768-47.44192 74.1376 2.23232-1.18784 4.41344-2.24256 6.64576-3.46112 57.68192-31.10912 236.04224-91.36128 419.25632 102.51264C871.31136 788.35712 703.5392 896 510.28992 896 257.1776 896 47.22688 711.6800000000001 7.04512 469.9648c67.92192 64.96256 203.58144 157.65504 394.11712 111.7696 31.50848-23.32672 82.80064-50.61632 70.57408-86.12864-72.28416 29.76768-269.12768 89.47712-471.69536-108.9536 0-0.3072-0.03072-0.62464-0.03072-0.94208 0-25.35424 1.91488-50.26816 5.4784-74.63936 60.60032 69.65248 259.59424 253.51168 561.50016 88.81152zM581.1712 243.95776c104.6528-33.46432 266.02496-59.4432 438.99904 125.71648 0.17408 5.33504 0.41984 10.65984 0.41984 16.01536 0 18.10432-0.9728 35.96288-2.80576 53.57568-25.84576-28.1088-231.46496-237.02528-521.64608-110.27456-35.88096 15.75936-230.01088 135.63904-467.38432-112.18944a506.90048 506.90048 0 0 1 16.18944-40.1408c44.42112 43.74528 178.08384 150.64064 392.0384 112.128 27.136-14.22336 51.27168-36.05504 58.85952-69.59104-79.5136 28.68224-248.35072 63.68256-425.78944-90.71616 88.5248-151.25504 252.33408-253.09184 440.2688-253.09184 247.36768 0 453.59104 176.03584 500.3264 409.66144-61.7472-60.76416-197.5808-157.39904-403.34336-105.61536-30.88384 21.6576-59.19744 49.58208-45.056 72.35584 6.27712-2.52928 12.52352-5.02784 18.92352-7.8336z"  horiz-adv-x="1024" />

    
    <glyph glyph-name="hsr" unicode="&#59357;" d="M1018.89024 280.21759999999995c-95.32416 299.7248-435.39456 358.5024-435.39456 358.5024H0v-509.44h962.28352c28.09856 0 77.7728 70.4 56.60672 150.9376z m-773.60128 75.47904H94.34112V487.7824h150.94784v-132.08576z m226.41664 0h-150.9376V487.7824h150.94784v-132.08576z m75.47904 0V487.7824h169.80992c141.8752-18.25792 169.82016-132.07552 169.82016-132.07552H547.18464z"  horiz-adv-x="1024" />

    
    <glyph glyph-name="airlines" unicode="&#59358;" d="M979.53792 317.47072000000003h-289.3824l-244.86912-400.6912H333.99808l133.55008 400.6912H155.91424L66.8672 206.16192H0.09216L66.8672 361.98400000000004v22.26176L0.09216 562.3296H66.8672l89.0368-111.3088h311.64416L333.99808 851.70176h111.29856l244.86912-400.68096h289.3824a44.52352 44.52352 0 0 0 44.52352-44.52352v-44.52352a44.52352 44.52352 0 0 0-44.53376-44.50304z"  horiz-adv-x="1024" />

    
    <glyph glyph-name="bc" unicode="&#59359;" d="M666.48064 680.77568c-59.02336 0-118.016-17.34656-166.62528-48.5888L333.24032 524.58496V896L41.65632 649.54368v-465.14176c0-135.38304 86.784-253.39904 215.22432-295.04512L312.41216-128c-118.016 55.53152-190.9248 173.54752-190.9248 305.4592 0 187.4432 159.68256 343.6544 354.05824 343.6544 177.02912 3.47136 329.76896-128.44032 350.60736-305.46944H624.82432c-20.81792 76.36992-97.19808 128.44032-177.03936 114.55488-79.83104-13.88544-135.3728-83.31264-131.90144-163.14368 6.93248-79.84128 69.41696-142.32576 152.71936-145.79712 83.31264-3.46112 149.27872 55.54176 159.67232 135.38304H826.1632c-3.4816-65.9456-27.78112-131.91168-69.43744-183.98208 0 0 121.4976 145.78688 166.61504 208.2816 38.18496 55.54176 59.00288 121.48736 59.00288 190.9248 0 83.31264-31.22176 163.14368-90.24512 222.14656-62.47424 52.06016-142.31552 86.76352-225.61792 86.76352z"  horiz-adv-x="1024" />

    
    <glyph glyph-name="redpack" unicode="&#59335;" d="M802.454187-128H217.311573c-80.785067 0-146.285227 65.50016-146.285226 146.285227V730.714453c78.71488-89.856 184.142507-155.5712 304.07168-184.285866 22.213973-52.4288 74.2144-89.284267 134.785706-89.284267s112.571733 36.857173 134.785707 89.284267c119.929173 28.714667 225.358507 94.429867 304.07168 184.285866v-712.429226c-0.001707-80.785067-65.501867-146.285227-146.286933-146.285227z m-148.498774 753.21344c-10.571093 70.357333-70.785707 124.499627-144.07168 124.499627s-133.500587-54.142293-144.141653-124.499627C253.525333 658.85696 157.597013 729.857707 92.025173 824.142507 117.526187 867.00032 163.810987 896 217.311573 896h585.142614c53.500587 0 99.785387-28.99968 125.284693-71.857493-65.570133-94.2848-161.570133-165.285547-273.783467-198.929067z"  horiz-adv-x="1024" />

    
    <glyph glyph-name="notadmail" unicode="&#59333;" d="M76.8 115.71199999999999V653.312c0 35.84 28.672 63.488 63.488 63.488h436.224l40.96 76.8H102.4C46.08 793.6 0 747.52 0 691.2v-614.4c0-56.32 46.08-102.4 102.4-102.4h79.872l40.96 76.8h-82.944c-34.816 0-63.488 28.672-63.488 64.512z m252.928 392.192h2.048c0-8.192 3.072-20.48 9.216-35.84l45.056-116.736 35.84 66.56L358.4 571.392h-59.392L142.336 196.60799999999995h64.512l37.888 90.112H348.16l28.672 54.272H267.264l52.224 131.072c5.12 13.312 9.216 24.576 10.24 35.84zM921.6 793.6h-71.68l-40.96-76.8h73.728c35.84 0 63.488-28.672 63.488-63.488v-537.6c0-35.84-28.672-63.488-63.488-63.488H455.68l-40.96-76.8H921.6c56.32 0 102.4 46.08 102.4 102.4V691.2c0 56.32-46.08 102.4-102.4 102.4zM691.2 248.832h-73.728V356.352l-61.44-114.688v-43.008h135.168c128-4.096 190.464 58.368 187.392 185.344-1.024 110.592-51.2 172.032-148.48 184.32l-28.672-54.272c74.752-4.096 112.64-48.128 114.688-132.096 1.024-90.112-40.96-134.144-124.928-133.12zM773.12 868.352c-18.432 10.24-41.984 3.072-52.224-16.384L240.64-52.224000000000046c-10.24-18.432-3.072-41.984 16.384-52.224 18.432-10.24 41.984-3.072 52.224 16.384L789.504 816.128c10.24 18.432 3.072 41.984-16.384 52.224z"  horiz-adv-x="1024" />

    
    <glyph glyph-name="superattach" unicode="&#59334;" d="M965.764096 781.312C887.940096 859.136 763.012096 860.16 686.212096 783.36L266.372096 363.52c-22.528-22.528-34.816-52.224-34.816-83.968 0-31.744 12.288-61.44 34.816-83.968 46.08-46.08 121.856-47.104 167.936-1.024l314.368 314.368c15.36 15.36 15.36 40.96 0 57.344-16.384 16.384-41.984 16.384-57.344 0L377.988096 252.928c-14.336-14.336-38.912-14.336-53.248 0-7.168 7.168-11.264 16.384-11.264 26.624s4.096 19.456 11.264 26.624l419.84 418.816c45.056 45.056 118.784 45.056 164.864-1.024 46.08-46.08 46.08-119.808 1.024-164.864L416.900096 66.55999999999995c-75.776-75.776-200.704-75.776-277.504 1.024-76.8 77.824-77.824 201.728-2.048 277.504l381.952 381.952c15.36 15.36 15.36 40.96 0 57.344-16.384 16.384-41.984 16.384-57.344 0L80.004096 402.432C-27.515904 295.93600000000004-26.491904 119.80799999999999 82.052096 11.26400000000001c108.544-108.544 284.672-109.568 392.192-2.048l492.544 492.544c76.8 76.8 75.776 201.728-1.024 279.552zM921.732096 349.18399999999997L602.244096 29.696000000000026c-15.36-15.36-15.36-40.96 0-56.32s40.96-15.36 56.32 0l319.488 319.488c15.36 15.36 15.36 40.96 0 56.32s-40.96 15.36-56.32 0z"  horiz-adv-x="1024" />

    
    <glyph glyph-name="revoke" unicode="&#59332;" d="M678.144 641.024H138.496l146.432 146.432c15.36 15.36 15.36 40.96 0 57.344-15.36 15.36-40.96 15.36-57.344 0L11.52 629.76c-15.36-15.36-15.36-40.96 0-57.344l216.064-215.04c8.192-8.192 18.432-12.288 28.672-12.288s20.48 4.096 28.672 12.288c15.36 15.36 15.36 40.96 0 57.344L138.496 560.1279999999999h539.648c146.432 0 265.216-118.784 265.216-265.216v-8.192c0-146.432-118.784-265.216-265.216-265.216H67.84c-22.528 0-39.936-18.432-39.936-39.936s18.432-39.936 39.936-39.936h610.304C868.608-58.36800000000005 1024.256 97.27999999999997 1024.256 287.744v8.192c0 189.44-155.648 345.088-346.112 345.088z"  horiz-adv-x="1024" />

    
    <glyph glyph-name="original" unicode="&#59331;" d="M518.144-45.05600000000004H121.856C99.328-45.05600000000004 81.92-26.624000000000024 81.92-5.1200000000000045V775.168c0 22.528 18.432 39.936 39.936 39.936h780.288c22.528 0 39.936-18.432 39.936-39.936v-457.728c0-22.528 18.432-39.936 39.936-39.936s39.936 18.432 39.936 39.936V775.168C1022.976 841.728 968.704 896 902.144 896H121.856C55.296 896 1.024 841.728 1.024 775.168V-5.1200000000000045c0-66.56 54.272-120.832 120.832-120.832h395.264c22.528 0 39.936 18.432 39.936 39.936s-17.408 40.96-38.912 40.96zM1012.736-58.36800000000005l-97.28 97.28c19.456 29.696 29.696 64.512 29.696 101.376 0 50.176-19.456 97.28-55.296 133.12-73.728 73.728-192.512 73.728-266.24 0-73.728-73.728-73.728-192.512 0-266.24 36.864-36.864 84.992-55.296 133.12-55.296 35.84 0 70.656 10.24 101.376 29.696l97.28-97.28c15.36-15.36 40.96-15.36 57.344 0 15.36 15.36 15.36 40.96 0 57.344z m-332.8 122.88c-41.984 41.984-41.984 110.592 0 152.576 20.48 20.48 48.128 31.744 75.776 31.744s55.296-10.24 75.776-31.744c20.48-20.48 31.744-47.104 31.744-75.776s-11.264-55.296-31.744-75.776c-40.96-43.008-109.568-43.008-151.552-1.024zM256 651.264c-22.528 0-39.936-18.432-39.936-39.936s18.432-39.936 39.936-39.936h510.976c22.528 0 39.936 18.432 39.936 39.936s-18.432 39.936-39.936 39.936H256zM525.312 425.984H256c-22.528 0-39.936-18.432-39.936-39.936s18.432-39.936 39.936-39.936h269.312c22.528 0 39.936 18.432 39.936 39.936s-17.408 39.936-39.936 39.936zM391.168 119.80799999999999c22.528 0 39.936 18.432 39.936 39.936S412.672 199.67999999999995 391.168 199.67999999999995H256c-22.528 0-39.936-18.432-39.936-39.936s18.432-39.936 39.936-39.936h135.168z"  horiz-adv-x="1024" />

    
    </font>
</defs>
</svg>
